solid Arduino_Box_Leonardo_Pro_Mini_Remix
facet normal -1.0 0.0 0.0
  outer loop
    vertex -9.999999999999998 -11.0 14.0
    vertex -9.999999999999998 -5.199999809265137 11.0
    vertex -9.999999999999998 -11.0 0.0
  endloop
endfacet
facet normal -1.0 0.0 0.0
  outer loop
    vertex -9.999999999999998 -5.199999809265137 11.0
    vertex -9.999999999999998 -11.0 14.0
    vertex -9.999999999999998 9.999999999999998 14.0
  endloop
endfacet
facet normal -1.0 0.0 0.0
  outer loop
    vertex -9.999999999999998 -5.199999809265137 11.0
    vertex -9.999999999999998 9.999999999999998 14.0
    vertex -9.999999999999998 -4.5 11.0
  endloop
endfacet
facet normal -1.0 0.0 0.0
  outer loop
    vertex -9.999999999999998 -4.5 11.0
    vertex -9.999999999999998 9.999999999999998 14.0
    vertex -9.999999999999998 -0.9828320124239571 10.192811188918604
  endloop
endfacet
facet normal -1.0 0.0 0.0
  outer loop
    vertex -9.999999999999998 -4.5 11.0
    vertex -9.999999999999998 -0.9828320124239571 10.192811188918604
    vertex -9.999999999999998 -1.404898683494545 10.017985449535503
  endloop
endfacet
facet normal -1.0 0.0 0.0
  outer loop
    vertex -9.999999999999998 -4.5 11.0
    vertex -9.999999999999998 -1.404898683494545 10.017985449535503
    vertex -9.999999999999998 -1.7673355505710036 9.739877859989194
  endloop
endfacet
facet normal -1.0 0.0 0.0
  outer loop
    vertex -9.999999999999998 -4.5 11.0
    vertex -9.999999999999998 -1.7673355505710036 9.739877859989194
    vertex -9.999999999999998 -2.045443140117314 9.377440992912737
  endloop
endfacet
facet normal -1.0 0.0 0.0
  outer loop
    vertex -9.999999999999998 -4.5 11.0
    vertex -9.999999999999998 -2.045443140117314 9.377440992912737
    vertex -9.999999999999998 -2.2202688795004155 8.955374321842148
  endloop
endfacet
facet normal -1.0 0.0 0.0
  outer loop
    vertex -9.999999999999998 -4.5 11.0
    vertex -9.999999999999998 -2.2202688795004155 8.955374321842148
    vertex -9.999999999999998 -4.5 3.400000095367431
  endloop
endfacet
facet normal -1.0 0.0 0.0
  outer loop
    vertex -9.999999999999998 -4.5 3.400000095367431
    vertex -9.999999999999998 -2.2202688795004155 8.955374321842148
    vertex -9.999999999999998 -2.279898683494546 8.502440992912735
  endloop
endfacet
facet normal -1.0 0.0 0.0
  outer loop
    vertex -9.999999999999998 -0.9828320124239571 10.192811188918604
    vertex -9.999999999999998 9.999999999999998 14.0
    vertex -9.999999999999998 -0.5298986834945465 10.252440992912735
  endloop
endfacet
facet normal -1.0 0.0 0.0
  outer loop
    vertex -9.999999999999998 -0.5298986834945465 10.252440992912735
    vertex -9.999999999999998 9.999999999999998 14.0
    vertex -9.999999999999998 -0.07696535456513452 10.192811188918604
  endloop
endfacet
facet normal -1.0 0.0 0.0
  outer loop
    vertex -9.999999999999998 -0.07696535456513452 10.192811188918604
    vertex -9.999999999999998 9.999999999999998 14.0
    vertex -9.999999999999998 0.34510131650545467 10.017985449535503
  endloop
endfacet
facet normal -1.0 0.0 0.0
  outer loop
    vertex -9.999999999999998 0.34510131650545467 10.017985449535503
    vertex -9.999999999999998 9.999999999999998 14.0
    vertex -9.999999999999998 0.7075381835819119 9.739877859989193
  endloop
endfacet
facet normal -1.0 0.0 0.0
  outer loop
    vertex -9.999999999999998 0.7075381835819119 9.739877859989193
    vertex -9.999999999999998 9.999999999999998 14.0
    vertex -9.999999999999998 3.499999999999999 11.0
  endloop
endfacet
facet normal -1.0 0.0 0.0
  outer loop
    vertex -9.999999999999998 0.7075381835819119 9.739877859989193
    vertex -9.999999999999998 3.499999999999999 11.0
    vertex -9.999999999999998 0.985645773128222 9.377440992912735
  endloop
endfacet
facet normal -1.0 0.0 0.0
  outer loop
    vertex -9.999999999999998 0.985645773128222 9.377440992912735
    vertex -9.999999999999998 3.499999999999999 11.0
    vertex -9.999999999999998 1.1604715125113225 8.955374321842147
  endloop
endfacet
facet normal -1.0 0.0 0.0
  outer loop
    vertex -9.999999999999998 1.1604715125113225 8.955374321842147
    vertex -9.999999999999998 3.499999999999999 11.0
    vertex -9.999999999999998 1.220101316505453 8.502440992912735
  endloop
endfacet
facet normal -1.0 0.0 0.0
  outer loop
    vertex -9.999999999999998 3.499999999999999 11.0
    vertex -9.999999999999998 9.999999999999998 14.0
    vertex -9.999999999999998 4.199999809265135 11.0
  endloop
endfacet
facet normal -1.0 0.0 0.0
  outer loop
    vertex -9.999999999999998 4.199999809265135 11.0
    vertex -9.999999999999998 9.999999999999998 14.0
    vertex -9.999999999999998 4.199999809265135 3.400000095367431
  endloop
endfacet
facet normal -1.0 0.0 0.0
  outer loop
    vertex -9.999999999999998 4.199999809265135 3.400000095367431
    vertex -9.999999999999998 9.999999999999998 14.0
    vertex -9.999999999999998 4.199999809265135 2.700000047683716
  endloop
endfacet
facet normal -1.0 0.0 0.0
  outer loop
    vertex -9.999999999999998 4.199999809265135 2.700000047683716
    vertex -9.999999999999998 9.999999999999998 14.0
    vertex -9.999999999999998 4.199999809265135 1.9999999999999998
  endloop
endfacet
facet normal -1.0 0.0 0.0
  outer loop
    vertex -9.999999999999998 -11.0 0.0
    vertex -9.999999999999998 -5.199999809265137 1.9999999999999998
    vertex -9.999999999999998 9.999999999999998 0.0
  endloop
endfacet
facet normal -1.0 0.0 0.0
  outer loop
    vertex -9.999999999999998 -5.199999809265137 1.9999999999999998
    vertex -9.999999999999998 -11.0 0.0
    vertex -9.999999999999998 -5.199999809265137 11.0
  endloop
endfacet
facet normal -1.0 0.0 0.0
  outer loop
    vertex -9.999999999999998 -5.199999809265137 1.9999999999999998
    vertex -9.999999999999998 -5.199999809265137 11.0
    vertex -9.999999999999998 -5.199999809265137 3.400000095367431
  endloop
endfacet
facet normal -1.0 0.0 0.0
  outer loop
    vertex -9.999999999999998 -5.199999809265137 1.9999999999999998
    vertex -9.999999999999998 -5.199999809265137 3.400000095367431
    vertex -9.999999999999998 -5.199999809265137 2.700000047683716
  endloop
endfacet
facet normal -1.0 0.0 0.0
  outer loop
    vertex -9.999999999999998 9.999999999999998 0.0
    vertex -9.999999999999998 -5.199999809265137 1.9999999999999998
    vertex -9.999999999999998 4.199999809265135 1.9999999999999998
  endloop
endfacet
facet normal -1.0 0.0 0.0
  outer loop
    vertex -9.999999999999998 9.999999999999998 0.0
    vertex -9.999999999999998 4.199999809265135 1.9999999999999998
    vertex -9.999999999999998 9.999999999999998 14.0
  endloop
endfacet
facet normal -1.0 0.0 0.0
  outer loop
    vertex -9.999999999999998 -4.5 3.400000095367431
    vertex -9.999999999999998 -5.199999809265137 2.700000047683716
    vertex -9.999999999999998 -5.199999809265137 3.400000095367431
  endloop
endfacet
facet normal -1.0 0.0 0.0
  outer loop
    vertex -9.999999999999998 -5.199999809265137 2.700000047683716
    vertex -9.999999999999998 -4.5 3.400000095367431
    vertex -9.999999999999998 4.199999809265135 2.700000047683716
  endloop
endfacet
facet normal -1.0 0.0 0.0
  outer loop
    vertex -9.999999999999998 4.199999809265135 2.700000047683716
    vertex -9.999999999999998 -4.5 3.400000095367431
    vertex -9.999999999999998 -1.4048986834945463 6.986896536289969
  endloop
endfacet
facet normal -1.0 0.0 0.0
  outer loop
    vertex -9.999999999999998 -1.4048986834945463 6.986896536289969
    vertex -9.999999999999998 -4.5 3.400000095367431
    vertex -9.999999999999998 -1.7673355505710049 7.265004125836277
  endloop
endfacet
facet normal -1.0 0.0 0.0
  outer loop
    vertex -9.999999999999998 -1.7673355505710049 7.265004125836277
    vertex -9.999999999999998 -4.5 3.400000095367431
    vertex -9.999999999999998 -2.045443140117315 7.627440992912736
  endloop
endfacet
facet normal -1.0 0.0 0.0
  outer loop
    vertex -9.999999999999998 -2.045443140117315 7.627440992912736
    vertex -9.999999999999998 -4.5 3.400000095367431
    vertex -9.999999999999998 -2.2202688795004155 8.049507663983325
  endloop
endfacet
facet normal -1.0 0.0 0.0
  outer loop
    vertex -9.999999999999998 -2.2202688795004155 8.049507663983325
    vertex -9.999999999999998 -4.5 3.400000095367431
    vertex -9.999999999999998 -2.279898683494546 8.502440992912735
  endloop
endfacet
facet normal -1.0 0.0 0.0
  outer loop
    vertex -9.999999999999998 4.199999809265135 2.700000047683716
    vertex -9.999999999999998 -1.4048986834945463 6.986896536289969
    vertex -9.999999999999998 -0.9828320124239586 6.812070796906866
  endloop
endfacet
facet normal -1.0 0.0 0.0
  outer loop
    vertex -9.999999999999998 4.199999809265135 2.700000047683716
    vertex -9.999999999999998 -0.9828320124239586 6.812070796906866
    vertex -9.999999999999998 -0.5298986834945465 6.752440992912736
  endloop
endfacet
facet normal -1.0 0.0 0.0
  outer loop
    vertex -9.999999999999998 4.199999809265135 2.700000047683716
    vertex -9.999999999999998 -0.5298986834945465 6.752440992912736
    vertex -9.999999999999998 -0.07696535456513592 6.812070796906866
  endloop
endfacet
facet normal -1.0 0.0 0.0
  outer loop
    vertex -9.999999999999998 4.199999809265135 2.700000047683716
    vertex -9.999999999999998 -0.07696535456513592 6.812070796906866
    vertex -9.999999999999998 3.499999999999999 3.400000095367431
  endloop
endfacet
facet normal -1.0 0.0 0.0
  outer loop
    vertex -9.999999999999998 3.499999999999999 3.400000095367431
    vertex -9.999999999999998 -0.07696535456513592 6.812070796906866
    vertex -9.999999999999998 0.3451013165054533 6.986896536289969
  endloop
endfacet
facet normal -1.0 0.0 0.0
  outer loop
    vertex -9.999999999999998 3.499999999999999 3.400000095367431
    vertex -9.999999999999998 0.3451013165054533 6.986896536289969
    vertex -9.999999999999998 0.7075381835819119 7.265004125836277
  endloop
endfacet
facet normal -1.0 0.0 0.0
  outer loop
    vertex -9.999999999999998 3.499999999999999 3.400000095367431
    vertex -9.999999999999998 0.7075381835819119 7.265004125836277
    vertex -9.999999999999998 0.9856457731282205 7.627440992912736
  endloop
endfacet
facet normal -1.0 0.0 0.0
  outer loop
    vertex -9.999999999999998 3.499999999999999 3.400000095367431
    vertex -9.999999999999998 0.9856457731282205 7.627440992912736
    vertex -9.999999999999998 1.1604715125113225 8.049507663983324
  endloop
endfacet
facet normal -1.0 0.0 0.0
  outer loop
    vertex -9.999999999999998 3.499999999999999 3.400000095367431
    vertex -9.999999999999998 1.1604715125113225 8.049507663983324
    vertex -9.999999999999998 1.220101316505453 8.502440992912735
  endloop
endfacet
facet normal -1.0 0.0 0.0
  outer loop
    vertex -9.999999999999998 3.499999999999999 3.400000095367431
    vertex -9.999999999999998 1.220101316505453 8.502440992912735
    vertex -9.999999999999998 3.499999999999999 11.0
  endloop
endfacet
facet normal -1.0 0.0 0.0
  outer loop
    vertex -9.999999999999998 4.199999809265135 2.700000047683716
    vertex -9.999999999999998 3.499999999999999 3.400000095367431
    vertex -9.999999999999998 4.199999809265135 3.400000095367431
  endloop
endfacet
facet normal 0.0 0.0 -1.0
  outer loop
    vertex -8.999999999999998 4.199999809265135 2.700000047683716
    vertex -9.999999999999998 -5.199999809265137 2.700000047683716
    vertex -9.999999999999998 4.199999809265135 2.700000047683716
  endloop
endfacet
facet normal 0.0 0.0 -1.0
  outer loop
    vertex -9.999999999999998 -5.199999809265137 2.700000047683716
    vertex -8.999999999999998 4.199999809265135 2.700000047683716
    vertex -8.999999999999998 -5.199999809265137 2.700000047683716
  endloop
endfacet
facet normal 0.0 1.0 0.0
  outer loop
    vertex 25.0 -6.0 7.999999999999999
    vertex 25.999999999999996 -6.0 3.5
    vertex 25.0 -6.0 3.5
  endloop
endfacet
facet normal 0.0 1.0 0.0
  outer loop
    vertex 25.999999999999996 -6.0 3.5
    vertex 25.0 -6.0 7.999999999999999
    vertex 25.999999999999996 -6.0 7.999999999999999
  endloop
endfacet
facet normal 0.0 -1.0 0.0
  outer loop
    vertex 25.999999999999996 4.999999999999999 7.999999999999999
    vertex 25.0 4.999999999999999 3.5
    vertex 25.999999999999996 4.999999999999999 3.5
  endloop
endfacet
facet normal 0.0 -1.0 0.0
  outer loop
    vertex 25.0 4.999999999999999 3.5
    vertex 25.999999999999996 4.999999999999999 7.999999999999999
    vertex 25.0 4.999999999999999 7.999999999999999
  endloop
endfacet
facet normal 0.0 0.0 1.0
  outer loop
    vertex 16.999999999999996 -4.5 3.5
    vertex 13.499999999999998 3.499999999999999 3.5
    vertex 13.499999999999998 -4.5 3.5
  endloop
endfacet
facet normal 0.0 0.0 1.0
  outer loop
    vertex 13.499999999999998 3.499999999999999 3.5
    vertex 16.999999999999996 -4.5 3.5
    vertex 16.999999999999996 3.499999999999999 3.5
  endloop
endfacet
facet normal 0.0 0.0 -1.0
  outer loop
    vertex 25.999999999999996 4.999999999999999 7.999999999999999
    vertex 25.0 -6.0 7.999999999999999
    vertex 25.0 4.999999999999999 7.999999999999999
  endloop
endfacet
facet normal 0.0 0.0 -1.0
  outer loop
    vertex 25.0 -6.0 7.999999999999999
    vertex 25.999999999999996 4.999999999999999 7.999999999999999
    vertex 25.999999999999996 -6.0 7.999999999999999
  endloop
endfacet
facet normal 0.0 0.0 1.0
  outer loop
    vertex 25.999999999999996 -6.0 3.5
    vertex 25.0 4.999999999999999 3.5
    vertex 25.0 -6.0 3.5
  endloop
endfacet
facet normal 0.0 0.0 1.0
  outer loop
    vertex 25.0 4.999999999999999 3.5
    vertex 25.999999999999996 -6.0 3.5
    vertex 25.999999999999996 4.999999999999999 3.5
  endloop
endfacet
facet normal 0.25881873383287646 0.0 0.9659259096934644
  outer loop
    vertex -8.096091270446777 -3.499999999999999 6.172861576080322
    vertex -8.171858787536621 2.4999999999999982 6.1931633949279785
    vertex -8.171858787536621 -3.499999999999999 6.1931633949279785
  endloop
endfacet
facet normal 0.25881873383287646 0.0 0.9659259096934644
  outer loop
    vertex -8.171858787536621 2.4999999999999982 6.1931633949279785
    vertex -8.096091270446777 -3.499999999999999 6.172861576080322
    vertex -8.096091270446777 2.4999999999999982 6.172861576080322
  endloop
endfacet
facet normal 0.08715503541599365 0.0 0.9961947599749946
  outer loop
    vertex -8.171858787536621 -3.499999999999999 6.1931633949279785
    vertex -8.249999999999998 2.4999999999999982 6.199999809265136
    vertex -8.249999999999998 -3.499999999999999 6.199999809265136
  endloop
endfacet
facet normal 0.08715503541599365 0.0 0.9961947599749946
  outer loop
    vertex -8.249999999999998 2.4999999999999982 6.199999809265136
    vertex -8.171858787536621 -3.499999999999999 6.1931633949279785
    vertex -8.171858787536621 2.4999999999999982 6.1931633949279785
  endloop
endfacet
facet normal 0.4226142234591799 0.0 0.9063096701072952
  outer loop
    vertex -8.024999618530273 -3.499999999999999 6.139711380004883
    vertex -8.096091270446777 2.4999999999999982 6.172861576080322
    vertex -8.096091270446777 -3.499999999999999 6.172861576080322
  endloop
endfacet
facet normal 0.4226142234591799 0.0 0.9063096701072952
  outer loop
    vertex -8.096091270446777 2.4999999999999982 6.172861576080322
    vertex -8.024999618530273 -3.499999999999999 6.139711380004883
    vertex -8.024999618530273 2.4999999999999982 6.139711380004883
  endloop
endfacet
facet normal 0.8191510902653496 0.0 0.5735777988355975
  outer loop
    vertex -7.860288619995116 2.4999999999999982 5.9749999046325675
    vertex -7.905280113220214 -3.499999999999999 6.039254188537598
    vertex -7.860288619995116 -3.499999999999999 5.9749999046325675
  endloop
endfacet
facet normal 0.8191510902653496 0.0 0.5735777988355975
  outer loop
    vertex -7.905280113220214 -3.499999999999999 6.039254188537598
    vertex -7.860288619995116 2.4999999999999982 5.9749999046325675
    vertex -7.905280113220214 2.4999999999999982 6.039254188537598
  endloop
endfacet
facet normal 0.5735806550446882 0.0 0.8191490903117127
  outer loop
    vertex -7.9607458114624015 -3.499999999999999 6.094719886779784
    vertex -8.024999618530273 2.4999999999999982 6.139711380004883
    vertex -8.024999618530273 -3.499999999999999 6.139711380004883
  endloop
endfacet
facet normal 0.5735806550446882 0.0 0.8191490903117127
  outer loop
    vertex -8.024999618530273 2.4999999999999982 6.139711380004883
    vertex -7.9607458114624015 -3.499999999999999 6.094719886779784
    vertex -7.9607458114624015 2.4999999999999982 6.094719886779784
  endloop
endfacet
facet normal 0.707106781186543 0.0 0.7071067811865521
  outer loop
    vertex -7.905280113220214 -3.499999999999999 6.039254188537598
    vertex -7.9607458114624015 2.4999999999999982 6.094719886779784
    vertex -7.9607458114624015 -3.499999999999999 6.094719886779784
  endloop
endfacet
facet normal 0.707106781186543 0.0 0.7071067811865521
  outer loop
    vertex -7.9607458114624015 2.4999999999999982 6.094719886779784
    vertex -7.905280113220214 -3.499999999999999 6.039254188537598
    vertex -7.905280113220214 2.4999999999999982 6.039254188537598
  endloop
endfacet
facet normal 0.0 1.0 0.0
  outer loop
    vertex -8.999999999999998 2.4999999999999982 6.199999809265136
    vertex -7.800000190734862 2.4999999999999982 5.199999809265137
    vertex -8.999999999999998 2.4999999999999982 5.199999809265137
  endloop
endfacet
facet normal 0.0 1.0 0.0
  outer loop
    vertex -7.800000190734862 2.4999999999999982 5.199999809265137
    vertex -8.999999999999998 2.4999999999999982 6.199999809265136
    vertex -7.800000190734862 2.4999999999999982 5.749999999999999
  endloop
endfacet
facet normal 0.0 1.0 0.0
  outer loop
    vertex -7.800000190734862 2.4999999999999982 5.749999999999999
    vertex -8.999999999999998 2.4999999999999982 6.199999809265136
    vertex -7.8068366050720215 2.4999999999999982 5.828141689300537
  endloop
endfacet
facet normal 0.0 1.0 0.0
  outer loop
    vertex -7.8068366050720215 2.4999999999999982 5.828141689300537
    vertex -8.999999999999998 2.4999999999999982 6.199999809265136
    vertex -7.827138423919678 2.4999999999999982 5.903909206390381
  endloop
endfacet
facet normal 0.0 1.0 0.0
  outer loop
    vertex -7.827138423919678 2.4999999999999982 5.903909206390381
    vertex -8.999999999999998 2.4999999999999982 6.199999809265136
    vertex -7.860288619995116 2.4999999999999982 5.9749999046325675
  endloop
endfacet
facet normal 0.0 1.0 0.0
  outer loop
    vertex -7.860288619995116 2.4999999999999982 5.9749999046325675
    vertex -8.999999999999998 2.4999999999999982 6.199999809265136
    vertex -7.905280113220214 2.4999999999999982 6.039254188537598
  endloop
endfacet
facet normal 0.0 1.0 0.0
  outer loop
    vertex -7.905280113220214 2.4999999999999982 6.039254188537598
    vertex -8.999999999999998 2.4999999999999982 6.199999809265136
    vertex -8.249999999999998 2.4999999999999982 6.199999809265136
  endloop
endfacet
facet normal 0.0 -1.0 0.0
  outer loop
    vertex 25.999999999999996 -11.0 14.0
    vertex -9.999999999999998 -11.0 0.0
    vertex 25.999999999999996 -11.0 0.0
  endloop
endfacet
facet normal 0.0 -1.0 0.0
  outer loop
    vertex -9.999999999999998 -11.0 0.0
    vertex 25.999999999999996 -11.0 14.0
    vertex -9.999999999999998 -11.0 14.0
  endloop
endfacet
facet normal 0.0 1.0 0.0
  outer loop
    vertex -9.999999999999998 9.999999999999998 14.0
    vertex 25.999999999999996 9.999999999999998 0.0
    vertex -9.999999999999998 9.999999999999998 0.0
  endloop
endfacet
facet normal 0.0 1.0 0.0
  outer loop
    vertex 25.999999999999996 9.999999999999998 0.0
    vertex -9.999999999999998 9.999999999999998 14.0
    vertex 25.999999999999996 9.999999999999998 14.0
  endloop
endfacet
facet normal 1.0 0.0 0.0
  outer loop
    vertex 16.999999999999996 3.499999999999999 1.9999999999999998
    vertex 16.999999999999996 -4.5 3.5
    vertex 16.999999999999996 -4.5 1.9999999999999998
  endloop
endfacet
facet normal 1.0 0.0 0.0
  outer loop
    vertex 16.999999999999996 -4.5 3.5
    vertex 16.999999999999996 3.499999999999999 1.9999999999999998
    vertex 16.999999999999996 3.499999999999999 3.5
  endloop
endfacet
facet normal 0.0 1.0 0.0
  outer loop
    vertex 13.499999999999998 3.499999999999999 3.5
    vertex 16.999999999999996 3.499999999999999 1.9999999999999998
    vertex 13.499999999999998 3.499999999999999 1.9999999999999998
  endloop
endfacet
facet normal 0.0 1.0 0.0
  outer loop
    vertex 16.999999999999996 3.499999999999999 1.9999999999999998
    vertex 13.499999999999998 3.499999999999999 3.5
    vertex 16.999999999999996 3.499999999999999 3.5
  endloop
endfacet
facet normal 1.0 0.0 0.0
  outer loop
    vertex 25.999999999999996 -11.0 0.0
    vertex 25.999999999999996 -6.0 3.5
    vertex 25.999999999999996 -11.0 14.0
  endloop
endfacet
facet normal 1.0 0.0 0.0
  outer loop
    vertex 25.999999999999996 -6.0 3.5
    vertex 25.999999999999996 -11.0 0.0
    vertex 25.999999999999996 9.999999999999998 0.0
  endloop
endfacet
facet normal 1.0 0.0 0.0
  outer loop
    vertex 25.999999999999996 -6.0 3.5
    vertex 25.999999999999996 9.999999999999998 0.0
    vertex 25.999999999999996 4.999999999999999 3.5
  endloop
endfacet
facet normal 1.0 0.0 0.0
  outer loop
    vertex 25.999999999999996 4.999999999999999 3.5
    vertex 25.999999999999996 9.999999999999998 0.0
    vertex 25.999999999999996 4.999999999999999 7.999999999999999
  endloop
endfacet
facet normal 1.0 0.0 0.0
  outer loop
    vertex 25.999999999999996 -11.0 14.0
    vertex 25.999999999999996 -6.0 7.999999999999999
    vertex 25.999999999999996 9.999999999999998 14.0
  endloop
endfacet
facet normal 1.0 0.0 0.0
  outer loop
    vertex 25.999999999999996 -6.0 7.999999999999999
    vertex 25.999999999999996 -11.0 14.0
    vertex 25.999999999999996 -6.0 3.5
  endloop
endfacet
facet normal 1.0 0.0 0.0
  outer loop
    vertex 25.999999999999996 9.999999999999998 14.0
    vertex 25.999999999999996 -6.0 7.999999999999999
    vertex 25.999999999999996 4.999999999999999 7.999999999999999
  endloop
endfacet
facet normal 1.0 0.0 0.0
  outer loop
    vertex 25.999999999999996 9.999999999999998 14.0
    vertex 25.999999999999996 4.999999999999999 7.999999999999999
    vertex 25.999999999999996 9.999999999999998 0.0
  endloop
endfacet
facet normal -1.0 0.0 0.0
  outer loop
    vertex -1.9999999999999991 3.499999999999999 3.5
    vertex -1.9999999999999991 -4.5 1.9999999999999998
    vertex -1.9999999999999991 -4.5 3.5
  endloop
endfacet
facet normal -1.0 0.0 0.0
  outer loop
    vertex -1.9999999999999991 -4.5 1.9999999999999998
    vertex -1.9999999999999991 3.499999999999999 3.5
    vertex -1.9999999999999991 3.499999999999999 1.9999999999999998
  endloop
endfacet
facet normal 0.0 1.0 0.0
  outer loop
    vertex -1.9999999999999991 3.499999999999999 3.5
    vertex 2.4999999999999996 3.499999999999999 1.9999999999999998
    vertex -1.9999999999999991 3.499999999999999 1.9999999999999998
  endloop
endfacet
facet normal 0.0 1.0 0.0
  outer loop
    vertex 2.4999999999999996 3.499999999999999 1.9999999999999998
    vertex -1.9999999999999991 3.499999999999999 3.5
    vertex 2.4999999999999996 3.499999999999999 3.5
  endloop
endfacet
facet normal -1.0 0.0 0.0
  outer loop
    vertex 13.499999999999998 3.499999999999999 3.5
    vertex 13.499999999999998 -4.5 1.9999999999999998
    vertex 13.499999999999998 -4.5 3.5
  endloop
endfacet
facet normal -1.0 0.0 0.0
  outer loop
    vertex 13.499999999999998 -4.5 1.9999999999999998
    vertex 13.499999999999998 3.499999999999999 3.5
    vertex 13.499999999999998 3.499999999999999 1.9999999999999998
  endloop
endfacet
facet normal 0.0 -1.0 0.0
  outer loop
    vertex 2.4999999999999996 -4.5 3.5
    vertex -1.9999999999999991 -4.5 1.9999999999999998
    vertex 2.4999999999999996 -4.5 1.9999999999999998
  endloop
endfacet
facet normal 0.0 -1.0 0.0
  outer loop
    vertex -1.9999999999999991 -4.5 1.9999999999999998
    vertex 2.4999999999999996 -4.5 3.5
    vertex -1.9999999999999991 -4.5 3.5
  endloop
endfacet
facet normal 0.0 -1.0 0.0
  outer loop
    vertex 16.999999999999996 -4.5 3.5
    vertex 13.499999999999998 -4.5 1.9999999999999998
    vertex 16.999999999999996 -4.5 1.9999999999999998
  endloop
endfacet
facet normal 0.0 -1.0 0.0
  outer loop
    vertex 13.499999999999998 -4.5 1.9999999999999998
    vertex 16.999999999999996 -4.5 3.5
    vertex 13.499999999999998 -4.5 3.5
  endloop
endfacet
facet normal 0.0 0.0 1.0
  outer loop
    vertex -9.999999999999998 -11.0 14.0
    vertex -8.999999999999998 -9.999999999999998 14.0
    vertex -9.999999999999998 9.999999999999998 14.0
  endloop
endfacet
facet normal 0.0 0.0 1.0
  outer loop
    vertex -8.999999999999998 -9.999999999999998 14.0
    vertex -9.999999999999998 -11.0 14.0
    vertex 25.999999999999996 -11.0 14.0
  endloop
endfacet
facet normal 0.0 0.0 1.0
  outer loop
    vertex -8.999999999999998 -9.999999999999998 14.0
    vertex 25.999999999999996 -11.0 14.0
    vertex 25.0 -9.999999999999998 14.0
  endloop
endfacet
facet normal 0.0 0.0 1.0
  outer loop
    vertex 25.0 -9.999999999999998 14.0
    vertex 25.999999999999996 -11.0 14.0
    vertex 25.0 8.999999999999998 14.0
  endloop
endfacet
facet normal 0.0 0.0 1.0
  outer loop
    vertex -9.999999999999998 9.999999999999998 14.0
    vertex -8.999999999999998 8.999999999999998 14.0
    vertex 25.999999999999996 9.999999999999998 14.0
  endloop
endfacet
facet normal 0.0 0.0 1.0
  outer loop
    vertex -8.999999999999998 8.999999999999998 14.0
    vertex -9.999999999999998 9.999999999999998 14.0
    vertex -8.999999999999998 -9.999999999999998 14.0
  endloop
endfacet
facet normal 0.0 0.0 1.0
  outer loop
    vertex 25.999999999999996 9.999999999999998 14.0
    vertex -8.999999999999998 8.999999999999998 14.0
    vertex 25.0 8.999999999999998 14.0
  endloop
endfacet
facet normal 0.0 0.0 1.0
  outer loop
    vertex 25.999999999999996 9.999999999999998 14.0
    vertex 25.0 8.999999999999998 14.0
    vertex 25.999999999999996 -11.0 14.0
  endloop
endfacet
facet normal 0.0 -1.0 0.0
  outer loop
    vertex 25.0 8.999999999999998 14.0
    vertex -8.999999999999998 8.999999999999998 1.9999999999999998
    vertex 25.0 8.999999999999998 1.9999999999999998
  endloop
endfacet
facet normal 0.0 -1.0 0.0
  outer loop
    vertex -8.999999999999998 8.999999999999998 1.9999999999999998
    vertex 25.0 8.999999999999998 14.0
    vertex -8.999999999999998 8.999999999999998 14.0
  endloop
endfacet
facet normal -1.0 0.0 0.0
  outer loop
    vertex 25.0 -9.999999999999998 14.0
    vertex 25.0 -6.0 7.999999999999999
    vertex 25.0 -9.999999999999998 1.9999999999999998
  endloop
endfacet
facet normal -1.0 0.0 0.0
  outer loop
    vertex 25.0 -6.0 7.999999999999999
    vertex 25.0 -9.999999999999998 14.0
    vertex 25.0 8.999999999999998 14.0
  endloop
endfacet
facet normal -1.0 0.0 0.0
  outer loop
    vertex 25.0 -6.0 7.999999999999999
    vertex 25.0 8.999999999999998 14.0
    vertex 25.0 4.999999999999999 7.999999999999999
  endloop
endfacet
facet normal -1.0 0.0 0.0
  outer loop
    vertex 25.0 4.999999999999999 7.999999999999999
    vertex 25.0 8.999999999999998 14.0
    vertex 25.0 4.999999999999999 3.5
  endloop
endfacet
facet normal -1.0 0.0 0.0
  outer loop
    vertex 25.0 -9.999999999999998 1.9999999999999998
    vertex 25.0 -6.0 3.5
    vertex 25.0 8.999999999999998 1.9999999999999998
  endloop
endfacet
facet normal -1.0 0.0 0.0
  outer loop
    vertex 25.0 -6.0 3.5
    vertex 25.0 -9.999999999999998 1.9999999999999998
    vertex 25.0 -6.0 7.999999999999999
  endloop
endfacet
facet normal -1.0 0.0 0.0
  outer loop
    vertex 25.0 8.999999999999998 1.9999999999999998
    vertex 25.0 -6.0 3.5
    vertex 25.0 4.999999999999999 3.5
  endloop
endfacet
facet normal -1.0 0.0 0.0
  outer loop
    vertex 25.0 8.999999999999998 1.9999999999999998
    vertex 25.0 4.999999999999999 3.5
    vertex 25.0 8.999999999999998 14.0
  endloop
endfacet
facet normal 0.0 1.0 0.0
  outer loop
    vertex -8.999999999999998 -9.999999999999998 14.0
    vertex 25.0 -9.999999999999998 1.9999999999999998
    vertex -8.999999999999998 -9.999999999999998 1.9999999999999998
  endloop
endfacet
facet normal 0.0 1.0 0.0
  outer loop
    vertex 25.0 -9.999999999999998 1.9999999999999998
    vertex -8.999999999999998 -9.999999999999998 14.0
    vertex 25.0 -9.999999999999998 14.0
  endloop
endfacet
facet normal 0.9961948061508774 0.0 0.08715450761731153
  outer loop
    vertex -7.800000190734862 2.4999999999999982 5.749999999999999
    vertex -7.8068366050720215 -3.499999999999999 5.828141689300537
    vertex -7.800000190734862 -3.499999999999999 5.749999999999999
  endloop
endfacet
facet normal 0.9961948061508774 0.0 0.08715450761731153
  outer loop
    vertex -7.8068366050720215 -3.499999999999999 5.828141689300537
    vertex -7.800000190734862 2.4999999999999982 5.749999999999999
    vertex -7.8068366050720215 2.4999999999999982 5.828141689300537
  endloop
endfacet
facet normal 0.9659259096934644 0.0 0.25881873383287646
  outer loop
    vertex -7.8068366050720215 2.4999999999999982 5.828141689300537
    vertex -7.827138423919678 -3.499999999999999 5.903909206390381
    vertex -7.8068366050720215 -3.499999999999999 5.828141689300537
  endloop
endfacet
facet normal 0.9659259096934644 0.0 0.25881873383287646
  outer loop
    vertex -7.827138423919678 -3.499999999999999 5.903909206390381
    vertex -7.8068366050720215 2.4999999999999982 5.828141689300537
    vertex -7.827138423919678 2.4999999999999982 5.903909206390381
  endloop
endfacet
facet normal 0.906307498639006 0.0 0.422618880210892
  outer loop
    vertex -7.827138423919678 2.4999999999999982 5.903909206390381
    vertex -7.860288619995116 -3.499999999999999 5.9749999046325675
    vertex -7.827138423919678 -3.499999999999999 5.903909206390381
  endloop
endfacet
facet normal 0.906307498639006 0.0 0.422618880210892
  outer loop
    vertex -7.860288619995116 -3.499999999999999 5.9749999046325675
    vertex -7.827138423919678 2.4999999999999982 5.903909206390381
    vertex -7.860288619995116 2.4999999999999982 5.9749999046325675
  endloop
endfacet
facet normal 0.0 -1.0 0.0
  outer loop
    vertex -7.800000190734862 -3.499999999999999 5.749999999999999
    vertex -8.999999999999998 -3.499999999999999 5.199999809265137
    vertex -7.800000190734862 -3.499999999999999 5.199999809265137
  endloop
endfacet
facet normal 0.0 -1.0 0.0
  outer loop
    vertex -8.999999999999998 -3.499999999999999 5.199999809265137
    vertex -7.800000190734862 -3.499999999999999 5.749999999999999
    vertex -8.999999999999998 -3.499999999999999 6.199999809265136
  endloop
endfacet
facet normal 0.0 -1.0 0.0
  outer loop
    vertex -8.999999999999998 -3.499999999999999 6.199999809265136
    vertex -7.800000190734862 -3.499999999999999 5.749999999999999
    vertex -7.8068366050720215 -3.499999999999999 5.828141689300537
  endloop
endfacet
facet normal 0.0 -1.0 0.0
  outer loop
    vertex -8.999999999999998 -3.499999999999999 6.199999809265136
    vertex -7.8068366050720215 -3.499999999999999 5.828141689300537
    vertex -7.827138423919678 -3.499999999999999 5.903909206390381
  endloop
endfacet
facet normal 0.0 -1.0 0.0
  outer loop
    vertex -8.999999999999998 -3.499999999999999 6.199999809265136
    vertex -7.827138423919678 -3.499999999999999 5.903909206390381
    vertex -7.860288619995116 -3.499999999999999 5.9749999046325675
  endloop
endfacet
facet normal 0.0 -1.0 0.0
  outer loop
    vertex -8.999999999999998 -3.499999999999999 6.199999809265136
    vertex -7.860288619995116 -3.499999999999999 5.9749999046325675
    vertex -7.905280113220214 -3.499999999999999 6.039254188537598
  endloop
endfacet
facet normal 0.0 -1.0 0.0
  outer loop
    vertex -8.999999999999998 -3.499999999999999 6.199999809265136
    vertex -7.905280113220214 -3.499999999999999 6.039254188537598
    vertex -8.249999999999998 -3.499999999999999 6.199999809265136
  endloop
endfacet
facet normal 0.0 0.0 -1.0
  outer loop
    vertex -7.800000190734862 2.4999999999999982 5.199999809265137
    vertex -8.999999999999998 -3.499999999999999 5.199999809265137
    vertex -8.999999999999998 2.4999999999999982 5.199999809265137
  endloop
endfacet
facet normal 0.0 0.0 -1.0
  outer loop
    vertex -8.999999999999998 -3.499999999999999 5.199999809265137
    vertex -7.800000190734862 2.4999999999999982 5.199999809265137
    vertex -7.800000190734862 -3.499999999999999 5.199999809265137
  endloop
endfacet
facet normal 1.0 0.0 0.0
  outer loop
    vertex -7.800000190734862 2.4999999999999982 5.199999809265137
    vertex -7.800000190734862 -3.499999999999999 5.749999999999999
    vertex -7.800000190734862 -3.499999999999999 5.199999809265137
  endloop
endfacet
facet normal 1.0 0.0 0.0
  outer loop
    vertex -7.800000190734862 -3.499999999999999 5.749999999999999
    vertex -7.800000190734862 2.4999999999999982 5.199999809265137
    vertex -7.800000190734862 2.4999999999999982 5.749999999999999
  endloop
endfacet
facet normal 0.0 0.0 1.0
  outer loop
    vertex -8.249999999999998 -3.499999999999999 6.199999809265136
    vertex -8.999999999999998 2.4999999999999982 6.199999809265136
    vertex -8.999999999999998 -3.499999999999999 6.199999809265136
  endloop
endfacet
facet normal 0.0 0.0 1.0
  outer loop
    vertex -8.999999999999998 2.4999999999999982 6.199999809265136
    vertex -8.249999999999998 -3.499999999999999 6.199999809265136
    vertex -8.249999999999998 2.4999999999999982 6.199999809265136
  endloop
endfacet
facet normal 0.0 -1.0 0.0
  outer loop
    vertex -8.999999999999998 4.199999809265135 2.700000047683716
    vertex -9.999999999999998 4.199999809265135 1.9999999999999998
    vertex -8.999999999999998 4.199999809265135 1.9999999999999998
  endloop
endfacet
facet normal 0.0 -1.0 0.0
  outer loop
    vertex -9.999999999999998 4.199999809265135 1.9999999999999998
    vertex -8.999999999999998 4.199999809265135 2.700000047683716
    vertex -9.999999999999998 4.199999809265135 2.700000047683716
  endloop
endfacet
facet normal 0.0 1.0 0.0
  outer loop
    vertex -9.999999999999998 -5.199999809265137 2.700000047683716
    vertex -8.999999999999998 -5.199999809265137 1.9999999999999998
    vertex -9.999999999999998 -5.199999809265137 1.9999999999999998
  endloop
endfacet
facet normal 0.0 1.0 0.0
  outer loop
    vertex -8.999999999999998 -5.199999809265137 1.9999999999999998
    vertex -9.999999999999998 -5.199999809265137 2.700000047683716
    vertex -8.999999999999998 -5.199999809265137 2.700000047683716
  endloop
endfacet
facet normal 0.0 0.0 1.0
  outer loop
    vertex 25.0 -9.999999999999998 1.9999999999999998
    vertex -8.999999999999998 -5.199999809265137 1.9999999999999998
    vertex -8.999999999999998 -9.999999999999998 1.9999999999999998
  endloop
endfacet
facet normal 0.0 0.0 1.0
  outer loop
    vertex -8.999999999999998 -5.199999809265137 1.9999999999999998
    vertex 25.0 -9.999999999999998 1.9999999999999998
    vertex -1.9999999999999991 -4.5 1.9999999999999998
  endloop
endfacet
facet normal 0.0 0.0 1.0
  outer loop
    vertex -8.999999999999998 -5.199999809265137 1.9999999999999998
    vertex -1.9999999999999991 -4.5 1.9999999999999998
    vertex -8.999999999999998 4.199999809265135 1.9999999999999998
  endloop
endfacet
facet normal 0.0 0.0 1.0
  outer loop
    vertex -8.999999999999998 4.199999809265135 1.9999999999999998
    vertex -1.9999999999999991 -4.5 1.9999999999999998
    vertex -8.999999999999998 8.999999999999998 1.9999999999999998
  endloop
endfacet
facet normal 0.0 0.0 1.0
  outer loop
    vertex -1.9999999999999991 -4.5 1.9999999999999998
    vertex 25.0 -9.999999999999998 1.9999999999999998
    vertex 2.4999999999999996 -4.5 1.9999999999999998
  endloop
endfacet
facet normal 0.0 0.0 1.0
  outer loop
    vertex 2.4999999999999996 -4.5 1.9999999999999998
    vertex 25.0 -9.999999999999998 1.9999999999999998
    vertex 13.499999999999998 -4.5 1.9999999999999998
  endloop
endfacet
facet normal 0.0 0.0 1.0
  outer loop
    vertex 2.4999999999999996 -4.5 1.9999999999999998
    vertex 13.499999999999998 -4.5 1.9999999999999998
    vertex 2.4999999999999996 3.499999999999999 1.9999999999999998
  endloop
endfacet
facet normal 0.0 0.0 1.0
  outer loop
    vertex 13.499999999999998 -4.5 1.9999999999999998
    vertex 25.0 -9.999999999999998 1.9999999999999998
    vertex 16.999999999999996 -4.5 1.9999999999999998
  endloop
endfacet
facet normal 0.0 0.0 1.0
  outer loop
    vertex 16.999999999999996 -4.5 1.9999999999999998
    vertex 25.0 -9.999999999999998 1.9999999999999998
    vertex 16.999999999999996 3.499999999999999 1.9999999999999998
  endloop
endfacet
facet normal 0.0 0.0 1.0
  outer loop
    vertex -8.999999999999998 8.999999999999998 1.9999999999999998
    vertex -1.9999999999999991 3.499999999999999 1.9999999999999998
    vertex 25.0 8.999999999999998 1.9999999999999998
  endloop
endfacet
facet normal 0.0 0.0 1.0
  outer loop
    vertex -1.9999999999999991 3.499999999999999 1.9999999999999998
    vertex -8.999999999999998 8.999999999999998 1.9999999999999998
    vertex -1.9999999999999991 -4.5 1.9999999999999998
  endloop
endfacet
facet normal 0.0 0.0 1.0
  outer loop
    vertex 25.0 8.999999999999998 1.9999999999999998
    vertex -1.9999999999999991 3.499999999999999 1.9999999999999998
    vertex 2.4999999999999996 3.499999999999999 1.9999999999999998
  endloop
endfacet
facet normal 0.0 0.0 1.0
  outer loop
    vertex 25.0 8.999999999999998 1.9999999999999998
    vertex 2.4999999999999996 3.499999999999999 1.9999999999999998
    vertex 13.499999999999998 3.499999999999999 1.9999999999999998
  endloop
endfacet
facet normal 0.0 0.0 1.0
  outer loop
    vertex 13.499999999999998 3.499999999999999 1.9999999999999998
    vertex 2.4999999999999996 3.499999999999999 1.9999999999999998
    vertex 13.499999999999998 -4.5 1.9999999999999998
  endloop
endfacet
facet normal 0.0 0.0 1.0
  outer loop
    vertex 25.0 8.999999999999998 1.9999999999999998
    vertex 13.499999999999998 3.499999999999999 1.9999999999999998
    vertex 16.999999999999996 3.499999999999999 1.9999999999999998
  endloop
endfacet
facet normal 0.0 0.0 1.0
  outer loop
    vertex 25.0 8.999999999999998 1.9999999999999998
    vertex 16.999999999999996 3.499999999999999 1.9999999999999998
    vertex 25.0 -9.999999999999998 1.9999999999999998
  endloop
endfacet
facet normal 0.0 0.0 1.0
  outer loop
    vertex -8.999999999999998 -5.199999809265137 1.9999999999999998
    vertex -9.999999999999998 4.199999809265135 1.9999999999999998
    vertex -9.999999999999998 -5.199999809265137 1.9999999999999998
  endloop
endfacet
facet normal 0.0 0.0 1.0
  outer loop
    vertex -9.999999999999998 4.199999809265135 1.9999999999999998
    vertex -8.999999999999998 -5.199999809265137 1.9999999999999998
    vertex -8.999999999999998 4.199999809265135 1.9999999999999998
  endloop
endfacet
facet normal 0.0 0.0 -1.0
  outer loop
    vertex 25.999999999999996 9.999999999999998 0.0
    vertex -9.999999999999998 -11.0 0.0
    vertex -9.999999999999998 9.999999999999998 0.0
  endloop
endfacet
facet normal 0.0 0.0 -1.0
  outer loop
    vertex -9.999999999999998 -11.0 0.0
    vertex 25.999999999999996 9.999999999999998 0.0
    vertex 25.999999999999996 -11.0 0.0
  endloop
endfacet
facet normal 0.0 0.0 -1.0
  outer loop
    vertex -8.999999999999998 4.199999809265135 11.0
    vertex -9.999999999999998 3.499999999999999 11.0
    vertex -9.999999999999998 4.199999809265135 11.0
  endloop
endfacet
facet normal 0.0 0.0 -1.0
  outer loop
    vertex -9.999999999999998 3.499999999999999 11.0
    vertex -8.999999999999998 4.199999809265135 11.0
    vertex -8.999999999999998 3.499999999999999 11.0
  endloop
endfacet
facet normal 0.0 0.0 1.0
  outer loop
    vertex -8.999999999999998 3.499999999999999 3.400000095367431
    vertex -9.999999999999998 4.199999809265135 3.400000095367431
    vertex -9.999999999999998 3.499999999999999 3.400000095367431
  endloop
endfacet
facet normal 0.0 0.0 1.0
  outer loop
    vertex -9.999999999999998 4.199999809265135 3.400000095367431
    vertex -8.999999999999998 3.499999999999999 3.400000095367431
    vertex -8.999999999999998 4.199999809265135 3.400000095367431
  endloop
endfacet
facet normal 0.0 -1.0 0.0
  outer loop
    vertex -8.999999999999998 4.199999809265135 11.0
    vertex -9.999999999999998 4.199999809265135 3.400000095367431
    vertex -8.999999999999998 4.199999809265135 3.400000095367431
  endloop
endfacet
facet normal 0.0 -1.0 0.0
  outer loop
    vertex -9.999999999999998 4.199999809265135 3.400000095367431
    vertex -8.999999999999998 4.199999809265135 11.0
    vertex -9.999999999999998 4.199999809265135 11.0
  endloop
endfacet
facet normal 0.0 1.0 0.0
  outer loop
    vertex -9.999999999999998 3.499999999999999 11.0
    vertex -8.999999999999998 3.499999999999999 3.400000095367431
    vertex -9.999999999999998 3.499999999999999 3.400000095367431
  endloop
endfacet
facet normal 0.0 1.0 0.0
  outer loop
    vertex -8.999999999999998 3.499999999999999 3.400000095367431
    vertex -9.999999999999998 3.499999999999999 11.0
    vertex -8.999999999999998 3.499999999999999 11.0
  endloop
endfacet
facet normal 0.0 0.0 -1.0
  outer loop
    vertex -8.999999999999998 -4.5 11.0
    vertex -9.999999999999998 -5.199999809265137 11.0
    vertex -9.999999999999998 -4.5 11.0
  endloop
endfacet
facet normal 0.0 0.0 -1.0
  outer loop
    vertex -9.999999999999998 -5.199999809265137 11.0
    vertex -8.999999999999998 -4.5 11.0
    vertex -8.999999999999998 -5.199999809265137 11.0
  endloop
endfacet
facet normal 0.0 0.0 1.0
  outer loop
    vertex -8.999999999999998 -5.199999809265137 3.400000095367431
    vertex -9.999999999999998 -4.5 3.400000095367431
    vertex -9.999999999999998 -5.199999809265137 3.400000095367431
  endloop
endfacet
facet normal 0.0 0.0 1.0
  outer loop
    vertex -9.999999999999998 -4.5 3.400000095367431
    vertex -8.999999999999998 -5.199999809265137 3.400000095367431
    vertex -8.999999999999998 -4.5 3.400000095367431
  endloop
endfacet
facet normal 0.0 -1.0 0.0
  outer loop
    vertex -8.999999999999998 -4.5 11.0
    vertex -9.999999999999998 -4.5 3.400000095367431
    vertex -8.999999999999998 -4.5 3.400000095367431
  endloop
endfacet
facet normal 0.0 -1.0 0.0
  outer loop
    vertex -9.999999999999998 -4.5 3.400000095367431
    vertex -8.999999999999998 -4.5 11.0
    vertex -9.999999999999998 -4.5 11.0
  endloop
endfacet
facet normal 0.0 1.0 0.0
  outer loop
    vertex -9.999999999999998 -5.199999809265137 11.0
    vertex -8.999999999999998 -5.199999809265137 3.400000095367431
    vertex -9.999999999999998 -5.199999809265137 3.400000095367431
  endloop
endfacet
facet normal 0.0 1.0 0.0
  outer loop
    vertex -8.999999999999998 -5.199999809265137 3.400000095367431
    vertex -9.999999999999998 -5.199999809265137 11.0
    vertex -8.999999999999998 -5.199999809265137 11.0
  endloop
endfacet
facet normal 0.0 0.9914448613738105 0.13052619222005196
  outer loop
    vertex -9.999999999999998 -2.279898683494546 8.502440992912735
    vertex -8.999999999999996 -2.2202688795004155 8.049507663983325
    vertex -9.999999999999998 -2.2202688795004155 8.049507663983325
  endloop
endfacet
facet normal 0.0 0.9914448613738105 0.13052619222005196
  outer loop
    vertex -8.999999999999996 -2.2202688795004155 8.049507663983325
    vertex -9.999999999999998 -2.279898683494546 8.502440992912735
    vertex -8.999999999999996 -2.279898683494546 8.502440992912735
  endloop
endfacet
facet normal 0.0 0.9914448613738105 -0.13052619222005193
  outer loop
    vertex -9.999999999999998 -2.2202688795004155 8.955374321842148
    vertex -8.999999999999996 -2.279898683494546 8.502440992912735
    vertex -9.999999999999998 -2.279898683494546 8.502440992912735
  endloop
endfacet
facet normal 0.0 0.9914448613738105 -0.13052619222005193
  outer loop
    vertex -8.999999999999996 -2.279898683494546 8.502440992912735
    vertex -9.999999999999998 -2.2202688795004155 8.955374321842148
    vertex -8.999999999999996 -2.2202688795004155 8.955374321842148
  endloop
endfacet
facet normal 0.0 0.9238795325112865 -0.38268343236509056
  outer loop
    vertex -9.999999999999998 -2.045443140117314 9.377440992912737
    vertex -8.999999999999996 -2.2202688795004155 8.955374321842148
    vertex -9.999999999999998 -2.2202688795004155 8.955374321842148
  endloop
endfacet
facet normal 0.0 0.9238795325112865 -0.38268343236509056
  outer loop
    vertex -8.999999999999996 -2.2202688795004155 8.955374321842148
    vertex -9.999999999999998 -2.045443140117314 9.377440992912737
    vertex -8.999999999999996 -2.045443140117314 9.377440992912737
  endloop
endfacet
facet normal 0.0 0.7933533402912344 -0.6087614290087215
  outer loop
    vertex -9.999999999999998 -1.7673355505710036 9.739877859989194
    vertex -8.999999999999996 -2.045443140117314 9.377440992912737
    vertex -9.999999999999998 -2.045443140117314 9.377440992912737
  endloop
endfacet
facet normal 0.0 0.7933533402912344 -0.6087614290087215
  outer loop
    vertex -8.999999999999996 -2.045443140117314 9.377440992912737
    vertex -9.999999999999998 -1.7673355505710036 9.739877859989194
    vertex -8.999999999999996 -1.7673355505710036 9.739877859989194
  endloop
endfacet
facet normal 0.0 0.6087614290087208 -0.7933533402912352
  outer loop
    vertex -8.999999999999996 -1.404898683494545 10.017985449535503
    vertex -9.999999999999998 -1.7673355505710036 9.739877859989194
    vertex -9.999999999999998 -1.404898683494545 10.017985449535503
  endloop
endfacet
facet normal 0.0 0.6087614290087208 -0.7933533402912352
  outer loop
    vertex -9.999999999999998 -1.7673355505710036 9.739877859989194
    vertex -8.999999999999996 -1.404898683494545 10.017985449535503
    vertex -8.999999999999996 -1.7673355505710036 9.739877859989194
  endloop
endfacet
facet normal 0.0 0.3826834323650876 -0.9238795325112876
  outer loop
    vertex -8.999999999999996 -0.9828320124239571 10.192811188918604
    vertex -9.999999999999998 -1.404898683494545 10.017985449535503
    vertex -9.999999999999998 -0.9828320124239571 10.192811188918604
  endloop
endfacet
facet normal 0.0 0.3826834323650876 -0.9238795325112876
  outer loop
    vertex -9.999999999999998 -1.404898683494545 10.017985449535503
    vertex -8.999999999999996 -0.9828320124239571 10.192811188918604
    vertex -8.999999999999996 -1.404898683494545 10.017985449535503
  endloop
endfacet
facet normal 0.0 0.13052619222005185 -0.9914448613738105
  outer loop
    vertex -8.999999999999996 -0.5298986834945465 10.252440992912735
    vertex -9.999999999999998 -0.9828320124239571 10.192811188918604
    vertex -9.999999999999998 -0.5298986834945465 10.252440992912735
  endloop
endfacet
facet normal 0.0 0.13052619222005185 -0.9914448613738105
  outer loop
    vertex -9.999999999999998 -0.9828320124239571 10.192811188918604
    vertex -8.999999999999996 -0.5298986834945465 10.252440992912735
    vertex -8.999999999999996 -0.9828320124239571 10.192811188918604
  endloop
endfacet
facet normal -0.0 -0.13052619222005146 -0.9914448613738105
  outer loop
    vertex -8.999999999999996 -0.07696535456513452 10.192811188918604
    vertex -9.999999999999998 -0.5298986834945465 10.252440992912735
    vertex -9.999999999999998 -0.07696535456513452 10.192811188918604
  endloop
endfacet
facet normal -0.0 -0.13052619222005146 -0.9914448613738105
  outer loop
    vertex -9.999999999999998 -0.5298986834945465 10.252440992912735
    vertex -8.999999999999996 -0.07696535456513452 10.192811188918604
    vertex -8.999999999999996 -0.5298986834945465 10.252440992912735
  endloop
endfacet
facet normal -0.0 -0.38268343236509034 -0.9238795325112865
  outer loop
    vertex -8.999999999999996 0.34510131650545467 10.017985449535503
    vertex -9.999999999999998 -0.07696535456513452 10.192811188918604
    vertex -9.999999999999998 0.34510131650545467 10.017985449535503
  endloop
endfacet
facet normal -0.0 -0.38268343236509034 -0.9238795325112865
  outer loop
    vertex -9.999999999999998 -0.07696535456513452 10.192811188918604
    vertex -8.999999999999996 0.34510131650545467 10.017985449535503
    vertex -8.999999999999996 -0.07696535456513452 10.192811188918604
  endloop
endfacet
facet normal -0.0 -0.6087614290087217 -0.7933533402912345
  outer loop
    vertex -8.999999999999996 0.7075381835819119 9.739877859989193
    vertex -9.999999999999998 0.34510131650545467 10.017985449535503
    vertex -9.999999999999998 0.7075381835819119 9.739877859989193
  endloop
endfacet
facet normal -0.0 -0.6087614290087217 -0.7933533402912345
  outer loop
    vertex -9.999999999999998 0.34510131650545467 10.017985449535503
    vertex -8.999999999999996 0.7075381835819119 9.739877859989193
    vertex -8.999999999999996 0.34510131650545467 10.017985449535503
  endloop
endfacet
facet normal -0.0 -0.7933533402912348 -0.6087614290087211
  outer loop
    vertex -8.999999999999996 0.7075381835819119 9.739877859989193
    vertex -9.999999999999998 0.985645773128222 9.377440992912735
    vertex -8.999999999999996 0.985645773128222 9.377440992912735
  endloop
endfacet
facet normal -0.0 -0.7933533402912348 -0.6087614290087211
  outer loop
    vertex -9.999999999999998 0.985645773128222 9.377440992912735
    vertex -8.999999999999996 0.7075381835819119 9.739877859989193
    vertex -9.999999999999998 0.7075381835819119 9.739877859989193
  endloop
endfacet
facet normal -0.0 -0.923879532511287 -0.38268343236508945
  outer loop
    vertex -8.999999999999996 0.985645773128222 9.377440992912735
    vertex -9.999999999999998 1.1604715125113225 8.955374321842147
    vertex -8.999999999999996 1.1604715125113225 8.955374321842147
  endloop
endfacet
facet normal -0.0 -0.923879532511287 -0.38268343236508945
  outer loop
    vertex -9.999999999999998 1.1604715125113225 8.955374321842147
    vertex -8.999999999999996 0.985645773128222 9.377440992912735
    vertex -9.999999999999998 0.985645773128222 9.377440992912735
  endloop
endfacet
facet normal -0.0 -0.9914448613738105 -0.13052619222005118
  outer loop
    vertex -8.999999999999996 1.1604715125113225 8.955374321842147
    vertex -9.999999999999998 1.220101316505453 8.502440992912735
    vertex -8.999999999999996 1.220101316505453 8.502440992912735
  endloop
endfacet
facet normal -0.0 -0.9914448613738105 -0.13052619222005118
  outer loop
    vertex -9.999999999999998 1.220101316505453 8.502440992912735
    vertex -8.999999999999996 1.1604715125113225 8.955374321842147
    vertex -9.999999999999998 1.1604715125113225 8.955374321842147
  endloop
endfacet
facet normal 0.0 -0.9914448613738105 0.13052619222005155
  outer loop
    vertex -8.999999999999996 1.220101316505453 8.502440992912735
    vertex -9.999999999999998 1.1604715125113225 8.049507663983324
    vertex -8.999999999999996 1.1604715125113225 8.049507663983324
  endloop
endfacet
facet normal 0.0 -0.9914448613738105 0.13052619222005155
  outer loop
    vertex -9.999999999999998 1.1604715125113225 8.049507663983324
    vertex -8.999999999999996 1.220101316505453 8.502440992912735
    vertex -9.999999999999998 1.220101316505453 8.502440992912735
  endloop
endfacet
facet normal 0.0 -0.9238795325112863 0.3826834323650909
  outer loop
    vertex -8.999999999999996 1.1604715125113225 8.049507663983324
    vertex -9.999999999999998 0.9856457731282205 7.627440992912736
    vertex -8.999999999999996 0.9856457731282205 7.627440992912736
  endloop
endfacet
facet normal 0.0 -0.9238795325112863 0.3826834323650909
  outer loop
    vertex -9.999999999999998 0.9856457731282205 7.627440992912736
    vertex -8.999999999999996 1.1604715125113225 8.049507663983324
    vertex -9.999999999999998 1.1604715125113225 8.049507663983324
  endloop
endfacet
facet normal 0.0 -0.7933533402912359 0.6087614290087199
  outer loop
    vertex -8.999999999999996 0.9856457731282205 7.627440992912736
    vertex -9.999999999999998 0.7075381835819119 7.265004125836277
    vertex -8.999999999999996 0.7075381835819119 7.265004125836277
  endloop
endfacet
facet normal 0.0 -0.7933533402912359 0.6087614290087199
  outer loop
    vertex -9.999999999999998 0.7075381835819119 7.265004125836277
    vertex -8.999999999999996 0.9856457731282205 7.627440992912736
    vertex -9.999999999999998 0.9856457731282205 7.627440992912736
  endloop
endfacet
facet normal 0.0 -0.6087614290087193 0.7933533402912362
  outer loop
    vertex -8.999999999999996 0.3451013165054533 6.986896536289969
    vertex -9.999999999999998 0.7075381835819119 7.265004125836277
    vertex -9.999999999999998 0.3451013165054533 6.986896536289969
  endloop
endfacet
facet normal 0.0 -0.6087614290087193 0.7933533402912362
  outer loop
    vertex -9.999999999999998 0.7075381835819119 7.265004125836277
    vertex -8.999999999999996 0.3451013165054533 6.986896536289969
    vertex -8.999999999999996 0.7075381835819119 7.265004125836277
  endloop
endfacet
facet normal 0.0 -0.3826834323650899 0.9238795325112866
  outer loop
    vertex -8.999999999999996 -0.07696535456513592 6.812070796906866
    vertex -9.999999999999998 0.3451013165054533 6.986896536289969
    vertex -9.999999999999998 -0.07696535456513592 6.812070796906866
  endloop
endfacet
facet normal 0.0 -0.3826834323650899 0.9238795325112866
  outer loop
    vertex -9.999999999999998 0.3451013165054533 6.986896536289969
    vertex -8.999999999999996 -0.07696535456513592 6.812070796906866
    vertex -8.999999999999996 0.3451013165054533 6.986896536289969
  endloop
endfacet
facet normal 0.0 -0.1305261922200518 0.9914448613738105
  outer loop
    vertex -8.999999999999996 -0.5298986834945465 6.752440992912736
    vertex -9.999999999999998 -0.07696535456513592 6.812070796906866
    vertex -9.999999999999998 -0.5298986834945465 6.752440992912736
  endloop
endfacet
facet normal 0.0 -0.1305261922200518 0.9914448613738105
  outer loop
    vertex -9.999999999999998 -0.07696535456513592 6.812070796906866
    vertex -8.999999999999996 -0.5298986834945465 6.752440992912736
    vertex -8.999999999999996 -0.07696535456513592 6.812070796906866
  endloop
endfacet
facet normal 0.0 0.13052619222005168 0.9914448613738104
  outer loop
    vertex -8.999999999999996 -0.9828320124239586 6.812070796906866
    vertex -9.999999999999998 -0.5298986834945465 6.752440992912736
    vertex -9.999999999999998 -0.9828320124239586 6.812070796906866
  endloop
endfacet
facet normal 0.0 0.13052619222005168 0.9914448613738104
  outer loop
    vertex -9.999999999999998 -0.5298986834945465 6.752440992912736
    vertex -8.999999999999996 -0.9828320124239586 6.812070796906866
    vertex -8.999999999999996 -0.5298986834945465 6.752440992912736
  endloop
endfacet
facet normal 0.0 0.38268343236508995 0.9238795325112866
  outer loop
    vertex -8.999999999999996 -1.4048986834945463 6.986896536289969
    vertex -9.999999999999998 -0.9828320124239586 6.812070796906866
    vertex -9.999999999999998 -1.4048986834945463 6.986896536289969
  endloop
endfacet
facet normal 0.0 0.38268343236508995 0.9238795325112866
  outer loop
    vertex -9.999999999999998 -0.9828320124239586 6.812070796906866
    vertex -8.999999999999996 -1.4048986834945463 6.986896536289969
    vertex -8.999999999999996 -0.9828320124239586 6.812070796906866
  endloop
endfacet
facet normal 0.0 0.6087614290087195 0.793353340291236
  outer loop
    vertex -8.999999999999996 -1.7673355505710049 7.265004125836277
    vertex -9.999999999999998 -1.4048986834945463 6.986896536289969
    vertex -9.999999999999998 -1.7673355505710049 7.265004125836277
  endloop
endfacet
facet normal 0.0 0.6087614290087195 0.793353340291236
  outer loop
    vertex -9.999999999999998 -1.4048986834945463 6.986896536289969
    vertex -8.999999999999996 -1.7673355505710049 7.265004125836277
    vertex -8.999999999999996 -1.4048986834945463 6.986896536289969
  endloop
endfacet
facet normal 0.0 0.7933533402912356 0.6087614290087201
  outer loop
    vertex -9.999999999999998 -2.045443140117315 7.627440992912736
    vertex -8.999999999999996 -1.7673355505710049 7.265004125836277
    vertex -9.999999999999998 -1.7673355505710049 7.265004125836277
  endloop
endfacet
facet normal 0.0 0.7933533402912356 0.6087614290087201
  outer loop
    vertex -8.999999999999996 -1.7673355505710049 7.265004125836277
    vertex -9.999999999999998 -2.045443140117315 7.627440992912736
    vertex -8.999999999999996 -2.045443140117315 7.627440992912736
  endloop
endfacet
facet normal 0.0 0.9238795325112873 0.38268343236508884
  outer loop
    vertex -9.999999999999998 -2.2202688795004155 8.049507663983325
    vertex -8.999999999999996 -2.045443140117315 7.627440992912736
    vertex -9.999999999999998 -2.045443140117315 7.627440992912736
  endloop
endfacet
facet normal 0.0 0.9238795325112873 0.38268343236508884
  outer loop
    vertex -8.999999999999996 -2.045443140117315 7.627440992912736
    vertex -9.999999999999998 -2.2202688795004155 8.049507663983325
    vertex -8.999999999999996 -2.2202688795004155 8.049507663983325
  endloop
endfacet
facet normal 1.0 0.0 0.0
  outer loop
    vertex -8.999999999999998 8.999999999999998 1.9999999999999998
    vertex -8.999999999999998 4.199999809265135 2.700000047683716
    vertex -8.999999999999998 4.199999809265135 1.9999999999999998
  endloop
endfacet
facet normal 1.0 0.0 0.0
  outer loop
    vertex -8.999999999999998 4.199999809265135 2.700000047683716
    vertex -8.999999999999998 8.999999999999998 1.9999999999999998
    vertex -8.999999999999998 4.199999809265135 3.400000095367431
  endloop
endfacet
facet normal 1.0 0.0 0.0
  outer loop
    vertex -8.999999999999998 4.199999809265135 3.400000095367431
    vertex -8.999999999999998 8.999999999999998 1.9999999999999998
    vertex -8.999999999999998 4.199999809265135 11.0
  endloop
endfacet
facet normal 1.0 0.0 0.0
  outer loop
    vertex -8.999999999999998 -5.199999809265137 1.9999999999999998
    vertex -8.999999999999998 -9.999999999999998 14.0
    vertex -8.999999999999998 -9.999999999999998 1.9999999999999998
  endloop
endfacet
facet normal 1.0 0.0 0.0
  outer loop
    vertex -8.999999999999998 -9.999999999999998 14.0
    vertex -8.999999999999998 -5.199999809265137 1.9999999999999998
    vertex -8.999999999999998 -5.199999809265137 11.0
  endloop
endfacet
facet normal 1.0 0.0 0.0
  outer loop
    vertex -8.999999999999998 -9.999999999999998 14.0
    vertex -8.999999999999998 -5.199999809265137 11.0
    vertex -8.999999999999998 8.999999999999998 14.0
  endloop
endfacet
facet normal 1.0 0.0 0.0
  outer loop
    vertex -8.999999999999998 -5.199999809265137 11.0
    vertex -8.999999999999998 -5.199999809265137 1.9999999999999998
    vertex -8.999999999999998 -5.199999809265137 2.700000047683716
  endloop
endfacet
facet normal 1.0 0.0 0.0
  outer loop
    vertex -8.999999999999998 -5.199999809265137 11.0
    vertex -8.999999999999998 -5.199999809265137 2.700000047683716
    vertex -8.999999999999998 -5.199999809265137 3.400000095367431
  endloop
endfacet
facet normal 1.0 0.0 0.0
  outer loop
    vertex -8.999999999999998 8.999999999999998 14.0
    vertex -8.999999999999998 -5.199999809265137 11.0
    vertex -8.999999999999998 -4.5 11.0
  endloop
endfacet
facet normal 1.0 0.0 0.0
  outer loop
    vertex -8.999999999999998 8.999999999999998 14.0
    vertex -8.999999999999998 -4.5 11.0
    vertex -8.999999999999996 -0.9828320124239571 10.192811188918604
  endloop
endfacet
facet normal 1.0 0.0 0.0
  outer loop
    vertex -8.999999999999996 -0.9828320124239571 10.192811188918604
    vertex -8.999999999999998 -4.5 11.0
    vertex -8.999999999999996 -1.404898683494545 10.017985449535503
  endloop
endfacet
facet normal 1.0 0.0 0.0
  outer loop
    vertex -8.999999999999996 -1.404898683494545 10.017985449535503
    vertex -8.999999999999998 -4.5 11.0
    vertex -8.999999999999996 -1.7673355505710036 9.739877859989194
  endloop
endfacet
facet normal 1.0 0.0 0.0
  outer loop
    vertex -8.999999999999996 -1.7673355505710036 9.739877859989194
    vertex -8.999999999999998 -4.5 11.0
    vertex -8.999999999999996 -2.045443140117314 9.377440992912737
  endloop
endfacet
facet normal 1.0 0.0 0.0
  outer loop
    vertex -8.999999999999996 -2.045443140117314 9.377440992912737
    vertex -8.999999999999998 -4.5 11.0
    vertex -8.999999999999996 -2.2202688795004155 8.955374321842148
  endloop
endfacet
facet normal 1.0 0.0 0.0
  outer loop
    vertex -8.999999999999996 -2.2202688795004155 8.955374321842148
    vertex -8.999999999999998 -4.5 11.0
    vertex -8.999999999999996 -2.279898683494546 8.502440992912735
  endloop
endfacet
facet normal 1.0 0.0 0.0
  outer loop
    vertex -8.999999999999998 8.999999999999998 14.0
    vertex -8.999999999999996 -0.9828320124239571 10.192811188918604
    vertex -8.999999999999996 -0.5298986834945465 10.252440992912735
  endloop
endfacet
facet normal 1.0 0.0 0.0
  outer loop
    vertex -8.999999999999998 8.999999999999998 14.0
    vertex -8.999999999999996 -0.5298986834945465 10.252440992912735
    vertex -8.999999999999996 -0.07696535456513452 10.192811188918604
  endloop
endfacet
facet normal 1.0 0.0 0.0
  outer loop
    vertex -8.999999999999998 8.999999999999998 14.0
    vertex -8.999999999999996 -0.07696535456513452 10.192811188918604
    vertex -8.999999999999996 0.34510131650545467 10.017985449535503
  endloop
endfacet
facet normal 1.0 0.0 0.0
  outer loop
    vertex -8.999999999999998 8.999999999999998 14.0
    vertex -8.999999999999996 0.34510131650545467 10.017985449535503
    vertex -8.999999999999996 0.7075381835819119 9.739877859989193
  endloop
endfacet
facet normal 1.0 0.0 0.0
  outer loop
    vertex -8.999999999999998 8.999999999999998 14.0
    vertex -8.999999999999996 0.7075381835819119 9.739877859989193
    vertex -8.999999999999998 3.499999999999999 11.0
  endloop
endfacet
facet normal 1.0 0.0 0.0
  outer loop
    vertex -8.999999999999998 3.499999999999999 11.0
    vertex -8.999999999999996 0.7075381835819119 9.739877859989193
    vertex -8.999999999999996 0.985645773128222 9.377440992912735
  endloop
endfacet
facet normal 1.0 0.0 0.0
  outer loop
    vertex -8.999999999999998 3.499999999999999 11.0
    vertex -8.999999999999996 0.985645773128222 9.377440992912735
    vertex -8.999999999999996 1.1604715125113225 8.955374321842147
  endloop
endfacet
facet normal 1.0 0.0 0.0
  outer loop
    vertex -8.999999999999998 3.499999999999999 11.0
    vertex -8.999999999999996 1.1604715125113225 8.955374321842147
    vertex -8.999999999999996 1.220101316505453 8.502440992912735
  endloop
endfacet
facet normal 1.0 0.0 0.0
  outer loop
    vertex -8.999999999999998 3.499999999999999 11.0
    vertex -8.999999999999996 1.220101316505453 8.502440992912735
    vertex -8.999999999999998 3.499999999999999 3.400000095367431
  endloop
endfacet
facet normal 1.0 0.0 0.0
  outer loop
    vertex -8.999999999999998 8.999999999999998 14.0
    vertex -8.999999999999998 3.499999999999999 11.0
    vertex -8.999999999999998 4.199999809265135 11.0
  endloop
endfacet
facet normal 1.0 0.0 0.0
  outer loop
    vertex -8.999999999999998 8.999999999999998 14.0
    vertex -8.999999999999998 4.199999809265135 11.0
    vertex -8.999999999999998 8.999999999999998 1.9999999999999998
  endloop
endfacet
facet normal 1.0 0.0 0.0
  outer loop
    vertex -8.999999999999998 4.199999809265135 2.700000047683716
    vertex -8.999999999999998 -5.199999809265137 3.400000095367431
    vertex -8.999999999999998 -5.199999809265137 2.700000047683716
  endloop
endfacet
facet normal 1.0 0.0 0.0
  outer loop
    vertex -8.999999999999998 -5.199999809265137 3.400000095367431
    vertex -8.999999999999998 4.199999809265135 2.700000047683716
    vertex -8.999999999999998 -4.5 3.400000095367431
  endloop
endfacet
facet normal 1.0 0.0 0.0
  outer loop
    vertex -8.999999999999998 -4.5 3.400000095367431
    vertex -8.999999999999998 4.199999809265135 2.700000047683716
    vertex -8.999999999999996 -1.4048986834945463 6.986896536289969
  endloop
endfacet
facet normal 1.0 0.0 0.0
  outer loop
    vertex -8.999999999999998 -4.5 3.400000095367431
    vertex -8.999999999999996 -1.4048986834945463 6.986896536289969
    vertex -8.999999999999996 -1.7673355505710049 7.265004125836277
  endloop
endfacet
facet normal 1.0 0.0 0.0
  outer loop
    vertex -8.999999999999998 -4.5 3.400000095367431
    vertex -8.999999999999996 -1.7673355505710049 7.265004125836277
    vertex -8.999999999999996 -2.045443140117315 7.627440992912736
  endloop
endfacet
facet normal 1.0 0.0 0.0
  outer loop
    vertex -8.999999999999998 -4.5 3.400000095367431
    vertex -8.999999999999996 -2.045443140117315 7.627440992912736
    vertex -8.999999999999998 -4.5 11.0
  endloop
endfacet
facet normal 1.0 0.0 0.0
  outer loop
    vertex -8.999999999999998 -4.5 11.0
    vertex -8.999999999999996 -2.045443140117315 7.627440992912736
    vertex -8.999999999999996 -2.2202688795004155 8.049507663983325
  endloop
endfacet
facet normal 1.0 0.0 0.0
  outer loop
    vertex -8.999999999999998 -4.5 11.0
    vertex -8.999999999999996 -2.2202688795004155 8.049507663983325
    vertex -8.999999999999996 -2.279898683494546 8.502440992912735
  endloop
endfacet
facet normal 1.0 0.0 0.0
  outer loop
    vertex -8.999999999999996 -1.4048986834945463 6.986896536289969
    vertex -8.999999999999998 4.199999809265135 2.700000047683716
    vertex -8.999999999999996 -0.9828320124239586 6.812070796906866
  endloop
endfacet
facet normal 1.0 0.0 0.0
  outer loop
    vertex -8.999999999999996 -0.9828320124239586 6.812070796906866
    vertex -8.999999999999998 4.199999809265135 2.700000047683716
    vertex -8.999999999999996 -0.5298986834945465 6.752440992912736
  endloop
endfacet
facet normal 1.0 0.0 0.0
  outer loop
    vertex -8.999999999999996 -0.5298986834945465 6.752440992912736
    vertex -8.999999999999998 4.199999809265135 2.700000047683716
    vertex -8.999999999999996 -0.07696535456513592 6.812070796906866
  endloop
endfacet
facet normal 1.0 0.0 0.0
  outer loop
    vertex -8.999999999999996 -0.07696535456513592 6.812070796906866
    vertex -8.999999999999998 4.199999809265135 2.700000047683716
    vertex -8.999999999999998 3.499999999999999 3.400000095367431
  endloop
endfacet
facet normal 1.0 0.0 0.0
  outer loop
    vertex -8.999999999999996 -0.07696535456513592 6.812070796906866
    vertex -8.999999999999998 3.499999999999999 3.400000095367431
    vertex -8.999999999999996 0.3451013165054533 6.986896536289969
  endloop
endfacet
facet normal 1.0 0.0 0.0
  outer loop
    vertex -8.999999999999996 0.3451013165054533 6.986896536289969
    vertex -8.999999999999998 3.499999999999999 3.400000095367431
    vertex -8.999999999999996 0.7075381835819119 7.265004125836277
  endloop
endfacet
facet normal 1.0 0.0 0.0
  outer loop
    vertex -8.999999999999996 0.7075381835819119 7.265004125836277
    vertex -8.999999999999998 3.499999999999999 3.400000095367431
    vertex -8.999999999999996 0.9856457731282205 7.627440992912736
  endloop
endfacet
facet normal 1.0 0.0 0.0
  outer loop
    vertex -8.999999999999996 0.9856457731282205 7.627440992912736
    vertex -8.999999999999998 3.499999999999999 3.400000095367431
    vertex -8.999999999999996 1.1604715125113225 8.049507663983324
  endloop
endfacet
facet normal 1.0 0.0 0.0
  outer loop
    vertex -8.999999999999996 1.1604715125113225 8.049507663983324
    vertex -8.999999999999998 3.499999999999999 3.400000095367431
    vertex -8.999999999999996 1.220101316505453 8.502440992912735
  endloop
endfacet
facet normal 1.0 0.0 0.0
  outer loop
    vertex -8.999999999999998 3.499999999999999 3.400000095367431
    vertex -8.999999999999998 4.199999809265135 2.700000047683716
    vertex -8.999999999999998 4.199999809265135 3.400000095367431
  endloop
endfacet
facet normal 1.0 0.0 0.0
  outer loop
    vertex 25.999999999999975 -35.44000000000032 0.9999999999930882
    vertex 25.999999999999975 -14.439999999999998 0.0
    vertex 25.999999999999975 -14.440000000000321 1.0000000000000009
  endloop
endfacet
facet normal 1.0 0.0 0.0
  outer loop
    vertex 25.999999999999975 -14.439999999999998 0.0
    vertex 25.999999999999975 -35.44000000000032 0.9999999999930882
    vertex 25.999999999999975 -35.43999999999999 -6.912795336155852e-12
  endloop
endfacet
facet normal 0.0 1.0 3.291811268013589e-13
  outer loop
    vertex 24.999999999999975 -15.44000000000032 0.9999999999996717
    vertex -9.000000000000023 -15.440000000000982 2.9999999999996727
    vertex 24.999999999999975 -15.440000000000982 2.9999999999996727
  endloop
endfacet
facet normal 0.0 1.0 3.291811268013589e-13
  outer loop
    vertex -9.000000000000023 -15.440000000000982 2.9999999999996727
    vertex 24.999999999999975 -15.44000000000032 0.9999999999996717
    vertex -9.000000000000023 -15.44000000000032 0.9999999999996717
  endloop
endfacet
facet normal 0.0 -3.291811268013589e-13 1.0
  outer loop
    vertex 24.999999999999975 -34.44000000000098 2.999999999993418
    vertex -9.000000000000023 -15.440000000000982 2.9999999999996727
    vertex -9.000000000000023 -34.44000000000098 2.999999999993418
  endloop
endfacet
facet normal 0.0 -3.291811268013589e-13 1.0
  outer loop
    vertex -9.000000000000023 -15.440000000000982 2.9999999999996727
    vertex 24.999999999999975 -34.44000000000098 2.999999999993418
    vertex 24.999999999999975 -15.440000000000982 2.9999999999996727
  endloop
endfacet
facet normal 0.0 -3.291811268013589e-13 1.0
  outer loop
    vertex -10.000000000000021 -35.44000000000032 0.9999999999930882
    vertex -9.000000000000023 -34.440000000000325 0.9999999999934174
    vertex -10.000000000000021 -14.440000000000321 1.0000000000000009
  endloop
endfacet
facet normal 0.0 -3.291811268013589e-13 1.0
  outer loop
    vertex -9.000000000000023 -34.440000000000325 0.9999999999934174
    vertex -10.000000000000021 -35.44000000000032 0.9999999999930882
    vertex 25.999999999999975 -35.44000000000032 0.9999999999930882
  endloop
endfacet
facet normal 0.0 -3.291811268013589e-13 1.0
  outer loop
    vertex -9.000000000000023 -34.440000000000325 0.9999999999934174
    vertex 25.999999999999975 -35.44000000000032 0.9999999999930882
    vertex 24.999999999999975 -34.440000000000325 0.9999999999934174
  endloop
endfacet
facet normal 0.0 -3.291811268013589e-13 1.0
  outer loop
    vertex 24.999999999999975 -34.440000000000325 0.9999999999934174
    vertex 25.999999999999975 -35.44000000000032 0.9999999999930882
    vertex 24.999999999999975 -15.44000000000032 0.9999999999996717
  endloop
endfacet
facet normal 0.0 -3.291811268013589e-13 1.0
  outer loop
    vertex -10.000000000000021 -14.440000000000321 1.0000000000000009
    vertex -9.000000000000023 -15.44000000000032 0.9999999999996717
    vertex 25.999999999999975 -14.440000000000321 1.0000000000000009
  endloop
endfacet
facet normal 0.0 -3.291811268013589e-13 1.0
  outer loop
    vertex -9.000000000000023 -15.44000000000032 0.9999999999996717
    vertex -10.000000000000021 -14.440000000000321 1.0000000000000009
    vertex -9.000000000000023 -34.440000000000325 0.9999999999934174
  endloop
endfacet
facet normal 0.0 -3.291811268013589e-13 1.0
  outer loop
    vertex 25.999999999999975 -14.440000000000321 1.0000000000000009
    vertex -9.000000000000023 -15.44000000000032 0.9999999999996717
    vertex 24.999999999999975 -15.44000000000032 0.9999999999996717
  endloop
endfacet
facet normal 0.0 -3.291811268013589e-13 1.0
  outer loop
    vertex 25.999999999999975 -14.440000000000321 1.0000000000000009
    vertex 24.999999999999975 -15.44000000000032 0.9999999999996717
    vertex 25.999999999999975 -35.44000000000032 0.9999999999930882
  endloop
endfacet
facet normal 1.0 0.0 0.0
  outer loop
    vertex 24.999999999999975 -15.440000000000982 2.9999999999996727
    vertex 24.999999999999975 -34.440000000000325 0.9999999999934174
    vertex 24.999999999999975 -15.44000000000032 0.9999999999996717
  endloop
endfacet
facet normal 1.0 0.0 0.0
  outer loop
    vertex 24.999999999999975 -34.440000000000325 0.9999999999934174
    vertex 24.999999999999975 -15.440000000000982 2.9999999999996727
    vertex 24.999999999999975 -34.44000000000098 2.999999999993418
  endloop
endfacet
facet normal 0.0 1.0 3.291811268013589e-13
  outer loop
    vertex 25.999999999999975 -14.439999999999998 0.0
    vertex -10.000000000000021 -14.440000000000321 1.0000000000000009
    vertex 25.999999999999975 -14.440000000000321 1.0000000000000009
  endloop
endfacet
facet normal 0.0 1.0 3.291811268013589e-13
  outer loop
    vertex -10.000000000000021 -14.440000000000321 1.0000000000000009
    vertex 25.999999999999975 -14.439999999999998 0.0
    vertex -10.000000000000021 -14.439999999999998 0.0
  endloop
endfacet
facet normal -1.0 0.0 0.0
  outer loop
    vertex -9.000000000000023 -34.440000000000325 0.9999999999934174
    vertex -9.000000000000023 -15.440000000000982 2.9999999999996727
    vertex -9.000000000000023 -15.44000000000032 0.9999999999996717
  endloop
endfacet
facet normal -1.0 0.0 0.0
  outer loop
    vertex -9.000000000000023 -15.440000000000982 2.9999999999996727
    vertex -9.000000000000023 -34.440000000000325 0.9999999999934174
    vertex -9.000000000000023 -34.44000000000098 2.999999999993418
  endloop
endfacet
facet normal -1.0 0.0 0.0
  outer loop
    vertex -10.000000000000021 -14.439999999999998 0.0
    vertex -10.000000000000021 -35.44000000000032 0.9999999999930882
    vertex -10.000000000000021 -14.440000000000321 1.0000000000000009
  endloop
endfacet
facet normal -1.0 0.0 0.0
  outer loop
    vertex -10.000000000000021 -35.44000000000032 0.9999999999930882
    vertex -10.000000000000021 -14.439999999999998 0.0
    vertex -10.000000000000021 -35.43999999999999 -6.912795336155852e-12
  endloop
endfacet
facet normal 0.0 -1.0 -3.291811268013589e-13
  outer loop
    vertex -9.000000000000023 -34.440000000000325 0.9999999999934174
    vertex 24.999999999999975 -34.44000000000098 2.999999999993418
    vertex -9.000000000000023 -34.44000000000098 2.999999999993418
  endloop
endfacet
facet normal 0.0 -1.0 -3.291811268013589e-13
  outer loop
    vertex 24.999999999999975 -34.44000000000098 2.999999999993418
    vertex -9.000000000000023 -34.440000000000325 0.9999999999934174
    vertex 24.999999999999975 -34.440000000000325 0.9999999999934174
  endloop
endfacet
facet normal 0.0 -1.0 -3.291811268013589e-13
  outer loop
    vertex -10.000000000000021 -35.43999999999999 -6.912795336155852e-12
    vertex 25.999999999999975 -35.44000000000032 0.9999999999930882
    vertex -10.000000000000021 -35.44000000000032 0.9999999999930882
  endloop
endfacet
facet normal 0.0 -1.0 -3.291811268013589e-13
  outer loop
    vertex 25.999999999999975 -35.44000000000032 0.9999999999930882
    vertex -10.000000000000021 -35.43999999999999 -6.912795336155852e-12
    vertex 25.999999999999975 -35.43999999999999 -6.912795336155852e-12
  endloop
endfacet
facet normal 0.0 3.291811268013589e-13 -1.0
  outer loop
    vertex 25.999999999999975 -14.439999999999998 0.0
    vertex -10.000000000000021 -35.43999999999999 -6.912795336155852e-12
    vertex -10.000000000000021 -14.439999999999998 0.0
  endloop
endfacet
facet normal 0.0 3.291811268013589e-13 -1.0
  outer loop
    vertex -10.000000000000021 -35.43999999999999 -6.912795336155852e-12
    vertex 25.999999999999975 -14.439999999999998 0.0
    vertex 25.999999999999975 -35.43999999999999 -6.912795336155852e-12
  endloop
endfacet
endsolid Arduino_Box_Leonardo_Pro_Mini_Remix
