solid ASCII
  facet normal -4.906767e-02 -9.987955e-01 0.000000e+00
    outer loop
      vertex   -6.516686e+01 -2.228054e+01 -9.999992e-01
      vertex   -6.516686e+01 -2.228054e+01 1.366667e+01
      vertex   -6.600000e+01 -2.223961e+01 -9.999992e-01
    endloop
  endfacet
  facet normal -4.906767e-02 -9.987955e-01 0.000000e+00
    outer loop
      vertex   -6.600000e+01 -2.223961e+01 -9.999992e-01
      vertex   -6.516686e+01 -2.228054e+01 1.366667e+01
      vertex   -6.516686e+01 -2.228054e+01 2.833333e+01
    endloop
  endfacet
  facet normal -4.906767e-02 -9.987955e-01 0.000000e+00
    outer loop
      vertex   -6.600000e+01 -2.223961e+01 -9.999992e-01
      vertex   -6.516686e+01 -2.228054e+01 2.833333e+01
      vertex   -6.600000e+01 -2.223961e+01 4.300000e+01
    endloop
  endfacet
  facet normal -4.906767e-02 -9.987955e-01 4.843645e-16
    outer loop
      vertex   -6.600000e+01 -2.223961e+01 4.300000e+01
      vertex   -6.516686e+01 -2.228054e+01 2.833333e+01
      vertex   -6.516686e+01 -2.228054e+01 4.300000e+01
    endloop
  endfacet
  facet normal -1.467305e-01 -9.891765e-01 4.792174e-16
    outer loop
      vertex   -6.516686e+01 -2.228054e+01 4.300000e+01
      vertex   -6.516686e+01 -2.228054e+01 2.833333e+01
      vertex   -6.434173e+01 -2.240293e+01 4.300000e+01
    endloop
  endfacet
  facet normal -1.467305e-01 -9.891765e-01 -0.000000e+00
    outer loop
      vertex   -6.434173e+01 -2.240293e+01 4.300000e+01
      vertex   -6.516686e+01 -2.228054e+01 2.833333e+01
      vertex   -6.434173e+01 -2.240293e+01 2.833333e+01
    endloop
  endfacet
  facet normal -2.429802e-01 -9.700313e-01 -0.000000e+00
    outer loop
      vertex   -6.434173e+01 -2.240293e+01 4.300000e+01
      vertex   -6.434173e+01 -2.240293e+01 2.833333e+01
      vertex   -6.353258e+01 -2.260562e+01 4.300000e+01
    endloop
  endfacet
  facet normal -2.429802e-01 -9.700313e-01 -0.000000e+00
    outer loop
      vertex   -6.353258e+01 -2.260562e+01 4.300000e+01
      vertex   -6.434173e+01 -2.240293e+01 2.833333e+01
      vertex   -6.353258e+01 -2.260562e+01 2.833333e+01
    endloop
  endfacet
  facet normal -3.368899e-01 -9.415441e-01 -0.000000e+00
    outer loop
      vertex   -6.353258e+01 -2.260562e+01 4.300000e+01
      vertex   -6.353258e+01 -2.260562e+01 2.833333e+01
      vertex   -6.274719e+01 -2.288663e+01 4.300000e+01
    endloop
  endfacet
  facet normal -3.368899e-01 -9.415441e-01 -0.000000e+00
    outer loop
      vertex   -6.274719e+01 -2.288663e+01 4.300000e+01
      vertex   -6.353258e+01 -2.260562e+01 2.833333e+01
      vertex   -6.274719e+01 -2.288663e+01 2.833333e+01
    endloop
  endfacet
  facet normal -4.275551e-01 -9.039893e-01 -0.000000e+00
    outer loop
      vertex   -6.274719e+01 -2.288663e+01 4.300000e+01
      vertex   -6.274719e+01 -2.288663e+01 2.833333e+01
      vertex   -6.199313e+01 -2.324328e+01 4.300000e+01
    endloop
  endfacet
  facet normal -4.275551e-01 -9.039893e-01 -0.000000e+00
    outer loop
      vertex   -6.199313e+01 -2.324328e+01 4.300000e+01
      vertex   -6.274719e+01 -2.288663e+01 2.833333e+01
      vertex   -6.199313e+01 -2.324328e+01 2.833333e+01
    endloop
  endfacet
  facet normal -5.141027e-01 -8.577286e-01 -0.000000e+00
    outer loop
      vertex   -6.199313e+01 -2.324328e+01 4.300000e+01
      vertex   -6.199313e+01 -2.324328e+01 2.833333e+01
      vertex   -6.127765e+01 -2.367212e+01 4.300000e+01
    endloop
  endfacet
  facet normal -5.141027e-01 -8.577286e-01 -2.077680e-16
    outer loop
      vertex   -6.127765e+01 -2.367212e+01 4.300000e+01
      vertex   -6.199313e+01 -2.324328e+01 2.833333e+01
      vertex   -6.127765e+01 -2.367212e+01 2.833333e+01
    endloop
  endfacet
  facet normal -5.956993e-01 -8.032075e-01 -1.945613e-16
    outer loop
      vertex   -6.127765e+01 -2.367212e+01 4.300000e+01
      vertex   -6.127765e+01 -2.367212e+01 2.833333e+01
      vertex   -6.060766e+01 -2.416902e+01 4.300000e+01
    endloop
  endfacet
  facet normal -5.956993e-01 -8.032075e-01 -0.000000e+00
    outer loop
      vertex   -6.060766e+01 -2.416902e+01 4.300000e+01
      vertex   -6.127765e+01 -2.367212e+01 2.833333e+01
      vertex   -6.060766e+01 -2.416902e+01 2.833333e+01
    endloop
  endfacet
  facet normal -6.715590e-01 -7.409511e-01 -0.000000e+00
    outer loop
      vertex   -6.060766e+01 -2.416902e+01 4.300000e+01
      vertex   -6.060766e+01 -2.416902e+01 2.833333e+01
      vertex   -5.998959e+01 -2.472920e+01 4.300000e+01
    endloop
  endfacet
  facet normal -6.715590e-01 -7.409511e-01 -0.000000e+00
    outer loop
      vertex   -5.998959e+01 -2.472920e+01 4.300000e+01
      vertex   -6.060766e+01 -2.416902e+01 2.833333e+01
      vertex   -5.998959e+01 -2.472920e+01 2.833333e+01
    endloop
  endfacet
  facet normal -7.409511e-01 -6.715590e-01 -0.000000e+00
    outer loop
      vertex   -5.998959e+01 -2.472920e+01 4.300000e+01
      vertex   -5.998959e+01 -2.472920e+01 2.833333e+01
      vertex   -5.942941e+01 -2.534726e+01 4.300000e+01
    endloop
  endfacet
  facet normal -7.409511e-01 -6.715590e-01 8.805958e-16
    outer loop
      vertex   -5.942941e+01 -2.534726e+01 4.300000e+01
      vertex   -5.998959e+01 -2.472920e+01 2.833333e+01
      vertex   -5.942941e+01 -2.534726e+01 2.833333e+01
    endloop
  endfacet
  facet normal -8.032075e-01 -5.956993e-01 9.225419e-16
    outer loop
      vertex   -5.942941e+01 -2.534726e+01 4.300000e+01
      vertex   -5.942941e+01 -2.534726e+01 2.833333e+01
      vertex   -5.893251e+01 -2.601726e+01 4.300000e+01
    endloop
  endfacet
  facet normal -8.032075e-01 -5.956993e-01 -0.000000e+00
    outer loop
      vertex   -5.893251e+01 -2.601726e+01 4.300000e+01
      vertex   -5.942941e+01 -2.534726e+01 2.833333e+01
      vertex   -5.893251e+01 -2.601726e+01 2.833333e+01
    endloop
  endfacet
  facet normal -8.577286e-01 -5.141027e-01 -0.000000e+00
    outer loop
      vertex   -5.893251e+01 -2.601726e+01 4.300000e+01
      vertex   -5.893251e+01 -2.601726e+01 2.833333e+01
      vertex   -5.850367e+01 -2.673274e+01 4.300000e+01
    endloop
  endfacet
  facet normal -8.577286e-01 -5.141027e-01 -0.000000e+00
    outer loop
      vertex   -5.850367e+01 -2.673274e+01 4.300000e+01
      vertex   -5.893251e+01 -2.601726e+01 2.833333e+01
      vertex   -5.850367e+01 -2.673274e+01 2.833333e+01
    endloop
  endfacet
  facet normal -9.039893e-01 -4.275551e-01 -0.000000e+00
    outer loop
      vertex   -5.850367e+01 -2.673274e+01 4.300000e+01
      vertex   -5.850367e+01 -2.673274e+01 2.833333e+01
      vertex   -5.814702e+01 -2.748680e+01 4.300000e+01
    endloop
  endfacet
  facet normal -9.039893e-01 -4.275551e-01 -1.035669e-16
    outer loop
      vertex   -5.814702e+01 -2.748680e+01 4.300000e+01
      vertex   -5.850367e+01 -2.673274e+01 2.833333e+01
      vertex   -5.814702e+01 -2.748680e+01 2.833333e+01
    endloop
  endfacet
  facet normal -9.415441e-01 -3.368899e-01 -8.160499e-17
    outer loop
      vertex   -5.814702e+01 -2.748680e+01 4.300000e+01
      vertex   -5.814702e+01 -2.748680e+01 2.833333e+01
      vertex   -5.786601e+01 -2.827219e+01 4.300000e+01
    endloop
  endfacet
  facet normal -9.415441e-01 -3.368899e-01 -0.000000e+00
    outer loop
      vertex   -5.786601e+01 -2.827219e+01 4.300000e+01
      vertex   -5.814702e+01 -2.748680e+01 2.833333e+01
      vertex   -5.786601e+01 -2.827219e+01 2.833333e+01
    endloop
  endfacet
  facet normal -9.700313e-01 -2.429802e-01 -0.000000e+00
    outer loop
      vertex   -5.786601e+01 -2.827219e+01 4.300000e+01
      vertex   -5.786601e+01 -2.827219e+01 2.833333e+01
      vertex   -5.766333e+01 -2.908134e+01 4.300000e+01
    endloop
  endfacet
  facet normal -9.700313e-01 -2.429802e-01 -0.000000e+00
    outer loop
      vertex   -5.766333e+01 -2.908134e+01 4.300000e+01
      vertex   -5.786601e+01 -2.827219e+01 2.833333e+01
      vertex   -5.766333e+01 -2.908134e+01 2.833333e+01
    endloop
  endfacet
  facet normal -9.891765e-01 -1.467305e-01 -0.000000e+00
    outer loop
      vertex   -5.766333e+01 -2.908134e+01 4.300000e+01
      vertex   -5.766333e+01 -2.908134e+01 2.833333e+01
      vertex   -5.754093e+01 -2.990646e+01 4.300000e+01
    endloop
  endfacet
  facet normal -9.891765e-01 -1.467305e-01 -0.000000e+00
    outer loop
      vertex   -5.754093e+01 -2.990646e+01 4.300000e+01
      vertex   -5.766333e+01 -2.908134e+01 2.833333e+01
      vertex   -5.754093e+01 -2.990646e+01 2.833333e+01
    endloop
  endfacet
  facet normal -9.987955e-01 -4.906767e-02 -0.000000e+00
    outer loop
      vertex   -5.754093e+01 -2.990646e+01 4.300000e+01
      vertex   -5.754093e+01 -2.990646e+01 2.833333e+01
      vertex   -5.750000e+01 -3.073961e+01 4.300000e+01
    endloop
  endfacet
  facet normal -9.987955e-01 -4.906767e-02 0.000000e+00
    outer loop
      vertex   -5.750000e+01 -3.073961e+01 4.300000e+01
      vertex   -5.754093e+01 -2.990646e+01 2.833333e+01
      vertex   -5.754093e+01 -2.990646e+01 1.366667e+01
    endloop
  endfacet
  facet normal -9.987955e-01 -4.906767e-02 -0.000000e+00
    outer loop
      vertex   -5.750000e+01 -3.073961e+01 4.300000e+01
      vertex   -5.754093e+01 -2.990646e+01 1.366667e+01
      vertex   -5.750000e+01 -3.073961e+01 -9.999992e-01
    endloop
  endfacet
  facet normal -9.987955e-01 -4.906767e-02 0.000000e+00
    outer loop
      vertex   -5.750000e+01 -3.073961e+01 -9.999992e-01
      vertex   -5.754093e+01 -2.990646e+01 1.366667e+01
      vertex   -5.754093e+01 -2.990646e+01 -9.999992e-01
    endloop
  endfacet
  facet normal -9.891765e-01 -1.467305e-01 0.000000e+00
    outer loop
      vertex   -5.754093e+01 -2.990646e+01 -9.999992e-01
      vertex   -5.754093e+01 -2.990646e+01 1.366667e+01
      vertex   -5.766333e+01 -2.908134e+01 -9.999992e-01
    endloop
  endfacet
  facet normal -9.891765e-01 -1.467305e-01 0.000000e+00
    outer loop
      vertex   -5.766333e+01 -2.908134e+01 -9.999992e-01
      vertex   -5.754093e+01 -2.990646e+01 1.366667e+01
      vertex   -5.766333e+01 -2.908134e+01 1.366667e+01
    endloop
  endfacet
  facet normal -9.700313e-01 -2.429802e-01 0.000000e+00
    outer loop
      vertex   -5.766333e+01 -2.908134e+01 -9.999992e-01
      vertex   -5.766333e+01 -2.908134e+01 1.366667e+01
      vertex   -5.786601e+01 -2.827219e+01 -9.999992e-01
    endloop
  endfacet
  facet normal -9.700313e-01 -2.429802e-01 0.000000e+00
    outer loop
      vertex   -5.786601e+01 -2.827219e+01 -9.999992e-01
      vertex   -5.766333e+01 -2.908134e+01 1.366667e+01
      vertex   -5.786601e+01 -2.827219e+01 1.366667e+01
    endloop
  endfacet
  facet normal -9.415441e-01 -3.368899e-01 0.000000e+00
    outer loop
      vertex   -5.786601e+01 -2.827219e+01 -9.999992e-01
      vertex   -5.786601e+01 -2.827219e+01 1.366667e+01
      vertex   -5.814702e+01 -2.748680e+01 -9.999992e-01
    endloop
  endfacet
  facet normal -9.415441e-01 -3.368899e-01 8.160499e-17
    outer loop
      vertex   -5.814702e+01 -2.748680e+01 -9.999992e-01
      vertex   -5.786601e+01 -2.827219e+01 1.366667e+01
      vertex   -5.814702e+01 -2.748680e+01 1.366667e+01
    endloop
  endfacet
  facet normal -9.039893e-01 -4.275551e-01 1.035669e-16
    outer loop
      vertex   -5.814702e+01 -2.748680e+01 -9.999992e-01
      vertex   -5.814702e+01 -2.748680e+01 1.366667e+01
      vertex   -5.850367e+01 -2.673274e+01 -9.999992e-01
    endloop
  endfacet
  facet normal -9.039893e-01 -4.275551e-01 0.000000e+00
    outer loop
      vertex   -5.850367e+01 -2.673274e+01 -9.999992e-01
      vertex   -5.814702e+01 -2.748680e+01 1.366667e+01
      vertex   -5.850367e+01 -2.673274e+01 1.366667e+01
    endloop
  endfacet
  facet normal -8.577286e-01 -5.141027e-01 0.000000e+00
    outer loop
      vertex   -5.850367e+01 -2.673274e+01 -9.999992e-01
      vertex   -5.850367e+01 -2.673274e+01 1.366667e+01
      vertex   -5.893251e+01 -2.601726e+01 -9.999992e-01
    endloop
  endfacet
  facet normal -8.577286e-01 -5.141027e-01 0.000000e+00
    outer loop
      vertex   -5.893251e+01 -2.601726e+01 -9.999992e-01
      vertex   -5.850367e+01 -2.673274e+01 1.366667e+01
      vertex   -5.893251e+01 -2.601726e+01 1.366667e+01
    endloop
  endfacet
  facet normal -8.032075e-01 -5.956993e-01 0.000000e+00
    outer loop
      vertex   -5.893251e+01 -2.601726e+01 -9.999992e-01
      vertex   -5.893251e+01 -2.601726e+01 1.366667e+01
      vertex   -5.942941e+01 -2.534726e+01 -9.999992e-01
    endloop
  endfacet
  facet normal -8.032075e-01 -5.956993e-01 -9.225419e-16
    outer loop
      vertex   -5.942941e+01 -2.534726e+01 -9.999992e-01
      vertex   -5.893251e+01 -2.601726e+01 1.366667e+01
      vertex   -5.942941e+01 -2.534726e+01 1.366667e+01
    endloop
  endfacet
  facet normal -7.409511e-01 -6.715590e-01 -8.805958e-16
    outer loop
      vertex   -5.942941e+01 -2.534726e+01 -9.999992e-01
      vertex   -5.942941e+01 -2.534726e+01 1.366667e+01
      vertex   -5.998959e+01 -2.472920e+01 -9.999992e-01
    endloop
  endfacet
  facet normal -7.409511e-01 -6.715590e-01 0.000000e+00
    outer loop
      vertex   -5.998959e+01 -2.472920e+01 -9.999992e-01
      vertex   -5.942941e+01 -2.534726e+01 1.366667e+01
      vertex   -5.998959e+01 -2.472920e+01 1.366667e+01
    endloop
  endfacet
  facet normal -6.715590e-01 -7.409511e-01 0.000000e+00
    outer loop
      vertex   -5.998959e+01 -2.472920e+01 -9.999992e-01
      vertex   -5.998959e+01 -2.472920e+01 1.366667e+01
      vertex   -6.060766e+01 -2.416902e+01 -9.999992e-01
    endloop
  endfacet
  facet normal -6.715590e-01 -7.409511e-01 0.000000e+00
    outer loop
      vertex   -6.060766e+01 -2.416902e+01 -9.999992e-01
      vertex   -5.998959e+01 -2.472920e+01 1.366667e+01
      vertex   -6.060766e+01 -2.416902e+01 1.366667e+01
    endloop
  endfacet
  facet normal -5.956993e-01 -8.032075e-01 0.000000e+00
    outer loop
      vertex   -6.060766e+01 -2.416902e+01 -9.999992e-01
      vertex   -6.060766e+01 -2.416902e+01 1.366667e+01
      vertex   -6.127765e+01 -2.367212e+01 -9.999992e-01
    endloop
  endfacet
  facet normal -5.956993e-01 -8.032075e-01 1.945613e-16
    outer loop
      vertex   -6.127765e+01 -2.367212e+01 -9.999992e-01
      vertex   -6.060766e+01 -2.416902e+01 1.366667e+01
      vertex   -6.127765e+01 -2.367212e+01 1.366667e+01
    endloop
  endfacet
  facet normal -5.141027e-01 -8.577286e-01 2.077680e-16
    outer loop
      vertex   -6.127765e+01 -2.367212e+01 -9.999992e-01
      vertex   -6.127765e+01 -2.367212e+01 1.366667e+01
      vertex   -6.199313e+01 -2.324328e+01 -9.999992e-01
    endloop
  endfacet
  facet normal -5.141027e-01 -8.577286e-01 0.000000e+00
    outer loop
      vertex   -6.199313e+01 -2.324328e+01 -9.999992e-01
      vertex   -6.127765e+01 -2.367212e+01 1.366667e+01
      vertex   -6.199313e+01 -2.324328e+01 1.366667e+01
    endloop
  endfacet
  facet normal -4.275551e-01 -9.039893e-01 0.000000e+00
    outer loop
      vertex   -6.199313e+01 -2.324328e+01 -9.999992e-01
      vertex   -6.199313e+01 -2.324328e+01 1.366667e+01
      vertex   -6.274719e+01 -2.288663e+01 -9.999992e-01
    endloop
  endfacet
  facet normal -4.275551e-01 -9.039893e-01 0.000000e+00
    outer loop
      vertex   -6.274719e+01 -2.288663e+01 -9.999992e-01
      vertex   -6.199313e+01 -2.324328e+01 1.366667e+01
      vertex   -6.274719e+01 -2.288663e+01 1.366667e+01
    endloop
  endfacet
  facet normal -3.368899e-01 -9.415441e-01 0.000000e+00
    outer loop
      vertex   -6.274719e+01 -2.288663e+01 -9.999992e-01
      vertex   -6.274719e+01 -2.288663e+01 1.366667e+01
      vertex   -6.353258e+01 -2.260562e+01 -9.999992e-01
    endloop
  endfacet
  facet normal -3.368899e-01 -9.415441e-01 0.000000e+00
    outer loop
      vertex   -6.353258e+01 -2.260562e+01 -9.999992e-01
      vertex   -6.274719e+01 -2.288663e+01 1.366667e+01
      vertex   -6.353258e+01 -2.260562e+01 1.366667e+01
    endloop
  endfacet
  facet normal -2.429802e-01 -9.700313e-01 0.000000e+00
    outer loop
      vertex   -6.353258e+01 -2.260562e+01 -9.999992e-01
      vertex   -6.353258e+01 -2.260562e+01 1.366667e+01
      vertex   -6.434173e+01 -2.240293e+01 -9.999992e-01
    endloop
  endfacet
  facet normal -2.429802e-01 -9.700313e-01 0.000000e+00
    outer loop
      vertex   -6.434173e+01 -2.240293e+01 -9.999992e-01
      vertex   -6.353258e+01 -2.260562e+01 1.366667e+01
      vertex   -6.434173e+01 -2.240293e+01 1.366667e+01
    endloop
  endfacet
  facet normal -1.467305e-01 -9.891765e-01 0.000000e+00
    outer loop
      vertex   -6.434173e+01 -2.240293e+01 -9.999992e-01
      vertex   -6.434173e+01 -2.240293e+01 1.366667e+01
      vertex   -6.516686e+01 -2.228054e+01 -9.999992e-01
    endloop
  endfacet
  facet normal -1.467305e-01 -9.891765e-01 0.000000e+00
    outer loop
      vertex   -6.516686e+01 -2.228054e+01 -9.999992e-01
      vertex   -6.434173e+01 -2.240293e+01 1.366667e+01
      vertex   -6.516686e+01 -2.228054e+01 1.366667e+01
    endloop
  endfacet
  facet normal -1.467305e-01 -9.891765e-01 0.000000e+00
    outer loop
      vertex   -6.434173e+01 -2.240293e+01 2.833333e+01
      vertex   -6.516686e+01 -2.228054e+01 2.833333e+01
      vertex   -6.516686e+01 -2.228054e+01 1.366667e+01
    endloop
  endfacet
  facet normal -1.467305e-01 -9.891765e-01 -0.000000e+00
    outer loop
      vertex   -6.434173e+01 -2.240293e+01 2.833333e+01
      vertex   -6.516686e+01 -2.228054e+01 1.366667e+01
      vertex   -6.434173e+01 -2.240293e+01 1.366667e+01
    endloop
  endfacet
  facet normal -2.429802e-01 -9.700313e-01 0.000000e+00
    outer loop
      vertex   -6.353258e+01 -2.260562e+01 2.833333e+01
      vertex   -6.434173e+01 -2.240293e+01 2.833333e+01
      vertex   -6.434173e+01 -2.240293e+01 1.366667e+01
    endloop
  endfacet
  facet normal -2.429802e-01 -9.700313e-01 -0.000000e+00
    outer loop
      vertex   -6.353258e+01 -2.260562e+01 2.833333e+01
      vertex   -6.434173e+01 -2.240293e+01 1.366667e+01
      vertex   -6.353258e+01 -2.260562e+01 1.366667e+01
    endloop
  endfacet
  facet normal -3.368899e-01 -9.415441e-01 0.000000e+00
    outer loop
      vertex   -6.274719e+01 -2.288663e+01 2.833333e+01
      vertex   -6.353258e+01 -2.260562e+01 2.833333e+01
      vertex   -6.353258e+01 -2.260562e+01 1.366667e+01
    endloop
  endfacet
  facet normal -3.368899e-01 -9.415441e-01 -0.000000e+00
    outer loop
      vertex   -6.274719e+01 -2.288663e+01 2.833333e+01
      vertex   -6.353258e+01 -2.260562e+01 1.366667e+01
      vertex   -6.274719e+01 -2.288663e+01 1.366667e+01
    endloop
  endfacet
  facet normal -4.275551e-01 -9.039893e-01 0.000000e+00
    outer loop
      vertex   -6.199313e+01 -2.324328e+01 2.833333e+01
      vertex   -6.274719e+01 -2.288663e+01 2.833333e+01
      vertex   -6.274719e+01 -2.288663e+01 1.366667e+01
    endloop
  endfacet
  facet normal -4.275551e-01 -9.039893e-01 -0.000000e+00
    outer loop
      vertex   -6.199313e+01 -2.324328e+01 2.833333e+01
      vertex   -6.274719e+01 -2.288663e+01 1.366667e+01
      vertex   -6.199313e+01 -2.324328e+01 1.366667e+01
    endloop
  endfacet
  facet normal -5.141027e-01 -8.577286e-01 0.000000e+00
    outer loop
      vertex   -6.127765e+01 -2.367212e+01 2.833333e+01
      vertex   -6.199313e+01 -2.324328e+01 2.833333e+01
      vertex   -6.199313e+01 -2.324328e+01 1.366667e+01
    endloop
  endfacet
  facet normal -5.141027e-01 -8.577286e-01 -0.000000e+00
    outer loop
      vertex   -6.127765e+01 -2.367212e+01 2.833333e+01
      vertex   -6.199313e+01 -2.324328e+01 1.366667e+01
      vertex   -6.127765e+01 -2.367212e+01 1.366667e+01
    endloop
  endfacet
  facet normal -5.956993e-01 -8.032075e-01 0.000000e+00
    outer loop
      vertex   -6.060766e+01 -2.416902e+01 2.833333e+01
      vertex   -6.127765e+01 -2.367212e+01 2.833333e+01
      vertex   -6.127765e+01 -2.367212e+01 1.366667e+01
    endloop
  endfacet
  facet normal -5.956993e-01 -8.032075e-01 -0.000000e+00
    outer loop
      vertex   -6.060766e+01 -2.416902e+01 2.833333e+01
      vertex   -6.127765e+01 -2.367212e+01 1.366667e+01
      vertex   -6.060766e+01 -2.416902e+01 1.366667e+01
    endloop
  endfacet
  facet normal -6.715590e-01 -7.409511e-01 0.000000e+00
    outer loop
      vertex   -5.998959e+01 -2.472920e+01 2.833333e+01
      vertex   -6.060766e+01 -2.416902e+01 2.833333e+01
      vertex   -6.060766e+01 -2.416902e+01 1.366667e+01
    endloop
  endfacet
  facet normal -6.715590e-01 -7.409511e-01 -0.000000e+00
    outer loop
      vertex   -5.998959e+01 -2.472920e+01 2.833333e+01
      vertex   -6.060766e+01 -2.416902e+01 1.366667e+01
      vertex   -5.998959e+01 -2.472920e+01 1.366667e+01
    endloop
  endfacet
  facet normal -7.409511e-01 -6.715590e-01 0.000000e+00
    outer loop
      vertex   -5.942941e+01 -2.534726e+01 2.833333e+01
      vertex   -5.998959e+01 -2.472920e+01 2.833333e+01
      vertex   -5.998959e+01 -2.472920e+01 1.366667e+01
    endloop
  endfacet
  facet normal -7.409511e-01 -6.715590e-01 -0.000000e+00
    outer loop
      vertex   -5.942941e+01 -2.534726e+01 2.833333e+01
      vertex   -5.998959e+01 -2.472920e+01 1.366667e+01
      vertex   -5.942941e+01 -2.534726e+01 1.366667e+01
    endloop
  endfacet
  facet normal -8.032075e-01 -5.956993e-01 0.000000e+00
    outer loop
      vertex   -5.893251e+01 -2.601726e+01 2.833333e+01
      vertex   -5.942941e+01 -2.534726e+01 2.833333e+01
      vertex   -5.942941e+01 -2.534726e+01 1.366667e+01
    endloop
  endfacet
  facet normal -8.032075e-01 -5.956993e-01 -0.000000e+00
    outer loop
      vertex   -5.893251e+01 -2.601726e+01 2.833333e+01
      vertex   -5.942941e+01 -2.534726e+01 1.366667e+01
      vertex   -5.893251e+01 -2.601726e+01 1.366667e+01
    endloop
  endfacet
  facet normal -8.577286e-01 -5.141027e-01 0.000000e+00
    outer loop
      vertex   -5.850367e+01 -2.673274e+01 2.833333e+01
      vertex   -5.893251e+01 -2.601726e+01 2.833333e+01
      vertex   -5.893251e+01 -2.601726e+01 1.366667e+01
    endloop
  endfacet
  facet normal -8.577286e-01 -5.141027e-01 -0.000000e+00
    outer loop
      vertex   -5.850367e+01 -2.673274e+01 2.833333e+01
      vertex   -5.893251e+01 -2.601726e+01 1.366667e+01
      vertex   -5.850367e+01 -2.673274e+01 1.366667e+01
    endloop
  endfacet
  facet normal -9.039893e-01 -4.275551e-01 0.000000e+00
    outer loop
      vertex   -5.814702e+01 -2.748680e+01 2.833333e+01
      vertex   -5.850367e+01 -2.673274e+01 2.833333e+01
      vertex   -5.850367e+01 -2.673274e+01 1.366667e+01
    endloop
  endfacet
  facet normal -9.039893e-01 -4.275551e-01 -0.000000e+00
    outer loop
      vertex   -5.814702e+01 -2.748680e+01 2.833333e+01
      vertex   -5.850367e+01 -2.673274e+01 1.366667e+01
      vertex   -5.814702e+01 -2.748680e+01 1.366667e+01
    endloop
  endfacet
  facet normal -9.415441e-01 -3.368899e-01 0.000000e+00
    outer loop
      vertex   -5.786601e+01 -2.827219e+01 2.833333e+01
      vertex   -5.814702e+01 -2.748680e+01 2.833333e+01
      vertex   -5.814702e+01 -2.748680e+01 1.366667e+01
    endloop
  endfacet
  facet normal -9.415441e-01 -3.368899e-01 -0.000000e+00
    outer loop
      vertex   -5.786601e+01 -2.827219e+01 2.833333e+01
      vertex   -5.814702e+01 -2.748680e+01 1.366667e+01
      vertex   -5.786601e+01 -2.827219e+01 1.366667e+01
    endloop
  endfacet
  facet normal -9.700313e-01 -2.429802e-01 0.000000e+00
    outer loop
      vertex   -5.766333e+01 -2.908134e+01 2.833333e+01
      vertex   -5.786601e+01 -2.827219e+01 2.833333e+01
      vertex   -5.786601e+01 -2.827219e+01 1.366667e+01
    endloop
  endfacet
  facet normal -9.700313e-01 -2.429802e-01 -0.000000e+00
    outer loop
      vertex   -5.766333e+01 -2.908134e+01 2.833333e+01
      vertex   -5.786601e+01 -2.827219e+01 1.366667e+01
      vertex   -5.766333e+01 -2.908134e+01 1.366667e+01
    endloop
  endfacet
  facet normal -9.891765e-01 -1.467305e-01 0.000000e+00
    outer loop
      vertex   -5.754093e+01 -2.990646e+01 2.833333e+01
      vertex   -5.766333e+01 -2.908134e+01 2.833333e+01
      vertex   -5.766333e+01 -2.908134e+01 1.366667e+01
    endloop
  endfacet
  facet normal -9.891765e-01 -1.467305e-01 -0.000000e+00
    outer loop
      vertex   -5.754093e+01 -2.990646e+01 2.833333e+01
      vertex   -5.766333e+01 -2.908134e+01 1.366667e+01
      vertex   -5.754093e+01 -2.990646e+01 1.366667e+01
    endloop
  endfacet
  facet normal -1.000000e+00 -0.000000e+00 -0.000000e+00
    outer loop
      vertex   -5.750000e+01 -3.073961e+01 4.300000e+01
      vertex   -5.750000e+01 -3.073961e+01 -9.999992e-01
      vertex   -5.750000e+01 -3.723961e+01 4.300000e+01
    endloop
  endfacet
  facet normal -1.000000e+00 0.000000e+00 0.000000e+00
    outer loop
      vertex   -5.750000e+01 -3.723961e+01 4.300000e+01
      vertex   -5.750000e+01 -3.073961e+01 -9.999992e-01
      vertex   -5.750000e+01 -3.723961e+01 -9.999992e-01
    endloop
  endfacet
  facet normal 0.000000e+00 0.000000e+00 -1.000000e+00
    outer loop
      vertex   -6.600000e+01 -2.223961e+01 -9.999992e-01
      vertex   -5.600000e+01 -2.223961e+01 -9.999992e-01
      vertex   -6.516686e+01 -2.228054e+01 -9.999992e-01
    endloop
  endfacet
  facet normal 0.000000e+00 0.000000e+00 -1.000000e+00
    outer loop
      vertex   -6.516686e+01 -2.228054e+01 -9.999992e-01
      vertex   -5.600000e+01 -2.223961e+01 -9.999992e-01
      vertex   -6.434173e+01 -2.240293e+01 -9.999992e-01
    endloop
  endfacet
  facet normal 0.000000e+00 0.000000e+00 -1.000000e+00
    outer loop
      vertex   -6.434173e+01 -2.240293e+01 -9.999992e-01
      vertex   -5.600000e+01 -2.223961e+01 -9.999992e-01
      vertex   -6.353258e+01 -2.260562e+01 -9.999992e-01
    endloop
  endfacet
  facet normal 0.000000e+00 0.000000e+00 -1.000000e+00
    outer loop
      vertex   -6.353258e+01 -2.260562e+01 -9.999992e-01
      vertex   -5.600000e+01 -2.223961e+01 -9.999992e-01
      vertex   -6.274719e+01 -2.288663e+01 -9.999992e-01
    endloop
  endfacet
  facet normal 0.000000e+00 0.000000e+00 -1.000000e+00
    outer loop
      vertex   -6.274719e+01 -2.288663e+01 -9.999992e-01
      vertex   -5.600000e+01 -2.223961e+01 -9.999992e-01
      vertex   -6.199313e+01 -2.324328e+01 -9.999992e-01
    endloop
  endfacet
  facet normal 0.000000e+00 0.000000e+00 -1.000000e+00
    outer loop
      vertex   -6.199313e+01 -2.324328e+01 -9.999992e-01
      vertex   -5.600000e+01 -2.223961e+01 -9.999992e-01
      vertex   -6.127765e+01 -2.367212e+01 -9.999992e-01
    endloop
  endfacet
  facet normal 0.000000e+00 0.000000e+00 -1.000000e+00
    outer loop
      vertex   -6.127765e+01 -2.367212e+01 -9.999992e-01
      vertex   -5.600000e+01 -2.223961e+01 -9.999992e-01
      vertex   -6.060766e+01 -2.416902e+01 -9.999992e-01
    endloop
  endfacet
  facet normal 0.000000e+00 0.000000e+00 -1.000000e+00
    outer loop
      vertex   -6.060766e+01 -2.416902e+01 -9.999992e-01
      vertex   -5.600000e+01 -2.223961e+01 -9.999992e-01
      vertex   -5.998959e+01 -2.472920e+01 -9.999992e-01
    endloop
  endfacet
  facet normal 0.000000e+00 0.000000e+00 -1.000000e+00
    outer loop
      vertex   -5.998959e+01 -2.472920e+01 -9.999992e-01
      vertex   -5.600000e+01 -2.223961e+01 -9.999992e-01
      vertex   -5.942941e+01 -2.534726e+01 -9.999992e-01
    endloop
  endfacet
  facet normal 0.000000e+00 0.000000e+00 -1.000000e+00
    outer loop
      vertex   -5.942941e+01 -2.534726e+01 -9.999992e-01
      vertex   -5.600000e+01 -2.223961e+01 -9.999992e-01
      vertex   -5.893251e+01 -2.601726e+01 -9.999992e-01
    endloop
  endfacet
  facet normal 0.000000e+00 0.000000e+00 -1.000000e+00
    outer loop
      vertex   -5.893251e+01 -2.601726e+01 -9.999992e-01
      vertex   -5.600000e+01 -2.223961e+01 -9.999992e-01
      vertex   -5.850367e+01 -2.673274e+01 -9.999992e-01
    endloop
  endfacet
  facet normal 0.000000e+00 0.000000e+00 -1.000000e+00
    outer loop
      vertex   -5.850367e+01 -2.673274e+01 -9.999992e-01
      vertex   -5.600000e+01 -2.223961e+01 -9.999992e-01
      vertex   -5.814702e+01 -2.748680e+01 -9.999992e-01
    endloop
  endfacet
  facet normal 0.000000e+00 0.000000e+00 -1.000000e+00
    outer loop
      vertex   -5.814702e+01 -2.748680e+01 -9.999992e-01
      vertex   -5.600000e+01 -2.223961e+01 -9.999992e-01
      vertex   -5.786601e+01 -2.827219e+01 -9.999992e-01
    endloop
  endfacet
  facet normal 0.000000e+00 0.000000e+00 -1.000000e+00
    outer loop
      vertex   -5.786601e+01 -2.827219e+01 -9.999992e-01
      vertex   -5.600000e+01 -2.223961e+01 -9.999992e-01
      vertex   -5.766333e+01 -2.908134e+01 -9.999992e-01
    endloop
  endfacet
  facet normal 0.000000e+00 0.000000e+00 -1.000000e+00
    outer loop
      vertex   -5.766333e+01 -2.908134e+01 -9.999992e-01
      vertex   -5.600000e+01 -2.223961e+01 -9.999992e-01
      vertex   -5.754093e+01 -2.990646e+01 -9.999992e-01
    endloop
  endfacet
  facet normal 0.000000e+00 0.000000e+00 -1.000000e+00
    outer loop
      vertex   -5.754093e+01 -2.990646e+01 -9.999992e-01
      vertex   -5.600000e+01 -2.223961e+01 -9.999992e-01
      vertex   -5.750000e+01 -3.073961e+01 -9.999992e-01
    endloop
  endfacet
  facet normal 0.000000e+00 0.000000e+00 -1.000000e+00
    outer loop
      vertex   -5.750000e+01 -3.073961e+01 -9.999992e-01
      vertex   -5.600000e+01 -2.223961e+01 -9.999992e-01
      vertex   -5.600000e+01 -3.723961e+01 -9.999992e-01
    endloop
  endfacet
  facet normal 0.000000e+00 0.000000e+00 -1.000000e+00
    outer loop
      vertex   -5.750000e+01 -3.073961e+01 -9.999992e-01
      vertex   -5.600000e+01 -3.723961e+01 -9.999992e-01
      vertex   -5.750000e+01 -3.723961e+01 -9.999992e-01
    endloop
  endfacet
  facet normal -0.000000e+00 0.000000e+00 1.000000e+00
    outer loop
      vertex   -6.600000e+01 -2.223961e+01 4.300000e+01
      vertex   -6.516686e+01 -2.228054e+01 4.300000e+01
      vertex   -5.600000e+01 -2.223961e+01 4.300000e+01
    endloop
  endfacet
  facet normal 0.000000e+00 0.000000e+00 1.000000e+00
    outer loop
      vertex   -5.600000e+01 -2.223961e+01 4.300000e+01
      vertex   -6.516686e+01 -2.228054e+01 4.300000e+01
      vertex   -6.434173e+01 -2.240293e+01 4.300000e+01
    endloop
  endfacet
  facet normal 0.000000e+00 0.000000e+00 1.000000e+00
    outer loop
      vertex   -5.600000e+01 -2.223961e+01 4.300000e+01
      vertex   -6.434173e+01 -2.240293e+01 4.300000e+01
      vertex   -6.353258e+01 -2.260562e+01 4.300000e+01
    endloop
  endfacet
  facet normal -0.000000e+00 0.000000e+00 1.000000e+00
    outer loop
      vertex   -6.353258e+01 -2.260562e+01 4.300000e+01
      vertex   -6.274719e+01 -2.288663e+01 4.300000e+01
      vertex   -5.600000e+01 -2.223961e+01 4.300000e+01
    endloop
  endfacet
  facet normal 0.000000e+00 0.000000e+00 1.000000e+00
    outer loop
      vertex   -5.600000e+01 -2.223961e+01 4.300000e+01
      vertex   -6.274719e+01 -2.288663e+01 4.300000e+01
      vertex   -6.199313e+01 -2.324328e+01 4.300000e+01
    endloop
  endfacet
  facet normal 0.000000e+00 0.000000e+00 1.000000e+00
    outer loop
      vertex   -5.600000e+01 -2.223961e+01 4.300000e+01
      vertex   -6.199313e+01 -2.324328e+01 4.300000e+01
      vertex   -6.127765e+01 -2.367212e+01 4.300000e+01
    endloop
  endfacet
  facet normal -0.000000e+00 0.000000e+00 1.000000e+00
    outer loop
      vertex   -6.127765e+01 -2.367212e+01 4.300000e+01
      vertex   -6.060766e+01 -2.416902e+01 4.300000e+01
      vertex   -5.600000e+01 -2.223961e+01 4.300000e+01
    endloop
  endfacet
  facet normal 0.000000e+00 0.000000e+00 1.000000e+00
    outer loop
      vertex   -5.600000e+01 -2.223961e+01 4.300000e+01
      vertex   -6.060766e+01 -2.416902e+01 4.300000e+01
      vertex   -5.998959e+01 -2.472920e+01 4.300000e+01
    endloop
  endfacet
  facet normal 0.000000e+00 0.000000e+00 1.000000e+00
    outer loop
      vertex   -5.600000e+01 -2.223961e+01 4.300000e+01
      vertex   -5.998959e+01 -2.472920e+01 4.300000e+01
      vertex   -5.942941e+01 -2.534726e+01 4.300000e+01
    endloop
  endfacet
  facet normal -0.000000e+00 0.000000e+00 1.000000e+00
    outer loop
      vertex   -5.942941e+01 -2.534726e+01 4.300000e+01
      vertex   -5.893251e+01 -2.601726e+01 4.300000e+01
      vertex   -5.600000e+01 -2.223961e+01 4.300000e+01
    endloop
  endfacet
  facet normal 0.000000e+00 0.000000e+00 1.000000e+00
    outer loop
      vertex   -5.600000e+01 -2.223961e+01 4.300000e+01
      vertex   -5.893251e+01 -2.601726e+01 4.300000e+01
      vertex   -5.850367e+01 -2.673274e+01 4.300000e+01
    endloop
  endfacet
  facet normal 0.000000e+00 0.000000e+00 1.000000e+00
    outer loop
      vertex   -5.600000e+01 -2.223961e+01 4.300000e+01
      vertex   -5.850367e+01 -2.673274e+01 4.300000e+01
      vertex   -5.814702e+01 -2.748680e+01 4.300000e+01
    endloop
  endfacet
  facet normal -0.000000e+00 0.000000e+00 1.000000e+00
    outer loop
      vertex   -5.814702e+01 -2.748680e+01 4.300000e+01
      vertex   -5.786601e+01 -2.827219e+01 4.300000e+01
      vertex   -5.600000e+01 -2.223961e+01 4.300000e+01
    endloop
  endfacet
  facet normal 0.000000e+00 0.000000e+00 1.000000e+00
    outer loop
      vertex   -5.600000e+01 -2.223961e+01 4.300000e+01
      vertex   -5.786601e+01 -2.827219e+01 4.300000e+01
      vertex   -5.766333e+01 -2.908134e+01 4.300000e+01
    endloop
  endfacet
  facet normal 0.000000e+00 0.000000e+00 1.000000e+00
    outer loop
      vertex   -5.600000e+01 -2.223961e+01 4.300000e+01
      vertex   -5.766333e+01 -2.908134e+01 4.300000e+01
      vertex   -5.754093e+01 -2.990646e+01 4.300000e+01
    endloop
  endfacet
  facet normal -0.000000e+00 0.000000e+00 1.000000e+00
    outer loop
      vertex   -5.754093e+01 -2.990646e+01 4.300000e+01
      vertex   -5.750000e+01 -3.073961e+01 4.300000e+01
      vertex   -5.600000e+01 -2.223961e+01 4.300000e+01
    endloop
  endfacet
  facet normal 0.000000e+00 0.000000e+00 1.000000e+00
    outer loop
      vertex   -5.600000e+01 -2.223961e+01 4.300000e+01
      vertex   -5.750000e+01 -3.073961e+01 4.300000e+01
      vertex   -5.600000e+01 -3.723961e+01 4.300000e+01
    endloop
  endfacet
  facet normal 0.000000e+00 0.000000e+00 1.000000e+00
    outer loop
      vertex   -5.600000e+01 -3.723961e+01 4.300000e+01
      vertex   -5.750000e+01 -3.073961e+01 4.300000e+01
      vertex   -5.750000e+01 -3.723961e+01 4.300000e+01
    endloop
  endfacet
  facet normal 0.000000e+00 -1.000000e+00 0.000000e+00
    outer loop
      vertex   -5.600000e+01 -3.723961e+01 -9.999992e-01
      vertex   -5.600000e+01 -3.723961e+01 4.300000e+01
      vertex   -5.750000e+01 -3.723961e+01 -9.999992e-01
    endloop
  endfacet
  facet normal 0.000000e+00 -1.000000e+00 0.000000e+00
    outer loop
      vertex   -5.750000e+01 -3.723961e+01 -9.999992e-01
      vertex   -5.600000e+01 -3.723961e+01 4.300000e+01
      vertex   -5.750000e+01 -3.723961e+01 4.300000e+01
    endloop
  endfacet
  facet normal 0.000000e+00 1.000000e+00 0.000000e+00
    outer loop
      vertex   -7.600000e+01 -2.123961e+01 -8.999999e+00
      vertex   -5.801685e+01 -2.123961e+01 -7.274660e+00
      vertex   -5.600000e+01 -2.123961e+01 -8.999999e+00
    endloop
  endfacet
  facet normal 0.000000e+00 1.000000e+00 0.000000e+00
    outer loop
      vertex   -5.600000e+01 -2.123961e+01 -8.999999e+00
      vertex   -5.801685e+01 -2.123961e+01 -7.274660e+00
      vertex   -5.801685e+01 -2.123961e+01 8.725340e+00
    endloop
  endfacet
  facet normal 0.000000e+00 1.000000e+00 0.000000e+00
    outer loop
      vertex   -5.600000e+01 -2.123961e+01 -8.999999e+00
      vertex   -5.801685e+01 -2.123961e+01 8.725340e+00
      vertex   -5.801685e+01 -2.123961e+01 1.272534e+01
    endloop
  endfacet
  facet normal 0.000000e+00 1.000000e+00 0.000000e+00
    outer loop
      vertex   -5.801685e+01 -2.123961e+01 1.272534e+01
      vertex   -5.801685e+01 -2.123961e+01 8.725340e+00
      vertex   -6.117586e+01 -2.123961e+01 8.725340e+00
    endloop
  endfacet
  facet normal 0.000000e+00 1.000000e+00 0.000000e+00
    outer loop
      vertex   -5.801685e+01 -2.123961e+01 1.272534e+01
      vertex   -6.117586e+01 -2.123961e+01 8.725340e+00
      vertex   -6.117586e+01 -2.123961e+01 1.272534e+01
    endloop
  endfacet
  facet normal 0.000000e+00 1.000000e+00 0.000000e+00
    outer loop
      vertex   -7.600000e+01 -2.123961e+01 5.100000e+01
      vertex   -7.401685e+01 -2.123961e+01 2.872534e+01
      vertex   -7.600000e+01 -2.123961e+01 -8.999999e+00
    endloop
  endfacet
  facet normal 0.000000e+00 1.000000e+00 0.000000e+00
    outer loop
      vertex   -7.600000e+01 -2.123961e+01 -8.999999e+00
      vertex   -7.401685e+01 -2.123961e+01 2.872534e+01
      vertex   -7.401685e+01 -2.123961e+01 1.272534e+01
    endloop
  endfacet
  facet normal 0.000000e+00 1.000000e+00 0.000000e+00
    outer loop
      vertex   -7.600000e+01 -2.123961e+01 -8.999999e+00
      vertex   -7.401685e+01 -2.123961e+01 1.272534e+01
      vertex   -7.401685e+01 -2.123961e+01 8.725340e+00
    endloop
  endfacet
  facet normal 0.000000e+00 1.000000e+00 0.000000e+00
    outer loop
      vertex   -7.401685e+01 -2.123961e+01 8.725340e+00
      vertex   -7.401685e+01 -2.123961e+01 1.272534e+01
      vertex   -7.000000e+01 -2.123961e+01 1.272534e+01
    endloop
  endfacet
  facet normal 0.000000e+00 1.000000e+00 0.000000e+00
    outer loop
      vertex   -7.401685e+01 -2.123961e+01 8.725340e+00
      vertex   -7.000000e+01 -2.123961e+01 1.272534e+01
      vertex   -7.000000e+01 -2.123961e+01 8.725340e+00
    endloop
  endfacet
  facet normal 0.000000e+00 1.000000e+00 0.000000e+00
    outer loop
      vertex   -5.600000e+01 -2.123961e+01 5.100000e+01
      vertex   -5.801685e+01 -2.123961e+01 4.872534e+01
      vertex   -7.600000e+01 -2.123961e+01 5.100000e+01
    endloop
  endfacet
  facet normal 0.000000e+00 1.000000e+00 0.000000e+00
    outer loop
      vertex   -7.600000e+01 -2.123961e+01 5.100000e+01
      vertex   -5.801685e+01 -2.123961e+01 4.872534e+01
      vertex   -7.401685e+01 -2.123961e+01 4.872534e+01
    endloop
  endfacet
  facet normal 0.000000e+00 1.000000e+00 0.000000e+00
    outer loop
      vertex   -7.600000e+01 -2.123961e+01 5.100000e+01
      vertex   -7.401685e+01 -2.123961e+01 4.872534e+01
      vertex   -7.401685e+01 -2.123961e+01 3.272534e+01
    endloop
  endfacet
  facet normal 0.000000e+00 1.000000e+00 -0.000000e+00
    outer loop
      vertex   -5.600000e+01 -2.123961e+01 -8.999999e+00
      vertex   -5.801685e+01 -2.123961e+01 2.872534e+01
      vertex   -5.600000e+01 -2.123961e+01 5.100000e+01
    endloop
  endfacet
  facet normal 0.000000e+00 1.000000e+00 0.000000e+00
    outer loop
      vertex   -5.600000e+01 -2.123961e+01 5.100000e+01
      vertex   -5.801685e+01 -2.123961e+01 2.872534e+01
      vertex   -5.801685e+01 -2.123961e+01 3.272534e+01
    endloop
  endfacet
  facet normal 0.000000e+00 1.000000e+00 0.000000e+00
    outer loop
      vertex   -5.600000e+01 -2.123961e+01 5.100000e+01
      vertex   -5.801685e+01 -2.123961e+01 3.272534e+01
      vertex   -5.801685e+01 -2.123961e+01 4.872534e+01
    endloop
  endfacet
  facet normal 0.000000e+00 1.000000e+00 0.000000e+00
    outer loop
      vertex   -7.401685e+01 -2.123961e+01 8.725340e+00
      vertex   -7.401685e+01 -2.123961e+01 -7.274660e+00
      vertex   -7.600000e+01 -2.123961e+01 -8.999999e+00
    endloop
  endfacet
  facet normal 0.000000e+00 1.000000e+00 0.000000e+00
    outer loop
      vertex   -7.600000e+01 -2.123961e+01 -8.999999e+00
      vertex   -7.401685e+01 -2.123961e+01 -7.274660e+00
      vertex   -5.801685e+01 -2.123961e+01 -7.274660e+00
    endloop
  endfacet
  facet normal -0.000000e+00 1.000000e+00 0.000000e+00
    outer loop
      vertex   -5.801685e+01 -2.123961e+01 1.272534e+01
      vertex   -5.801685e+01 -2.123961e+01 2.872534e+01
      vertex   -5.600000e+01 -2.123961e+01 -8.999999e+00
    endloop
  endfacet
  facet normal 0.000000e+00 1.000000e+00 -0.000000e+00
    outer loop
      vertex   -5.801685e+01 -2.123961e+01 2.872534e+01
      vertex   -6.117586e+01 -2.123961e+01 2.872534e+01
      vertex   -5.801685e+01 -2.123961e+01 3.272534e+01
    endloop
  endfacet
  facet normal 0.000000e+00 1.000000e+00 0.000000e+00
    outer loop
      vertex   -5.801685e+01 -2.123961e+01 3.272534e+01
      vertex   -6.117586e+01 -2.123961e+01 2.872534e+01
      vertex   -6.117586e+01 -2.123961e+01 3.272534e+01
    endloop
  endfacet
  facet normal 0.000000e+00 1.000000e+00 0.000000e+00
    outer loop
      vertex   -7.600000e+01 -2.123961e+01 5.100000e+01
      vertex   -7.401685e+01 -2.123961e+01 3.272534e+01
      vertex   -7.401685e+01 -2.123961e+01 2.872534e+01
    endloop
  endfacet
  facet normal 0.000000e+00 1.000000e+00 0.000000e+00
    outer loop
      vertex   -7.401685e+01 -2.123961e+01 2.872534e+01
      vertex   -7.401685e+01 -2.123961e+01 3.272534e+01
      vertex   -7.000000e+01 -2.123961e+01 3.272534e+01
    endloop
  endfacet
  facet normal 0.000000e+00 1.000000e+00 0.000000e+00
    outer loop
      vertex   -7.401685e+01 -2.123961e+01 2.872534e+01
      vertex   -7.000000e+01 -2.123961e+01 3.272534e+01
      vertex   -7.000000e+01 -2.123961e+01 2.872534e+01
    endloop
  endfacet
  facet normal -1.000000e+00 -0.000000e+00 -4.967054e-09
    outer loop
      vertex   -7.600000e+01 -2.123961e+01 5.100000e+01
      vertex   -7.600000e+01 -2.123961e+01 -8.999999e+00
      vertex   -7.600000e+01 -2.223961e+01 5.100000e+01
    endloop
  endfacet
  facet normal -1.000000e+00 0.000000e+00 -4.967054e-09
    outer loop
      vertex   -7.600000e+01 -2.223961e+01 5.100000e+01
      vertex   -7.600000e+01 -2.123961e+01 -8.999999e+00
      vertex   -7.600000e+01 -2.223961e+01 -8.999999e+00
    endloop
  endfacet
  facet normal 0.000000e+00 0.000000e+00 1.000000e+00
    outer loop
      vertex   -5.600000e+01 -2.123961e+01 5.100000e+01
      vertex   -7.600000e+01 -2.123961e+01 5.100000e+01
      vertex   -5.600000e+01 -2.223961e+01 5.100000e+01
    endloop
  endfacet
  facet normal 0.000000e+00 0.000000e+00 1.000000e+00
    outer loop
      vertex   -5.600000e+01 -2.223961e+01 5.100000e+01
      vertex   -7.600000e+01 -2.123961e+01 5.100000e+01
      vertex   -7.600000e+01 -2.223961e+01 5.100000e+01
    endloop
  endfacet
  facet normal 1.000000e+00 0.000000e+00 0.000000e+00
    outer loop
      vertex   -5.600000e+01 -2.223961e+01 -8.999999e+00
      vertex   -5.600000e+01 -2.123961e+01 -8.999999e+00
      vertex   -5.600000e+01 -2.223961e+01 -9.999992e-01
    endloop
  endfacet
  facet normal 1.000000e+00 -0.000000e+00 0.000000e+00
    outer loop
      vertex   -5.600000e+01 -2.223961e+01 -9.999992e-01
      vertex   -5.600000e+01 -2.123961e+01 -8.999999e+00
      vertex   -5.600000e+01 -2.123961e+01 5.100000e+01
    endloop
  endfacet
  facet normal 1.000000e+00 0.000000e+00 0.000000e+00
    outer loop
      vertex   -5.600000e+01 -2.223961e+01 -9.999992e-01
      vertex   -5.600000e+01 -2.123961e+01 5.100000e+01
      vertex   -5.600000e+01 -2.223961e+01 4.300000e+01
    endloop
  endfacet
  facet normal 1.000000e+00 0.000000e+00 0.000000e+00
    outer loop
      vertex   -5.600000e+01 -2.223961e+01 4.300000e+01
      vertex   -5.600000e+01 -2.123961e+01 5.100000e+01
      vertex   -5.600000e+01 -2.223961e+01 5.100000e+01
    endloop
  endfacet
  facet normal 1.000000e+00 -0.000000e+00 0.000000e+00
    outer loop
      vertex   -5.600000e+01 -3.723961e+01 4.300000e+01
      vertex   -5.600000e+01 -3.723961e+01 -9.999992e-01
      vertex   -5.600000e+01 -2.223961e+01 4.300000e+01
    endloop
  endfacet
  facet normal 1.000000e+00 0.000000e+00 0.000000e+00
    outer loop
      vertex   -5.600000e+01 -2.223961e+01 4.300000e+01
      vertex   -5.600000e+01 -3.723961e+01 -9.999992e-01
      vertex   -5.600000e+01 -2.223961e+01 -9.999992e-01
    endloop
  endfacet
  facet normal 0.000000e+00 0.000000e+00 -1.000000e+00
    outer loop
      vertex   -7.600000e+01 -2.123961e+01 -8.999999e+00
      vertex   -5.600000e+01 -2.123961e+01 -8.999999e+00
      vertex   -7.600000e+01 -2.223961e+01 -8.999999e+00
    endloop
  endfacet
  facet normal 0.000000e+00 0.000000e+00 -1.000000e+00
    outer loop
      vertex   -7.600000e+01 -2.223961e+01 -8.999999e+00
      vertex   -5.600000e+01 -2.123961e+01 -8.999999e+00
      vertex   -5.600000e+01 -2.223961e+01 -8.999999e+00
    endloop
  endfacet
  facet normal 0.000000e+00 -1.000000e+00 0.000000e+00
    outer loop
      vertex   -5.600000e+01 -2.223961e+01 4.300000e+01
      vertex   -5.600000e+01 -2.223961e+01 5.100000e+01
      vertex   -6.600000e+01 -2.223961e+01 4.300000e+01
    endloop
  endfacet
  facet normal 0.000000e+00 -1.000000e+00 0.000000e+00
    outer loop
      vertex   -6.600000e+01 -2.223961e+01 4.300000e+01
      vertex   -5.600000e+01 -2.223961e+01 5.100000e+01
      vertex   -7.600000e+01 -2.223961e+01 5.100000e+01
    endloop
  endfacet
  facet normal -0.000000e+00 -1.000000e+00 -0.000000e+00
    outer loop
      vertex   -6.600000e+01 -2.223961e+01 4.300000e+01
      vertex   -7.600000e+01 -2.223961e+01 5.100000e+01
      vertex   -6.600000e+01 -2.223961e+01 -9.999992e-01
    endloop
  endfacet
  facet normal -0.000000e+00 -1.000000e+00 0.000000e+00
    outer loop
      vertex   -6.600000e+01 -2.223961e+01 -9.999992e-01
      vertex   -7.600000e+01 -2.223961e+01 5.100000e+01
      vertex   -7.600000e+01 -2.223961e+01 -8.999999e+00
    endloop
  endfacet
  facet normal 0.000000e+00 -1.000000e+00 -0.000000e+00
    outer loop
      vertex   -6.600000e+01 -2.223961e+01 -9.999992e-01
      vertex   -7.600000e+01 -2.223961e+01 -8.999999e+00
      vertex   -5.600000e+01 -2.223961e+01 -8.999999e+00
    endloop
  endfacet
  facet normal 0.000000e+00 -1.000000e+00 0.000000e+00
    outer loop
      vertex   -5.600000e+01 -2.223961e+01 -8.999999e+00
      vertex   -5.600000e+01 -2.223961e+01 -9.999992e-01
      vertex   -6.600000e+01 -2.223961e+01 -9.999992e-01
    endloop
  endfacet
  facet normal 0.000000e+00 1.736482e-01 -9.848078e-01
    outer loop
      vertex   -7.348787e+01 -1.823961e+01 -6.745679e+00
      vertex   -5.854583e+01 -1.823961e+01 -6.745679e+00
      vertex   -7.401685e+01 -2.123961e+01 -7.274660e+00
    endloop
  endfacet
  facet normal 0.000000e+00 1.736482e-01 -9.848078e-01
    outer loop
      vertex   -7.401685e+01 -2.123961e+01 -7.274660e+00
      vertex   -5.854583e+01 -1.823961e+01 -6.745679e+00
      vertex   -5.801685e+01 -2.123961e+01 -7.274660e+00
    endloop
  endfacet
  facet normal 9.848078e-01 1.736482e-01 -0.000000e+00
    outer loop
      vertex   -5.854583e+01 -1.823961e+01 -6.745679e+00
      vertex   -5.854583e+01 -1.823961e+01 8.196359e+00
      vertex   -5.801685e+01 -2.123961e+01 -7.274660e+00
    endloop
  endfacet
  facet normal 9.848078e-01 1.736482e-01 -0.000000e+00
    outer loop
      vertex   -5.801685e+01 -2.123961e+01 -7.274660e+00
      vertex   -5.854583e+01 -1.823961e+01 8.196359e+00
      vertex   -5.801685e+01 -2.123961e+01 8.725340e+00
    endloop
  endfacet
  facet normal -0.000000e+00 1.736482e-01 9.848078e-01
    outer loop
      vertex   -6.170484e+01 -1.823961e+01 8.196359e+00
      vertex   -6.117586e+01 -2.123961e+01 8.725340e+00
      vertex   -5.854583e+01 -1.823961e+01 8.196359e+00
    endloop
  endfacet
  facet normal 0.000000e+00 1.736482e-01 9.848078e-01
    outer loop
      vertex   -5.854583e+01 -1.823961e+01 8.196359e+00
      vertex   -6.117586e+01 -2.123961e+01 8.725340e+00
      vertex   -5.801685e+01 -2.123961e+01 8.725340e+00
    endloop
  endfacet
  facet normal 9.848078e-01 1.736482e-01 -1.383458e-15
    outer loop
      vertex   -6.170484e+01 -1.823961e+01 8.196359e+00
      vertex   -6.170484e+01 -1.823961e+01 1.325432e+01
      vertex   -6.117586e+01 -2.123961e+01 8.725340e+00
    endloop
  endfacet
  facet normal 9.848078e-01 1.736482e-01 -0.000000e+00
    outer loop
      vertex   -6.117586e+01 -2.123961e+01 8.725340e+00
      vertex   -6.170484e+01 -1.823961e+01 1.325432e+01
      vertex   -6.117586e+01 -2.123961e+01 1.272534e+01
    endloop
  endfacet
  facet normal 0.000000e+00 1.736482e-01 -9.848078e-01
    outer loop
      vertex   -6.170484e+01 -1.823961e+01 1.325432e+01
      vertex   -5.854583e+01 -1.823961e+01 1.325432e+01
      vertex   -6.117586e+01 -2.123961e+01 1.272534e+01
    endloop
  endfacet
  facet normal 0.000000e+00 1.736482e-01 -9.848078e-01
    outer loop
      vertex   -6.117586e+01 -2.123961e+01 1.272534e+01
      vertex   -5.854583e+01 -1.823961e+01 1.325432e+01
      vertex   -5.801685e+01 -2.123961e+01 1.272534e+01
    endloop
  endfacet
  facet normal 9.848078e-01 1.736482e-01 -0.000000e+00
    outer loop
      vertex   -5.854583e+01 -1.823961e+01 1.325432e+01
      vertex   -5.854583e+01 -1.823961e+01 2.819636e+01
      vertex   -5.801685e+01 -2.123961e+01 1.272534e+01
    endloop
  endfacet
  facet normal 9.848078e-01 1.736482e-01 -0.000000e+00
    outer loop
      vertex   -5.801685e+01 -2.123961e+01 1.272534e+01
      vertex   -5.854583e+01 -1.823961e+01 2.819636e+01
      vertex   -5.801685e+01 -2.123961e+01 2.872534e+01
    endloop
  endfacet
  facet normal -1.107545e-15 1.736482e-01 9.848078e-01
    outer loop
      vertex   -6.170484e+01 -1.823961e+01 2.819636e+01
      vertex   -6.117586e+01 -2.123961e+01 2.872534e+01
      vertex   -5.854583e+01 -1.823961e+01 2.819636e+01
    endloop
  endfacet
  facet normal 0.000000e+00 1.736482e-01 9.848078e-01
    outer loop
      vertex   -5.854583e+01 -1.823961e+01 2.819636e+01
      vertex   -6.117586e+01 -2.123961e+01 2.872534e+01
      vertex   -5.801685e+01 -2.123961e+01 2.872534e+01
    endloop
  endfacet
  facet normal 9.848078e-01 1.736482e-01 -1.383458e-15
    outer loop
      vertex   -6.170484e+01 -1.823961e+01 2.819636e+01
      vertex   -6.170484e+01 -1.823961e+01 3.325432e+01
      vertex   -6.117586e+01 -2.123961e+01 2.872534e+01
    endloop
  endfacet
  facet normal 9.848078e-01 1.736482e-01 -0.000000e+00
    outer loop
      vertex   -6.117586e+01 -2.123961e+01 2.872534e+01
      vertex   -6.170484e+01 -1.823961e+01 3.325432e+01
      vertex   -6.117586e+01 -2.123961e+01 3.272534e+01
    endloop
  endfacet
  facet normal 0.000000e+00 1.736482e-01 -9.848078e-01
    outer loop
      vertex   -6.170484e+01 -1.823961e+01 3.325432e+01
      vertex   -5.854583e+01 -1.823961e+01 3.325432e+01
      vertex   -6.117586e+01 -2.123961e+01 3.272534e+01
    endloop
  endfacet
  facet normal 0.000000e+00 1.736482e-01 -9.848078e-01
    outer loop
      vertex   -6.117586e+01 -2.123961e+01 3.272534e+01
      vertex   -5.854583e+01 -1.823961e+01 3.325432e+01
      vertex   -5.801685e+01 -2.123961e+01 3.272534e+01
    endloop
  endfacet
  facet normal 9.848078e-01 1.736482e-01 -0.000000e+00
    outer loop
      vertex   -5.854583e+01 -1.823961e+01 3.325432e+01
      vertex   -5.854583e+01 -1.823961e+01 4.819636e+01
      vertex   -5.801685e+01 -2.123961e+01 3.272534e+01
    endloop
  endfacet
  facet normal 9.848078e-01 1.736482e-01 -0.000000e+00
    outer loop
      vertex   -5.801685e+01 -2.123961e+01 3.272534e+01
      vertex   -5.854583e+01 -1.823961e+01 4.819636e+01
      vertex   -5.801685e+01 -2.123961e+01 4.872534e+01
    endloop
  endfacet
  facet normal 0.000000e+00 1.736482e-01 9.848078e-01
    outer loop
      vertex   -5.854583e+01 -1.823961e+01 4.819636e+01
      vertex   -7.348787e+01 -1.823961e+01 4.819636e+01
      vertex   -5.801685e+01 -2.123961e+01 4.872534e+01
    endloop
  endfacet
  facet normal 0.000000e+00 1.736482e-01 9.848078e-01
    outer loop
      vertex   -5.801685e+01 -2.123961e+01 4.872534e+01
      vertex   -7.348787e+01 -1.823961e+01 4.819636e+01
      vertex   -7.401685e+01 -2.123961e+01 4.872534e+01
    endloop
  endfacet
  facet normal -9.848078e-01 1.736482e-01 0.000000e+00
    outer loop
      vertex   -7.348787e+01 -1.823961e+01 4.819636e+01
      vertex   -7.348787e+01 -1.823961e+01 3.325432e+01
      vertex   -7.401685e+01 -2.123961e+01 4.872534e+01
    endloop
  endfacet
  facet normal -9.848078e-01 1.736482e-01 0.000000e+00
    outer loop
      vertex   -7.401685e+01 -2.123961e+01 4.872534e+01
      vertex   -7.348787e+01 -1.823961e+01 3.325432e+01
      vertex   -7.401685e+01 -2.123961e+01 3.272534e+01
    endloop
  endfacet
  facet normal 0.000000e+00 1.736482e-01 -9.848078e-01
    outer loop
      vertex   -6.947102e+01 -1.823961e+01 3.325432e+01
      vertex   -7.000000e+01 -2.123961e+01 3.272534e+01
      vertex   -7.348787e+01 -1.823961e+01 3.325432e+01
    endloop
  endfacet
  facet normal 0.000000e+00 1.736482e-01 -9.848078e-01
    outer loop
      vertex   -7.348787e+01 -1.823961e+01 3.325432e+01
      vertex   -7.000000e+01 -2.123961e+01 3.272534e+01
      vertex   -7.401685e+01 -2.123961e+01 3.272534e+01
    endloop
  endfacet
  facet normal -9.848078e-01 1.736482e-01 0.000000e+00
    outer loop
      vertex   -6.947102e+01 -1.823961e+01 3.325432e+01
      vertex   -6.947102e+01 -1.823961e+01 2.819636e+01
      vertex   -7.000000e+01 -2.123961e+01 3.272534e+01
    endloop
  endfacet
  facet normal -9.848078e-01 1.736482e-01 0.000000e+00
    outer loop
      vertex   -7.000000e+01 -2.123961e+01 3.272534e+01
      vertex   -6.947102e+01 -1.823961e+01 2.819636e+01
      vertex   -7.000000e+01 -2.123961e+01 2.872534e+01
    endloop
  endfacet
  facet normal 0.000000e+00 1.736482e-01 9.848078e-01
    outer loop
      vertex   -6.947102e+01 -1.823961e+01 2.819636e+01
      vertex   -7.348787e+01 -1.823961e+01 2.819636e+01
      vertex   -7.000000e+01 -2.123961e+01 2.872534e+01
    endloop
  endfacet
  facet normal 0.000000e+00 1.736482e-01 9.848078e-01
    outer loop
      vertex   -7.000000e+01 -2.123961e+01 2.872534e+01
      vertex   -7.348787e+01 -1.823961e+01 2.819636e+01
      vertex   -7.401685e+01 -2.123961e+01 2.872534e+01
    endloop
  endfacet
  facet normal -9.848078e-01 1.736482e-01 0.000000e+00
    outer loop
      vertex   -7.348787e+01 -1.823961e+01 2.819636e+01
      vertex   -7.348787e+01 -1.823961e+01 1.325432e+01
      vertex   -7.401685e+01 -2.123961e+01 2.872534e+01
    endloop
  endfacet
  facet normal -9.848078e-01 1.736482e-01 0.000000e+00
    outer loop
      vertex   -7.401685e+01 -2.123961e+01 2.872534e+01
      vertex   -7.348787e+01 -1.823961e+01 1.325432e+01
      vertex   -7.401685e+01 -2.123961e+01 1.272534e+01
    endloop
  endfacet
  facet normal 0.000000e+00 1.736482e-01 -9.848078e-01
    outer loop
      vertex   -6.947102e+01 -1.823961e+01 1.325432e+01
      vertex   -7.000000e+01 -2.123961e+01 1.272534e+01
      vertex   -7.348787e+01 -1.823961e+01 1.325432e+01
    endloop
  endfacet
  facet normal 0.000000e+00 1.736482e-01 -9.848078e-01
    outer loop
      vertex   -7.348787e+01 -1.823961e+01 1.325432e+01
      vertex   -7.000000e+01 -2.123961e+01 1.272534e+01
      vertex   -7.401685e+01 -2.123961e+01 1.272534e+01
    endloop
  endfacet
  facet normal -9.848078e-01 1.736482e-01 0.000000e+00
    outer loop
      vertex   -6.947102e+01 -1.823961e+01 1.325432e+01
      vertex   -6.947102e+01 -1.823961e+01 8.196359e+00
      vertex   -7.000000e+01 -2.123961e+01 1.272534e+01
    endloop
  endfacet
  facet normal -9.848078e-01 1.736482e-01 0.000000e+00
    outer loop
      vertex   -7.000000e+01 -2.123961e+01 1.272534e+01
      vertex   -6.947102e+01 -1.823961e+01 8.196359e+00
      vertex   -7.000000e+01 -2.123961e+01 8.725340e+00
    endloop
  endfacet
  facet normal 4.355080e-16 1.736482e-01 9.848078e-01
    outer loop
      vertex   -6.947102e+01 -1.823961e+01 8.196359e+00
      vertex   -7.348787e+01 -1.823961e+01 8.196359e+00
      vertex   -7.000000e+01 -2.123961e+01 8.725340e+00
    endloop
  endfacet
  facet normal 0.000000e+00 1.736482e-01 9.848078e-01
    outer loop
      vertex   -7.000000e+01 -2.123961e+01 8.725340e+00
      vertex   -7.348787e+01 -1.823961e+01 8.196359e+00
      vertex   -7.401685e+01 -2.123961e+01 8.725340e+00
    endloop
  endfacet
  facet normal -9.848078e-01 1.736482e-01 0.000000e+00
    outer loop
      vertex   -7.348787e+01 -1.823961e+01 8.196359e+00
      vertex   -7.348787e+01 -1.823961e+01 -6.745679e+00
      vertex   -7.401685e+01 -2.123961e+01 8.725340e+00
    endloop
  endfacet
  facet normal -9.848078e-01 1.736482e-01 0.000000e+00
    outer loop
      vertex   -7.401685e+01 -2.123961e+01 8.725340e+00
      vertex   -7.348787e+01 -1.823961e+01 -6.745679e+00
      vertex   -7.401685e+01 -2.123961e+01 -7.274660e+00
    endloop
  endfacet
  facet normal 0.000000e+00 1.000000e+00 0.000000e+00
    outer loop
      vertex   -7.348787e+01 -1.823961e+01 -6.745679e+00
      vertex   -6.947102e+01 -1.823961e+01 8.196359e+00
      vertex   -5.854583e+01 -1.823961e+01 -6.745679e+00
    endloop
  endfacet
  facet normal 0.000000e+00 1.000000e+00 0.000000e+00
    outer loop
      vertex   -5.854583e+01 -1.823961e+01 -6.745679e+00
      vertex   -6.947102e+01 -1.823961e+01 8.196359e+00
      vertex   -6.170484e+01 -1.823961e+01 8.196359e+00
    endloop
  endfacet
  facet normal 0.000000e+00 1.000000e+00 -0.000000e+00
    outer loop
      vertex   -5.854583e+01 -1.823961e+01 -6.745679e+00
      vertex   -6.170484e+01 -1.823961e+01 8.196359e+00
      vertex   -5.854583e+01 -1.823961e+01 8.196359e+00
    endloop
  endfacet
  facet normal 0.000000e+00 1.000000e+00 0.000000e+00
    outer loop
      vertex   -7.348787e+01 -1.823961e+01 -6.745679e+00
      vertex   -7.348787e+01 -1.823961e+01 8.196359e+00
      vertex   -6.947102e+01 -1.823961e+01 8.196359e+00
    endloop
  endfacet
  facet normal 0.000000e+00 1.000000e+00 -0.000000e+00
    outer loop
      vertex   -6.170484e+01 -1.823961e+01 8.196359e+00
      vertex   -6.947102e+01 -1.823961e+01 8.196359e+00
      vertex   -6.170484e+01 -1.823961e+01 1.325432e+01
    endloop
  endfacet
  facet normal 0.000000e+00 1.000000e+00 0.000000e+00
    outer loop
      vertex   -6.170484e+01 -1.823961e+01 1.325432e+01
      vertex   -6.947102e+01 -1.823961e+01 8.196359e+00
      vertex   -6.947102e+01 -1.823961e+01 1.325432e+01
    endloop
  endfacet
  facet normal 0.000000e+00 1.000000e+00 0.000000e+00
    outer loop
      vertex   -6.170484e+01 -1.823961e+01 1.325432e+01
      vertex   -6.947102e+01 -1.823961e+01 1.325432e+01
      vertex   -6.170484e+01 -1.823961e+01 2.819636e+01
    endloop
  endfacet
  facet normal 0.000000e+00 1.000000e+00 0.000000e+00
    outer loop
      vertex   -6.170484e+01 -1.823961e+01 2.819636e+01
      vertex   -6.947102e+01 -1.823961e+01 1.325432e+01
      vertex   -6.947102e+01 -1.823961e+01 2.819636e+01
    endloop
  endfacet
  facet normal 0.000000e+00 1.000000e+00 -0.000000e+00
    outer loop
      vertex   -6.170484e+01 -1.823961e+01 2.819636e+01
      vertex   -6.947102e+01 -1.823961e+01 2.819636e+01
      vertex   -6.170484e+01 -1.823961e+01 3.325432e+01
    endloop
  endfacet
  facet normal 0.000000e+00 1.000000e+00 0.000000e+00
    outer loop
      vertex   -6.170484e+01 -1.823961e+01 3.325432e+01
      vertex   -6.947102e+01 -1.823961e+01 2.819636e+01
      vertex   -6.947102e+01 -1.823961e+01 3.325432e+01
    endloop
  endfacet
  facet normal 0.000000e+00 1.000000e+00 -0.000000e+00
    outer loop
      vertex   -6.170484e+01 -1.823961e+01 3.325432e+01
      vertex   -6.947102e+01 -1.823961e+01 3.325432e+01
      vertex   -5.854583e+01 -1.823961e+01 4.819636e+01
    endloop
  endfacet
  facet normal 0.000000e+00 1.000000e+00 0.000000e+00
    outer loop
      vertex   -5.854583e+01 -1.823961e+01 4.819636e+01
      vertex   -6.947102e+01 -1.823961e+01 3.325432e+01
      vertex   -7.348787e+01 -1.823961e+01 4.819636e+01
    endloop
  endfacet
  facet normal 0.000000e+00 1.000000e+00 0.000000e+00
    outer loop
      vertex   -7.348787e+01 -1.823961e+01 4.819636e+01
      vertex   -6.947102e+01 -1.823961e+01 3.325432e+01
      vertex   -7.348787e+01 -1.823961e+01 3.325432e+01
    endloop
  endfacet
  facet normal 0.000000e+00 1.000000e+00 -0.000000e+00
    outer loop
      vertex   -6.947102e+01 -1.823961e+01 1.325432e+01
      vertex   -7.348787e+01 -1.823961e+01 1.325432e+01
      vertex   -6.947102e+01 -1.823961e+01 2.819636e+01
    endloop
  endfacet
  facet normal 0.000000e+00 1.000000e+00 0.000000e+00
    outer loop
      vertex   -6.947102e+01 -1.823961e+01 2.819636e+01
      vertex   -7.348787e+01 -1.823961e+01 1.325432e+01
      vertex   -7.348787e+01 -1.823961e+01 2.819636e+01
    endloop
  endfacet
  facet normal 0.000000e+00 1.000000e+00 0.000000e+00
    outer loop
      vertex   -5.854583e+01 -1.823961e+01 4.819636e+01
      vertex   -5.854583e+01 -1.823961e+01 3.325432e+01
      vertex   -6.170484e+01 -1.823961e+01 3.325432e+01
    endloop
  endfacet
  facet normal -0.000000e+00 1.000000e+00 0.000000e+00
    outer loop
      vertex   -6.170484e+01 -1.823961e+01 2.819636e+01
      vertex   -5.854583e+01 -1.823961e+01 2.819636e+01
      vertex   -6.170484e+01 -1.823961e+01 1.325432e+01
    endloop
  endfacet
  facet normal 0.000000e+00 1.000000e+00 0.000000e+00
    outer loop
      vertex   -6.170484e+01 -1.823961e+01 1.325432e+01
      vertex   -5.854583e+01 -1.823961e+01 2.819636e+01
      vertex   -5.854583e+01 -1.823961e+01 1.325432e+01
    endloop
  endfacet
endsolid
