solid ASCII
  facet normal 0.000000e+00 1.000000e+00 0.000000e+00
    outer loop
      vertex   8.675000e+01 -1.400000e+01 -4.750000e+00
      vertex   8.275000e+01 -1.400000e+01 -7.250000e+00
      vertex   8.525000e+01 -1.400000e+01 -4.750000e+00
    endloop
  endfacet
  facet normal 0.000000e+00 1.000000e+00 0.000000e+00
    outer loop
      vertex   8.525000e+01 -1.400000e+01 -4.750000e+00
      vertex   8.275000e+01 -1.400000e+01 -7.250000e+00
      vertex   8.200000e+01 -1.400000e+01 -4.000000e+00
    endloop
  endfacet
  facet normal 0.000000e+00 1.000000e+00 -0.000000e+00
    outer loop
      vertex   8.525000e+01 -1.400000e+01 -4.750000e+00
      vertex   8.200000e+01 -1.400000e+01 -4.000000e+00
      vertex   8.525000e+01 -1.400000e+01 -3.250000e+00
    endloop
  endfacet
  facet normal 0.000000e+00 1.000000e+00 -0.000000e+00
    outer loop
      vertex   8.525000e+01 -1.400000e+01 -3.250000e+00
      vertex   8.200000e+01 -1.400000e+01 -4.000000e+00
      vertex   8.525000e+01 -1.400000e+01 -7.500000e-01
    endloop
  endfacet
  facet normal 0.000000e+00 1.000000e+00 0.000000e+00
    outer loop
      vertex   8.525000e+01 -1.400000e+01 -3.250000e+00
      vertex   8.525000e+01 -1.400000e+01 -7.500000e-01
      vertex   8.675000e+01 -1.400000e+01 -3.250000e+00
    endloop
  endfacet
  facet normal 0.000000e+00 1.000000e+00 -0.000000e+00
    outer loop
      vertex   8.675000e+01 -1.400000e+01 -3.250000e+00
      vertex   8.525000e+01 -1.400000e+01 -7.500000e-01
      vertex   8.675000e+01 -1.400000e+01 -7.500000e-01
    endloop
  endfacet
  facet normal -0.000000e+00 1.000000e+00 0.000000e+00
    outer loop
      vertex   8.675000e+01 -1.400000e+01 -3.250000e+00
      vertex   8.675000e+01 -1.400000e+01 -7.500000e-01
      vertex   9.000000e+01 -1.400000e+01 -4.000000e+00
    endloop
  endfacet
  facet normal 0.000000e+00 1.000000e+00 -0.000000e+00
    outer loop
      vertex   9.000000e+01 -1.400000e+01 -4.000000e+00
      vertex   8.675000e+01 -1.400000e+01 -7.500000e-01
      vertex   9.325000e+01 -1.400000e+01 -7.500000e-01
    endloop
  endfacet
  facet normal 0.000000e+00 1.000000e+00 0.000000e+00
    outer loop
      vertex   9.000000e+01 -1.400000e+01 -4.000000e+00
      vertex   9.325000e+01 -1.400000e+01 -7.500000e-01
      vertex   9.400000e+01 -1.400000e+01 -4.000000e+00
    endloop
  endfacet
  facet normal 0.000000e+00 1.000000e+00 -0.000000e+00
    outer loop
      vertex   9.400000e+01 -1.400000e+01 -4.000000e+00
      vertex   9.325000e+01 -1.400000e+01 -7.500000e-01
      vertex   9.400000e+01 -1.400000e+01 -7.500000e-01
    endloop
  endfacet
  facet normal 0.000000e+00 1.000000e+00 0.000000e+00
    outer loop
      vertex   8.675000e+01 -1.400000e+01 -3.250000e+00
      vertex   9.000000e+01 -1.400000e+01 -4.000000e+00
      vertex   8.675000e+01 -1.400000e+01 -4.750000e+00
    endloop
  endfacet
  facet normal -0.000000e+00 1.000000e+00 0.000000e+00
    outer loop
      vertex   8.675000e+01 -1.400000e+01 -4.750000e+00
      vertex   9.000000e+01 -1.400000e+01 -4.000000e+00
      vertex   8.925000e+01 -1.400000e+01 -7.250000e+00
    endloop
  endfacet
  facet normal 0.000000e+00 1.000000e+00 0.000000e+00
    outer loop
      vertex   8.675000e+01 -1.400000e+01 -4.750000e+00
      vertex   8.925000e+01 -1.400000e+01 -7.250000e+00
      vertex   8.275000e+01 -1.400000e+01 -7.250000e+00
    endloop
  endfacet
  facet normal -0.000000e+00 1.000000e+00 0.000000e+00
    outer loop
      vertex   8.275000e+01 -1.400000e+01 -7.250000e+00
      vertex   8.925000e+01 -1.400000e+01 -7.250000e+00
      vertex   8.275000e+01 -1.400000e+01 -8.750000e+00
    endloop
  endfacet
  facet normal 0.000000e+00 1.000000e+00 0.000000e+00
    outer loop
      vertex   8.275000e+01 -1.400000e+01 -8.750000e+00
      vertex   8.925000e+01 -1.400000e+01 -7.250000e+00
      vertex   8.925000e+01 -1.400000e+01 -8.750000e+00
    endloop
  endfacet
  facet normal -0.000000e+00 1.000000e+00 0.000000e+00
    outer loop
      vertex   8.275000e+01 -1.400000e+01 -8.750000e+00
      vertex   8.925000e+01 -1.400000e+01 -8.750000e+00
      vertex   8.525000e+01 -1.400000e+01 -1.125000e+01
    endloop
  endfacet
  facet normal 0.000000e+00 1.000000e+00 0.000000e+00
    outer loop
      vertex   8.525000e+01 -1.400000e+01 -1.125000e+01
      vertex   8.925000e+01 -1.400000e+01 -8.750000e+00
      vertex   8.675000e+01 -1.400000e+01 -1.125000e+01
    endloop
  endfacet
  facet normal -0.000000e+00 1.000000e+00 0.000000e+00
    outer loop
      vertex   8.675000e+01 -1.400000e+01 -1.125000e+01
      vertex   8.925000e+01 -1.400000e+01 -8.750000e+00
      vertex   9.000000e+01 -1.400000e+01 -1.200000e+01
    endloop
  endfacet
  facet normal 0.000000e+00 1.000000e+00 0.000000e+00
    outer loop
      vertex   8.675000e+01 -1.400000e+01 -1.125000e+01
      vertex   9.000000e+01 -1.400000e+01 -1.200000e+01
      vertex   8.675000e+01 -1.400000e+01 -1.200000e+01
    endloop
  endfacet
  facet normal -0.000000e+00 1.000000e+00 0.000000e+00
    outer loop
      vertex   8.925000e+01 -1.400000e+01 -8.750000e+00
      vertex   9.000000e+01 -1.400000e+01 -8.750000e+00
      vertex   9.000000e+01 -1.400000e+01 -1.200000e+01
    endloop
  endfacet
  facet normal 0.000000e+00 1.000000e+00 -0.000000e+00
    outer loop
      vertex   8.525000e+01 -1.400000e+01 -1.200000e+01
      vertex   8.200000e+01 -1.400000e+01 -1.200000e+01
      vertex   8.525000e+01 -1.400000e+01 -1.125000e+01
    endloop
  endfacet
  facet normal 0.000000e+00 1.000000e+00 0.000000e+00
    outer loop
      vertex   8.525000e+01 -1.400000e+01 -1.125000e+01
      vertex   8.200000e+01 -1.400000e+01 -1.200000e+01
      vertex   8.275000e+01 -1.400000e+01 -8.750000e+00
    endloop
  endfacet
  facet normal 0.000000e+00 1.000000e+00 0.000000e+00
    outer loop
      vertex   8.200000e+01 -1.400000e+01 -1.200000e+01
      vertex   8.200000e+01 -1.400000e+01 -8.750000e+00
      vertex   8.275000e+01 -1.400000e+01 -8.750000e+00
    endloop
  endfacet
  facet normal 0.000000e+00 1.000000e+00 0.000000e+00
    outer loop
      vertex   8.275000e+01 -1.400000e+01 -7.250000e+00
      vertex   8.200000e+01 -1.400000e+01 -7.250000e+00
      vertex   8.200000e+01 -1.400000e+01 -4.000000e+00
    endloop
  endfacet
  facet normal 0.000000e+00 1.000000e+00 0.000000e+00
    outer loop
      vertex   8.525000e+01 -1.400000e+01 -7.500000e-01
      vertex   8.200000e+01 -1.400000e+01 -4.000000e+00
      vertex   7.875000e+01 -1.400000e+01 -7.500000e-01
    endloop
  endfacet
  facet normal 0.000000e+00 1.000000e+00 0.000000e+00
    outer loop
      vertex   7.875000e+01 -1.400000e+01 -7.500000e-01
      vertex   8.200000e+01 -1.400000e+01 -4.000000e+00
      vertex   7.800000e+01 -1.400000e+01 -4.000000e+00
    endloop
  endfacet
  facet normal 0.000000e+00 1.000000e+00 0.000000e+00
    outer loop
      vertex   7.875000e+01 -1.400000e+01 -7.500000e-01
      vertex   7.800000e+01 -1.400000e+01 -4.000000e+00
      vertex   7.800000e+01 -1.400000e+01 -7.500000e-01
    endloop
  endfacet
  facet normal 0.000000e+00 1.000000e+00 -0.000000e+00
    outer loop
      vertex   8.525000e+01 -1.400000e+01 -7.500000e-01
      vertex   7.875000e+01 -1.400000e+01 -7.500000e-01
      vertex   8.525000e+01 -1.400000e+01 7.500000e-01
    endloop
  endfacet
  facet normal 0.000000e+00 1.000000e+00 0.000000e+00
    outer loop
      vertex   8.525000e+01 -1.400000e+01 7.500000e-01
      vertex   7.875000e+01 -1.400000e+01 -7.500000e-01
      vertex   7.875000e+01 -1.400000e+01 7.500000e-01
    endloop
  endfacet
  facet normal 0.000000e+00 1.000000e+00 0.000000e+00
    outer loop
      vertex   8.525000e+01 -1.400000e+01 7.500000e-01
      vertex   7.875000e+01 -1.400000e+01 7.500000e-01
      vertex   8.225000e+01 -1.400000e+01 3.250000e+00
    endloop
  endfacet
  facet normal 0.000000e+00 1.000000e+00 0.000000e+00
    outer loop
      vertex   8.225000e+01 -1.400000e+01 3.250000e+00
      vertex   7.875000e+01 -1.400000e+01 7.500000e-01
      vertex   8.075000e+01 -1.400000e+01 3.250000e+00
    endloop
  endfacet
  facet normal 0.000000e+00 1.000000e+00 0.000000e+00
    outer loop
      vertex   8.075000e+01 -1.400000e+01 3.250000e+00
      vertex   7.875000e+01 -1.400000e+01 7.500000e-01
      vertex   7.800000e+01 -1.400000e+01 4.000000e+00
    endloop
  endfacet
  facet normal 0.000000e+00 1.000000e+00 -0.000000e+00
    outer loop
      vertex   8.075000e+01 -1.400000e+01 3.250000e+00
      vertex   7.800000e+01 -1.400000e+01 4.000000e+00
      vertex   8.075000e+01 -1.400000e+01 4.000000e+00
    endloop
  endfacet
  facet normal 0.000000e+00 1.000000e+00 0.000000e+00
    outer loop
      vertex   7.875000e+01 -1.400000e+01 7.500000e-01
      vertex   7.800000e+01 -1.400000e+01 7.500000e-01
      vertex   7.800000e+01 -1.400000e+01 4.000000e+00
    endloop
  endfacet
  facet normal -0.000000e+00 1.000000e+00 0.000000e+00
    outer loop
      vertex   8.225000e+01 -1.400000e+01 3.250000e+00
      vertex   8.225000e+01 -1.400000e+01 4.000000e+00
      vertex   8.525000e+01 -1.400000e+01 7.500000e-01
    endloop
  endfacet
  facet normal 0.000000e+00 1.000000e+00 -0.000000e+00
    outer loop
      vertex   8.525000e+01 -1.400000e+01 7.500000e-01
      vertex   8.225000e+01 -1.400000e+01 4.000000e+00
      vertex   8.925000e+01 -1.400000e+01 4.000000e+00
    endloop
  endfacet
  facet normal 0.000000e+00 1.000000e+00 0.000000e+00
    outer loop
      vertex   8.525000e+01 -1.400000e+01 7.500000e-01
      vertex   8.925000e+01 -1.400000e+01 4.000000e+00
      vertex   8.675000e+01 -1.400000e+01 7.500000e-01
    endloop
  endfacet
  facet normal 0.000000e+00 1.000000e+00 0.000000e+00
    outer loop
      vertex   8.675000e+01 -1.400000e+01 7.500000e-01
      vertex   8.925000e+01 -1.400000e+01 4.000000e+00
      vertex   8.925000e+01 -1.400000e+01 3.250000e+00
    endloop
  endfacet
  facet normal 0.000000e+00 1.000000e+00 0.000000e+00
    outer loop
      vertex   8.675000e+01 -1.400000e+01 7.500000e-01
      vertex   8.925000e+01 -1.400000e+01 3.250000e+00
      vertex   9.075000e+01 -1.400000e+01 3.250000e+00
    endloop
  endfacet
  facet normal -0.000000e+00 1.000000e+00 0.000000e+00
    outer loop
      vertex   9.075000e+01 -1.400000e+01 4.000000e+00
      vertex   9.400000e+01 -1.400000e+01 4.000000e+00
      vertex   9.075000e+01 -1.400000e+01 3.250000e+00
    endloop
  endfacet
  facet normal -0.000000e+00 1.000000e+00 0.000000e+00
    outer loop
      vertex   9.075000e+01 -1.400000e+01 3.250000e+00
      vertex   9.400000e+01 -1.400000e+01 4.000000e+00
      vertex   9.325000e+01 -1.400000e+01 7.500000e-01
    endloop
  endfacet
  facet normal 0.000000e+00 1.000000e+00 0.000000e+00
    outer loop
      vertex   9.075000e+01 -1.400000e+01 3.250000e+00
      vertex   9.325000e+01 -1.400000e+01 7.500000e-01
      vertex   8.675000e+01 -1.400000e+01 7.500000e-01
    endloop
  endfacet
  facet normal 0.000000e+00 1.000000e+00 0.000000e+00
    outer loop
      vertex   8.675000e+01 -1.400000e+01 7.500000e-01
      vertex   9.325000e+01 -1.400000e+01 7.500000e-01
      vertex   8.675000e+01 -1.400000e+01 -7.500000e-01
    endloop
  endfacet
  facet normal -0.000000e+00 1.000000e+00 0.000000e+00
    outer loop
      vertex   8.675000e+01 -1.400000e+01 -7.500000e-01
      vertex   9.325000e+01 -1.400000e+01 7.500000e-01
      vertex   9.325000e+01 -1.400000e+01 -7.500000e-01
    endloop
  endfacet
  facet normal 0.000000e+00 1.000000e+00 0.000000e+00
    outer loop
      vertex   9.400000e+01 -1.400000e+01 4.000000e+00
      vertex   9.400000e+01 -1.400000e+01 7.500000e-01
      vertex   9.325000e+01 -1.400000e+01 7.500000e-01
    endloop
  endfacet
  facet normal 0.000000e+00 1.000000e+00 0.000000e+00
    outer loop
      vertex   9.000000e+01 -1.400000e+01 -4.000000e+00
      vertex   9.000000e+01 -1.400000e+01 -7.250000e+00
      vertex   8.925000e+01 -1.400000e+01 -7.250000e+00
    endloop
  endfacet
  facet normal -8.881784e-17 -1.000000e+00 0.000000e+00
    outer loop
      vertex   9.600000e+01 -1.500000e+01 -1.400000e+01
      vertex   9.600000e+01 -1.500000e+01 6.000000e+00
      vertex   7.600000e+01 -1.500000e+01 -1.400000e+01
    endloop
  endfacet
  facet normal -8.881784e-17 -1.000000e+00 0.000000e+00
    outer loop
      vertex   7.600000e+01 -1.500000e+01 -1.400000e+01
      vertex   9.600000e+01 -1.500000e+01 6.000000e+00
      vertex   7.600000e+01 -1.500000e+01 6.000000e+00
    endloop
  endfacet
  facet normal 0.000000e+00 0.000000e+00 -1.000000e+00
    outer loop
      vertex   8.525000e+01 -4.000000e+00 -4.750000e+00
      vertex   8.675000e+01 -4.000000e+00 -4.750000e+00
      vertex   8.525000e+01 -1.400000e+01 -4.750000e+00
    endloop
  endfacet
  facet normal 0.000000e+00 0.000000e+00 -1.000000e+00
    outer loop
      vertex   8.525000e+01 -1.400000e+01 -4.750000e+00
      vertex   8.675000e+01 -4.000000e+00 -4.750000e+00
      vertex   8.675000e+01 -1.400000e+01 -4.750000e+00
    endloop
  endfacet
  facet normal -1.000000e+00 -0.000000e+00 -0.000000e+00
    outer loop
      vertex   8.525000e+01 -4.000000e+00 -3.250000e+00
      vertex   8.525000e+01 -4.000000e+00 -4.750000e+00
      vertex   8.525000e+01 -1.400000e+01 -3.250000e+00
    endloop
  endfacet
  facet normal -1.000000e+00 0.000000e+00 0.000000e+00
    outer loop
      vertex   8.525000e+01 -1.400000e+01 -3.250000e+00
      vertex   8.525000e+01 -4.000000e+00 -4.750000e+00
      vertex   8.525000e+01 -1.400000e+01 -4.750000e+00
    endloop
  endfacet
  facet normal 0.000000e+00 0.000000e+00 1.000000e+00
    outer loop
      vertex   8.675000e+01 -4.000000e+00 -3.250000e+00
      vertex   8.525000e+01 -4.000000e+00 -3.250000e+00
      vertex   8.675000e+01 -1.400000e+01 -3.250000e+00
    endloop
  endfacet
  facet normal 0.000000e+00 0.000000e+00 1.000000e+00
    outer loop
      vertex   8.675000e+01 -1.400000e+01 -3.250000e+00
      vertex   8.525000e+01 -4.000000e+00 -3.250000e+00
      vertex   8.525000e+01 -1.400000e+01 -3.250000e+00
    endloop
  endfacet
  facet normal 1.000000e+00 0.000000e+00 -0.000000e+00
    outer loop
      vertex   8.675000e+01 -4.000000e+00 -4.750000e+00
      vertex   8.675000e+01 -4.000000e+00 -3.250000e+00
      vertex   8.675000e+01 -1.400000e+01 -4.750000e+00
    endloop
  endfacet
  facet normal 1.000000e+00 0.000000e+00 0.000000e+00
    outer loop
      vertex   8.675000e+01 -1.400000e+01 -4.750000e+00
      vertex   8.675000e+01 -4.000000e+00 -3.250000e+00
      vertex   8.675000e+01 -1.400000e+01 -3.250000e+00
    endloop
  endfacet
  facet normal 0.000000e+00 1.000000e+00 -0.000000e+00
    outer loop
      vertex   8.675000e+01 -4.000000e+00 -4.750000e+00
      vertex   8.525000e+01 -4.000000e+00 -4.750000e+00
      vertex   8.675000e+01 -4.000000e+00 -3.250000e+00
    endloop
  endfacet
  facet normal 0.000000e+00 1.000000e+00 0.000000e+00
    outer loop
      vertex   8.675000e+01 -4.000000e+00 -3.250000e+00
      vertex   8.525000e+01 -4.000000e+00 -4.750000e+00
      vertex   8.525000e+01 -4.000000e+00 -3.250000e+00
    endloop
  endfacet
  facet normal 1.000000e+00 0.000000e+00 -0.000000e+00
    outer loop
      vertex   9.075000e+01 -4.000000e+00 3.250000e+00
      vertex   9.075000e+01 -4.000000e+00 4.000000e+00
      vertex   9.075000e+01 -1.400000e+01 3.250000e+00
    endloop
  endfacet
  facet normal 1.000000e+00 0.000000e+00 0.000000e+00
    outer loop
      vertex   9.075000e+01 -1.400000e+01 3.250000e+00
      vertex   9.075000e+01 -4.000000e+00 4.000000e+00
      vertex   9.075000e+01 -1.400000e+01 4.000000e+00
    endloop
  endfacet
  facet normal 0.000000e+00 0.000000e+00 -1.000000e+00
    outer loop
      vertex   8.925000e+01 -4.000000e+00 3.250000e+00
      vertex   9.075000e+01 -4.000000e+00 3.250000e+00
      vertex   8.925000e+01 -1.400000e+01 3.250000e+00
    endloop
  endfacet
  facet normal 0.000000e+00 0.000000e+00 -1.000000e+00
    outer loop
      vertex   8.925000e+01 -1.400000e+01 3.250000e+00
      vertex   9.075000e+01 -4.000000e+00 3.250000e+00
      vertex   9.075000e+01 -1.400000e+01 3.250000e+00
    endloop
  endfacet
  facet normal -1.000000e+00 -0.000000e+00 -0.000000e+00
    outer loop
      vertex   8.925000e+01 -4.000000e+00 4.000000e+00
      vertex   8.925000e+01 -4.000000e+00 3.250000e+00
      vertex   8.925000e+01 -1.400000e+01 4.000000e+00
    endloop
  endfacet
  facet normal -1.000000e+00 0.000000e+00 0.000000e+00
    outer loop
      vertex   8.925000e+01 -1.400000e+01 4.000000e+00
      vertex   8.925000e+01 -4.000000e+00 3.250000e+00
      vertex   8.925000e+01 -1.400000e+01 3.250000e+00
    endloop
  endfacet
  facet normal -0.000000e+00 1.000000e+00 0.000000e+00
    outer loop
      vertex   8.925000e+01 -4.000000e+00 4.000000e+00
      vertex   9.075000e+01 -4.000000e+00 4.000000e+00
      vertex   8.925000e+01 -4.000000e+00 3.250000e+00
    endloop
  endfacet
  facet normal 0.000000e+00 1.000000e+00 0.000000e+00
    outer loop
      vertex   8.925000e+01 -4.000000e+00 3.250000e+00
      vertex   9.075000e+01 -4.000000e+00 4.000000e+00
      vertex   9.075000e+01 -4.000000e+00 3.250000e+00
    endloop
  endfacet
  facet normal 1.184238e-15 0.000000e+00 -1.000000e+00
    outer loop
      vertex   8.300000e+01 -1.030915e+01 4.000000e+00
      vertex   8.225000e+01 -1.400000e+01 4.000000e+00
      vertex   8.300000e+01 -7.809148e+00 4.000000e+00
    endloop
  endfacet
  facet normal 1.184238e-15 0.000000e+00 -1.000000e+00
    outer loop
      vertex   8.300000e+01 -7.809148e+00 4.000000e+00
      vertex   8.225000e+01 -1.400000e+01 4.000000e+00
      vertex   8.225000e+01 -4.000000e+00 4.000000e+00
    endloop
  endfacet
  facet normal 0.000000e+00 -2.331698e-16 -1.000000e+00
    outer loop
      vertex   8.300000e+01 -7.809148e+00 4.000000e+00
      vertex   8.225000e+01 -4.000000e+00 4.000000e+00
      vertex   8.925000e+01 -4.000000e+00 4.000000e+00
    endloop
  endfacet
  facet normal 0.000000e+00 0.000000e+00 -1.000000e+00
    outer loop
      vertex   8.925000e+01 -4.000000e+00 4.000000e+00
      vertex   8.225000e+01 -4.000000e+00 4.000000e+00
      vertex   7.800000e+01 -1.000000e+00 4.000000e+00
    endloop
  endfacet
  facet normal 0.000000e+00 0.000000e+00 -1.000000e+00
    outer loop
      vertex   8.925000e+01 -4.000000e+00 4.000000e+00
      vertex   7.800000e+01 -1.000000e+00 4.000000e+00
      vertex   9.400000e+01 -1.000000e+00 4.000000e+00
    endloop
  endfacet
  facet normal 0.000000e+00 2.406432e-16 -1.000000e+00
    outer loop
      vertex   8.225000e+01 -1.400000e+01 4.000000e+00
      vertex   8.300000e+01 -1.030915e+01 4.000000e+00
      vertex   8.925000e+01 -1.400000e+01 4.000000e+00
    endloop
  endfacet
  facet normal -2.137341e-31 2.406432e-16 -1.000000e+00
    outer loop
      vertex   8.925000e+01 -1.400000e+01 4.000000e+00
      vertex   8.300000e+01 -1.030915e+01 4.000000e+00
      vertex   8.900000e+01 -1.030915e+01 4.000000e+00
    endloop
  endfacet
  facet normal -3.552713e-15 0.000000e+00 -1.000000e+00
    outer loop
      vertex   8.925000e+01 -1.400000e+01 4.000000e+00
      vertex   8.900000e+01 -1.030915e+01 4.000000e+00
      vertex   8.900000e+01 -7.809148e+00 4.000000e+00
    endloop
  endfacet
  facet normal -3.552713e-15 0.000000e+00 -1.000000e+00
    outer loop
      vertex   8.925000e+01 -1.400000e+01 4.000000e+00
      vertex   8.900000e+01 -7.809148e+00 4.000000e+00
      vertex   8.925000e+01 -4.000000e+00 4.000000e+00
    endloop
  endfacet
  facet normal 1.725803e-31 -2.331698e-16 -1.000000e+00
    outer loop
      vertex   8.925000e+01 -4.000000e+00 4.000000e+00
      vertex   8.900000e+01 -7.809148e+00 4.000000e+00
      vertex   8.300000e+01 -7.809148e+00 4.000000e+00
    endloop
  endfacet
  facet normal 0.000000e+00 0.000000e+00 -1.000000e+00
    outer loop
      vertex   9.075000e+01 -1.400000e+01 4.000000e+00
      vertex   9.075000e+01 -4.000000e+00 4.000000e+00
      vertex   9.400000e+01 -1.400000e+01 4.000000e+00
    endloop
  endfacet
  facet normal 0.000000e+00 0.000000e+00 -1.000000e+00
    outer loop
      vertex   9.400000e+01 -1.400000e+01 4.000000e+00
      vertex   9.075000e+01 -4.000000e+00 4.000000e+00
      vertex   9.400000e+01 -1.000000e+00 4.000000e+00
    endloop
  endfacet
  facet normal 0.000000e+00 0.000000e+00 -1.000000e+00
    outer loop
      vertex   9.400000e+01 -1.000000e+00 4.000000e+00
      vertex   9.075000e+01 -4.000000e+00 4.000000e+00
      vertex   8.925000e+01 -4.000000e+00 4.000000e+00
    endloop
  endfacet
  facet normal 0.000000e+00 0.000000e+00 -1.000000e+00
    outer loop
      vertex   8.225000e+01 -4.000000e+00 4.000000e+00
      vertex   8.075000e+01 -4.000000e+00 4.000000e+00
      vertex   7.800000e+01 -1.000000e+00 4.000000e+00
    endloop
  endfacet
  facet normal 0.000000e+00 0.000000e+00 -1.000000e+00
    outer loop
      vertex   7.800000e+01 -1.000000e+00 4.000000e+00
      vertex   8.075000e+01 -4.000000e+00 4.000000e+00
      vertex   7.800000e+01 -1.400000e+01 4.000000e+00
    endloop
  endfacet
  facet normal 0.000000e+00 0.000000e+00 -1.000000e+00
    outer loop
      vertex   7.800000e+01 -1.400000e+01 4.000000e+00
      vertex   8.075000e+01 -4.000000e+00 4.000000e+00
      vertex   8.075000e+01 -1.400000e+01 4.000000e+00
    endloop
  endfacet
  facet normal -1.000000e+00 -0.000000e+00 -0.000000e+00
    outer loop
      vertex   8.525000e+01 -4.000000e+00 -1.125000e+01
      vertex   8.525000e+01 -4.000000e+00 -1.200000e+01
      vertex   8.525000e+01 -1.400000e+01 -1.125000e+01
    endloop
  endfacet
  facet normal -1.000000e+00 0.000000e+00 0.000000e+00
    outer loop
      vertex   8.525000e+01 -1.400000e+01 -1.125000e+01
      vertex   8.525000e+01 -4.000000e+00 -1.200000e+01
      vertex   8.525000e+01 -1.400000e+01 -1.200000e+01
    endloop
  endfacet
  facet normal 0.000000e+00 0.000000e+00 1.000000e+00
    outer loop
      vertex   8.675000e+01 -4.000000e+00 -1.125000e+01
      vertex   8.525000e+01 -4.000000e+00 -1.125000e+01
      vertex   8.675000e+01 -1.400000e+01 -1.125000e+01
    endloop
  endfacet
  facet normal 0.000000e+00 0.000000e+00 1.000000e+00
    outer loop
      vertex   8.675000e+01 -1.400000e+01 -1.125000e+01
      vertex   8.525000e+01 -4.000000e+00 -1.125000e+01
      vertex   8.525000e+01 -1.400000e+01 -1.125000e+01
    endloop
  endfacet
  facet normal 1.000000e+00 0.000000e+00 -0.000000e+00
    outer loop
      vertex   8.675000e+01 -4.000000e+00 -1.200000e+01
      vertex   8.675000e+01 -4.000000e+00 -1.125000e+01
      vertex   8.675000e+01 -1.400000e+01 -1.200000e+01
    endloop
  endfacet
  facet normal 1.000000e+00 0.000000e+00 0.000000e+00
    outer loop
      vertex   8.675000e+01 -1.400000e+01 -1.200000e+01
      vertex   8.675000e+01 -4.000000e+00 -1.125000e+01
      vertex   8.675000e+01 -1.400000e+01 -1.125000e+01
    endloop
  endfacet
  facet normal 0.000000e+00 1.000000e+00 -0.000000e+00
    outer loop
      vertex   8.675000e+01 -4.000000e+00 -1.200000e+01
      vertex   8.525000e+01 -4.000000e+00 -1.200000e+01
      vertex   8.675000e+01 -4.000000e+00 -1.125000e+01
    endloop
  endfacet
  facet normal 0.000000e+00 1.000000e+00 0.000000e+00
    outer loop
      vertex   8.675000e+01 -4.000000e+00 -1.125000e+01
      vertex   8.525000e+01 -4.000000e+00 -1.200000e+01
      vertex   8.525000e+01 -4.000000e+00 -1.125000e+01
    endloop
  endfacet
  facet normal 0.000000e+00 -0.000000e+00 1.000000e+00
    outer loop
      vertex   8.525000e+01 -1.400000e+01 -1.200000e+01
      vertex   8.525000e+01 -4.000000e+00 -1.200000e+01
      vertex   8.200000e+01 -1.400000e+01 -1.200000e+01
    endloop
  endfacet
  facet normal 0.000000e+00 0.000000e+00 1.000000e+00
    outer loop
      vertex   8.200000e+01 -1.400000e+01 -1.200000e+01
      vertex   8.525000e+01 -4.000000e+00 -1.200000e+01
      vertex   8.200000e+01 -1.000000e+00 -1.200000e+01
    endloop
  endfacet
  facet normal 0.000000e+00 0.000000e+00 1.000000e+00
    outer loop
      vertex   8.200000e+01 -1.000000e+00 -1.200000e+01
      vertex   8.525000e+01 -4.000000e+00 -1.200000e+01
      vertex   8.675000e+01 -4.000000e+00 -1.200000e+01
    endloop
  endfacet
  facet normal -0.000000e+00 0.000000e+00 1.000000e+00
    outer loop
      vertex   8.200000e+01 -1.000000e+00 -1.200000e+01
      vertex   8.675000e+01 -4.000000e+00 -1.200000e+01
      vertex   9.000000e+01 -1.000000e+00 -1.200000e+01
    endloop
  endfacet
  facet normal 0.000000e+00 0.000000e+00 1.000000e+00
    outer loop
      vertex   9.000000e+01 -1.000000e+00 -1.200000e+01
      vertex   8.675000e+01 -4.000000e+00 -1.200000e+01
      vertex   9.000000e+01 -1.400000e+01 -1.200000e+01
    endloop
  endfacet
  facet normal 0.000000e+00 0.000000e+00 1.000000e+00
    outer loop
      vertex   9.000000e+01 -1.400000e+01 -1.200000e+01
      vertex   8.675000e+01 -4.000000e+00 -1.200000e+01
      vertex   8.675000e+01 -1.400000e+01 -1.200000e+01
    endloop
  endfacet
  facet normal -1.000000e+00 -0.000000e+00 -0.000000e+00
    outer loop
      vertex   8.075000e+01 -4.000000e+00 4.000000e+00
      vertex   8.075000e+01 -4.000000e+00 3.250000e+00
      vertex   8.075000e+01 -1.400000e+01 4.000000e+00
    endloop
  endfacet
  facet normal -1.000000e+00 0.000000e+00 0.000000e+00
    outer loop
      vertex   8.075000e+01 -1.400000e+01 4.000000e+00
      vertex   8.075000e+01 -4.000000e+00 3.250000e+00
      vertex   8.075000e+01 -1.400000e+01 3.250000e+00
    endloop
  endfacet
  facet normal 1.000000e+00 0.000000e+00 -0.000000e+00
    outer loop
      vertex   8.225000e+01 -4.000000e+00 3.250000e+00
      vertex   8.225000e+01 -4.000000e+00 4.000000e+00
      vertex   8.225000e+01 -1.400000e+01 3.250000e+00
    endloop
  endfacet
  facet normal 1.000000e+00 0.000000e+00 0.000000e+00
    outer loop
      vertex   8.225000e+01 -1.400000e+01 3.250000e+00
      vertex   8.225000e+01 -4.000000e+00 4.000000e+00
      vertex   8.225000e+01 -1.400000e+01 4.000000e+00
    endloop
  endfacet
  facet normal 0.000000e+00 0.000000e+00 -1.000000e+00
    outer loop
      vertex   8.075000e+01 -4.000000e+00 3.250000e+00
      vertex   8.225000e+01 -4.000000e+00 3.250000e+00
      vertex   8.075000e+01 -1.400000e+01 3.250000e+00
    endloop
  endfacet
  facet normal 0.000000e+00 0.000000e+00 -1.000000e+00
    outer loop
      vertex   8.075000e+01 -1.400000e+01 3.250000e+00
      vertex   8.225000e+01 -4.000000e+00 3.250000e+00
      vertex   8.225000e+01 -1.400000e+01 3.250000e+00
    endloop
  endfacet
  facet normal 0.000000e+00 1.000000e+00 -0.000000e+00
    outer loop
      vertex   8.225000e+01 -4.000000e+00 3.250000e+00
      vertex   8.075000e+01 -4.000000e+00 3.250000e+00
      vertex   8.225000e+01 -4.000000e+00 4.000000e+00
    endloop
  endfacet
  facet normal 0.000000e+00 1.000000e+00 0.000000e+00
    outer loop
      vertex   8.225000e+01 -4.000000e+00 4.000000e+00
      vertex   8.075000e+01 -4.000000e+00 3.250000e+00
      vertex   8.075000e+01 -4.000000e+00 4.000000e+00
    endloop
  endfacet
  facet normal -1.000000e+00 0.000000e+00 0.000000e+00
    outer loop
      vertex   9.400000e+01 -1.400000e+01 -7.500000e-01
      vertex   9.400000e+01 -4.000000e+00 -7.500000e-01
      vertex   9.400000e+01 -1.400000e+01 -4.000000e+00
    endloop
  endfacet
  facet normal -1.000000e+00 0.000000e+00 0.000000e+00
    outer loop
      vertex   9.400000e+01 -1.400000e+01 -4.000000e+00
      vertex   9.400000e+01 -4.000000e+00 -7.500000e-01
      vertex   9.400000e+01 -1.000000e+00 -4.000000e+00
    endloop
  endfacet
  facet normal -1.000000e+00 0.000000e+00 0.000000e+00
    outer loop
      vertex   9.400000e+01 -1.000000e+00 -4.000000e+00
      vertex   9.400000e+01 -4.000000e+00 -7.500000e-01
      vertex   9.400000e+01 -4.000000e+00 7.500000e-01
    endloop
  endfacet
  facet normal -1.000000e+00 0.000000e+00 0.000000e+00
    outer loop
      vertex   9.400000e+01 -1.000000e+00 -4.000000e+00
      vertex   9.400000e+01 -4.000000e+00 7.500000e-01
      vertex   9.400000e+01 -1.000000e+00 4.000000e+00
    endloop
  endfacet
  facet normal -1.000000e+00 -0.000000e+00 0.000000e+00
    outer loop
      vertex   9.400000e+01 -1.000000e+00 4.000000e+00
      vertex   9.400000e+01 -4.000000e+00 7.500000e-01
      vertex   9.400000e+01 -1.400000e+01 4.000000e+00
    endloop
  endfacet
  facet normal -1.000000e+00 0.000000e+00 0.000000e+00
    outer loop
      vertex   9.400000e+01 -1.400000e+01 4.000000e+00
      vertex   9.400000e+01 -4.000000e+00 7.500000e-01
      vertex   9.400000e+01 -1.400000e+01 7.500000e-01
    endloop
  endfacet
  facet normal 1.000000e+00 0.000000e+00 0.000000e+00
    outer loop
      vertex   7.800000e+01 -1.400000e+01 7.500000e-01
      vertex   7.800000e+01 -4.000000e+00 7.500000e-01
      vertex   7.800000e+01 -1.400000e+01 4.000000e+00
    endloop
  endfacet
  facet normal 1.000000e+00 -0.000000e+00 0.000000e+00
    outer loop
      vertex   7.800000e+01 -1.400000e+01 4.000000e+00
      vertex   7.800000e+01 -4.000000e+00 7.500000e-01
      vertex   7.800000e+01 -1.000000e+00 4.000000e+00
    endloop
  endfacet
  facet normal 1.000000e+00 0.000000e+00 0.000000e+00
    outer loop
      vertex   7.800000e+01 -1.000000e+00 4.000000e+00
      vertex   7.800000e+01 -4.000000e+00 7.500000e-01
      vertex   7.800000e+01 -1.000000e+00 -4.000000e+00
    endloop
  endfacet
  facet normal 1.000000e+00 0.000000e+00 0.000000e+00
    outer loop
      vertex   7.800000e+01 -1.000000e+00 -4.000000e+00
      vertex   7.800000e+01 -4.000000e+00 7.500000e-01
      vertex   7.800000e+01 -4.000000e+00 -7.500000e-01
    endloop
  endfacet
  facet normal 1.000000e+00 0.000000e+00 0.000000e+00
    outer loop
      vertex   7.800000e+01 -1.000000e+00 -4.000000e+00
      vertex   7.800000e+01 -4.000000e+00 -7.500000e-01
      vertex   7.800000e+01 -1.400000e+01 -4.000000e+00
    endloop
  endfacet
  facet normal 1.000000e+00 0.000000e+00 0.000000e+00
    outer loop
      vertex   7.800000e+01 -1.400000e+01 -4.000000e+00
      vertex   7.800000e+01 -4.000000e+00 -7.500000e-01
      vertex   7.800000e+01 -1.400000e+01 -7.500000e-01
    endloop
  endfacet
  facet normal -1.000000e+00 0.000000e+00 0.000000e+00
    outer loop
      vertex   8.900000e+01 -1.030915e+01 6.000000e+00
      vertex   8.900000e+01 -7.809148e+00 6.000000e+00
      vertex   8.900000e+01 -1.030915e+01 4.000000e+00
    endloop
  endfacet
  facet normal -1.000000e+00 0.000000e+00 0.000000e+00
    outer loop
      vertex   8.900000e+01 -1.030915e+01 4.000000e+00
      vertex   8.900000e+01 -7.809148e+00 6.000000e+00
      vertex   8.900000e+01 -7.809148e+00 4.000000e+00
    endloop
  endfacet
  facet normal -8.881784e-16 1.000000e+00 0.000000e+00
    outer loop
      vertex   8.300000e+01 -1.030915e+01 6.000000e+00
      vertex   8.900000e+01 -1.030915e+01 6.000000e+00
      vertex   8.300000e+01 -1.030915e+01 4.000000e+00
    endloop
  endfacet
  facet normal -8.881784e-16 1.000000e+00 0.000000e+00
    outer loop
      vertex   8.300000e+01 -1.030915e+01 4.000000e+00
      vertex   8.900000e+01 -1.030915e+01 6.000000e+00
      vertex   8.900000e+01 -1.030915e+01 4.000000e+00
    endloop
  endfacet
  facet normal 1.000000e+00 0.000000e+00 0.000000e+00
    outer loop
      vertex   8.300000e+01 -7.809148e+00 6.000000e+00
      vertex   8.300000e+01 -1.030915e+01 6.000000e+00
      vertex   8.300000e+01 -7.809148e+00 4.000000e+00
    endloop
  endfacet
  facet normal 1.000000e+00 0.000000e+00 0.000000e+00
    outer loop
      vertex   8.300000e+01 -7.809148e+00 4.000000e+00
      vertex   8.300000e+01 -1.030915e+01 6.000000e+00
      vertex   8.300000e+01 -1.030915e+01 4.000000e+00
    endloop
  endfacet
  facet normal 7.401487e-16 -1.000000e+00 0.000000e+00
    outer loop
      vertex   8.900000e+01 -7.809148e+00 6.000000e+00
      vertex   8.300000e+01 -7.809148e+00 6.000000e+00
      vertex   8.900000e+01 -7.809148e+00 4.000000e+00
    endloop
  endfacet
  facet normal 7.401487e-16 -1.000000e+00 0.000000e+00
    outer loop
      vertex   8.900000e+01 -7.809148e+00 4.000000e+00
      vertex   8.300000e+01 -7.809148e+00 6.000000e+00
      vertex   8.300000e+01 -7.809148e+00 4.000000e+00
    endloop
  endfacet
  facet normal 0.000000e+00 1.000000e+00 0.000000e+00
    outer loop
      vertex   8.200000e+01 -1.000000e+00 -4.000000e+00
      vertex   8.200000e+01 -1.000000e+00 -1.200000e+01
      vertex   7.800000e+01 -1.000000e+00 -4.000000e+00
    endloop
  endfacet
  facet normal 0.000000e+00 1.000000e+00 0.000000e+00
    outer loop
      vertex   7.800000e+01 -1.000000e+00 -4.000000e+00
      vertex   8.200000e+01 -1.000000e+00 -1.200000e+01
      vertex   7.600000e+01 -1.000000e+00 -1.400000e+01
    endloop
  endfacet
  facet normal 0.000000e+00 1.000000e+00 0.000000e+00
    outer loop
      vertex   7.800000e+01 -1.000000e+00 -4.000000e+00
      vertex   7.600000e+01 -1.000000e+00 -1.400000e+01
      vertex   7.600000e+01 -1.000000e+00 6.000000e+00
    endloop
  endfacet
  facet normal -0.000000e+00 1.000000e+00 0.000000e+00
    outer loop
      vertex   8.200000e+01 -1.000000e+00 -1.200000e+01
      vertex   9.000000e+01 -1.000000e+00 -1.200000e+01
      vertex   7.600000e+01 -1.000000e+00 -1.400000e+01
    endloop
  endfacet
  facet normal 0.000000e+00 1.000000e+00 0.000000e+00
    outer loop
      vertex   7.600000e+01 -1.000000e+00 -1.400000e+01
      vertex   9.000000e+01 -1.000000e+00 -1.200000e+01
      vertex   9.600000e+01 -1.000000e+00 -1.400000e+01
    endloop
  endfacet
  facet normal 0.000000e+00 1.000000e+00 0.000000e+00
    outer loop
      vertex   9.600000e+01 -1.000000e+00 -1.400000e+01
      vertex   9.000000e+01 -1.000000e+00 -1.200000e+01
      vertex   9.400000e+01 -1.000000e+00 -4.000000e+00
    endloop
  endfacet
  facet normal 0.000000e+00 1.000000e+00 -0.000000e+00
    outer loop
      vertex   9.600000e+01 -1.000000e+00 -1.400000e+01
      vertex   9.400000e+01 -1.000000e+00 -4.000000e+00
      vertex   9.600000e+01 -1.000000e+00 6.000000e+00
    endloop
  endfacet
  facet normal 0.000000e+00 1.000000e+00 0.000000e+00
    outer loop
      vertex   9.600000e+01 -1.000000e+00 6.000000e+00
      vertex   9.400000e+01 -1.000000e+00 -4.000000e+00
      vertex   9.400000e+01 -1.000000e+00 4.000000e+00
    endloop
  endfacet
  facet normal 0.000000e+00 1.000000e+00 0.000000e+00
    outer loop
      vertex   9.600000e+01 -1.000000e+00 6.000000e+00
      vertex   9.400000e+01 -1.000000e+00 4.000000e+00
      vertex   7.600000e+01 -1.000000e+00 6.000000e+00
    endloop
  endfacet
  facet normal 0.000000e+00 1.000000e+00 0.000000e+00
    outer loop
      vertex   7.600000e+01 -1.000000e+00 6.000000e+00
      vertex   9.400000e+01 -1.000000e+00 4.000000e+00
      vertex   7.800000e+01 -1.000000e+00 4.000000e+00
    endloop
  endfacet
  facet normal 0.000000e+00 1.000000e+00 0.000000e+00
    outer loop
      vertex   7.600000e+01 -1.000000e+00 6.000000e+00
      vertex   7.800000e+01 -1.000000e+00 4.000000e+00
      vertex   7.800000e+01 -1.000000e+00 -4.000000e+00
    endloop
  endfacet
  facet normal 0.000000e+00 1.000000e+00 0.000000e+00
    outer loop
      vertex   9.000000e+01 -1.000000e+00 -1.200000e+01
      vertex   9.000000e+01 -1.000000e+00 -4.000000e+00
      vertex   9.400000e+01 -1.000000e+00 -4.000000e+00
    endloop
  endfacet
  facet normal -1.000000e+00 0.000000e+00 0.000000e+00
    outer loop
      vertex   9.000000e+01 -1.400000e+01 -7.250000e+00
      vertex   9.000000e+01 -1.400000e+01 -4.000000e+00
      vertex   9.000000e+01 -4.000000e+00 -7.250000e+00
    endloop
  endfacet
  facet normal -1.000000e+00 0.000000e+00 0.000000e+00
    outer loop
      vertex   9.000000e+01 -4.000000e+00 -7.250000e+00
      vertex   9.000000e+01 -1.400000e+01 -4.000000e+00
      vertex   9.000000e+01 -1.000000e+00 -4.000000e+00
    endloop
  endfacet
  facet normal -1.000000e+00 0.000000e+00 0.000000e+00
    outer loop
      vertex   9.000000e+01 -4.000000e+00 -7.250000e+00
      vertex   9.000000e+01 -1.000000e+00 -4.000000e+00
      vertex   9.000000e+01 -1.000000e+00 -1.200000e+01
    endloop
  endfacet
  facet normal -1.000000e+00 0.000000e+00 0.000000e+00
    outer loop
      vertex   9.000000e+01 -4.000000e+00 -7.250000e+00
      vertex   9.000000e+01 -1.000000e+00 -1.200000e+01
      vertex   9.000000e+01 -4.000000e+00 -8.750000e+00
    endloop
  endfacet
  facet normal -1.000000e+00 0.000000e+00 -0.000000e+00
    outer loop
      vertex   9.000000e+01 -4.000000e+00 -8.750000e+00
      vertex   9.000000e+01 -1.000000e+00 -1.200000e+01
      vertex   9.000000e+01 -1.400000e+01 -1.200000e+01
    endloop
  endfacet
  facet normal -1.000000e+00 -0.000000e+00 0.000000e+00
    outer loop
      vertex   9.000000e+01 -4.000000e+00 -8.750000e+00
      vertex   9.000000e+01 -1.400000e+01 -1.200000e+01
      vertex   9.000000e+01 -1.400000e+01 -8.750000e+00
    endloop
  endfacet
  facet normal 0.000000e+00 0.000000e+00 1.000000e+00
    outer loop
      vertex   9.000000e+01 -1.400000e+01 -4.000000e+00
      vertex   9.400000e+01 -1.400000e+01 -4.000000e+00
      vertex   9.000000e+01 -1.000000e+00 -4.000000e+00
    endloop
  endfacet
  facet normal -0.000000e+00 0.000000e+00 1.000000e+00
    outer loop
      vertex   9.000000e+01 -1.000000e+00 -4.000000e+00
      vertex   9.400000e+01 -1.400000e+01 -4.000000e+00
      vertex   9.400000e+01 -1.000000e+00 -4.000000e+00
    endloop
  endfacet
  facet normal 0.000000e+00 0.000000e+00 1.000000e+00
    outer loop
      vertex   7.800000e+01 -1.400000e+01 -4.000000e+00
      vertex   8.200000e+01 -1.400000e+01 -4.000000e+00
      vertex   7.800000e+01 -1.000000e+00 -4.000000e+00
    endloop
  endfacet
  facet normal -0.000000e+00 0.000000e+00 1.000000e+00
    outer loop
      vertex   7.800000e+01 -1.000000e+00 -4.000000e+00
      vertex   8.200000e+01 -1.400000e+01 -4.000000e+00
      vertex   8.200000e+01 -1.000000e+00 -4.000000e+00
    endloop
  endfacet
  facet normal 1.000000e+00 -0.000000e+00 0.000000e+00
    outer loop
      vertex   8.200000e+01 -1.400000e+01 -8.750000e+00
      vertex   8.200000e+01 -1.400000e+01 -1.200000e+01
      vertex   8.200000e+01 -4.000000e+00 -8.750000e+00
    endloop
  endfacet
  facet normal 1.000000e+00 0.000000e+00 0.000000e+00
    outer loop
      vertex   8.200000e+01 -4.000000e+00 -8.750000e+00
      vertex   8.200000e+01 -1.400000e+01 -1.200000e+01
      vertex   8.200000e+01 -1.000000e+00 -1.200000e+01
    endloop
  endfacet
  facet normal 1.000000e+00 -0.000000e+00 0.000000e+00
    outer loop
      vertex   8.200000e+01 -4.000000e+00 -8.750000e+00
      vertex   8.200000e+01 -1.000000e+00 -1.200000e+01
      vertex   8.200000e+01 -1.000000e+00 -4.000000e+00
    endloop
  endfacet
  facet normal 1.000000e+00 0.000000e+00 0.000000e+00
    outer loop
      vertex   8.200000e+01 -4.000000e+00 -8.750000e+00
      vertex   8.200000e+01 -1.000000e+00 -4.000000e+00
      vertex   8.200000e+01 -4.000000e+00 -7.250000e+00
    endloop
  endfacet
  facet normal 1.000000e+00 0.000000e+00 -0.000000e+00
    outer loop
      vertex   8.200000e+01 -4.000000e+00 -7.250000e+00
      vertex   8.200000e+01 -1.000000e+00 -4.000000e+00
      vertex   8.200000e+01 -1.400000e+01 -4.000000e+00
    endloop
  endfacet
  facet normal 1.000000e+00 0.000000e+00 0.000000e+00
    outer loop
      vertex   8.200000e+01 -4.000000e+00 -7.250000e+00
      vertex   8.200000e+01 -1.400000e+01 -4.000000e+00
      vertex   8.200000e+01 -1.400000e+01 -7.250000e+00
    endloop
  endfacet
  facet normal 2.537653e-16 0.000000e+00 1.000000e+00
    outer loop
      vertex   8.300000e+01 -7.809148e+00 6.000000e+00
      vertex   7.600000e+01 -1.500000e+01 6.000000e+00
      vertex   8.300000e+01 -1.030915e+01 6.000000e+00
    endloop
  endfacet
  facet normal 3.363401e-32 3.786853e-16 1.000000e+00
    outer loop
      vertex   8.300000e+01 -1.030915e+01 6.000000e+00
      vertex   7.600000e+01 -1.500000e+01 6.000000e+00
      vertex   9.600000e+01 -1.500000e+01 6.000000e+00
    endloop
  endfacet
  facet normal -3.363402e-31 3.786853e-16 1.000000e+00
    outer loop
      vertex   8.300000e+01 -1.030915e+01 6.000000e+00
      vertex   9.600000e+01 -1.500000e+01 6.000000e+00
      vertex   8.900000e+01 -1.030915e+01 6.000000e+00
    endloop
  endfacet
  facet normal -2.537653e-16 0.000000e+00 1.000000e+00
    outer loop
      vertex   8.900000e+01 -1.030915e+01 6.000000e+00
      vertex   9.600000e+01 -1.500000e+01 6.000000e+00
      vertex   8.900000e+01 -7.809148e+00 6.000000e+00
    endloop
  endfacet
  facet normal -1.234232e-16 1.268826e-16 1.000000e+00
    outer loop
      vertex   8.900000e+01 -7.809148e+00 6.000000e+00
      vertex   9.600000e+01 -1.500000e+01 6.000000e+00
      vertex   9.600000e+01 -1.000000e+00 6.000000e+00
    endloop
  endfacet
  facet normal 0.000000e+00 -0.000000e+00 1.000000e+00
    outer loop
      vertex   8.900000e+01 -7.809148e+00 6.000000e+00
      vertex   9.600000e+01 -1.000000e+00 6.000000e+00
      vertex   7.600000e+01 -1.000000e+00 6.000000e+00
    endloop
  endfacet
  facet normal 1.234232e-16 1.268826e-16 1.000000e+00
    outer loop
      vertex   7.600000e+01 -1.500000e+01 6.000000e+00
      vertex   8.300000e+01 -7.809148e+00 6.000000e+00
      vertex   7.600000e+01 -1.000000e+00 6.000000e+00
    endloop
  endfacet
  facet normal 0.000000e+00 0.000000e+00 1.000000e+00
    outer loop
      vertex   7.600000e+01 -1.000000e+00 6.000000e+00
      vertex   8.300000e+01 -7.809148e+00 6.000000e+00
      vertex   8.900000e+01 -7.809148e+00 6.000000e+00
    endloop
  endfacet
  facet normal 1.000000e+00 1.015061e-15 0.000000e+00
    outer loop
      vertex   9.600000e+01 -1.500000e+01 6.000000e+00
      vertex   9.600000e+01 -1.500000e+01 -1.400000e+01
      vertex   9.600000e+01 -1.000000e+00 6.000000e+00
    endloop
  endfacet
  facet normal 1.000000e+00 1.015061e-15 0.000000e+00
    outer loop
      vertex   9.600000e+01 -1.000000e+00 6.000000e+00
      vertex   9.600000e+01 -1.500000e+01 -1.400000e+01
      vertex   9.600000e+01 -1.000000e+00 -1.400000e+01
    endloop
  endfacet
  facet normal 8.881784e-17 1.268826e-16 -1.000000e+00
    outer loop
      vertex   9.600000e+01 -1.500000e+01 -1.400000e+01
      vertex   7.600000e+01 -1.500000e+01 -1.400000e+01
      vertex   9.600000e+01 -1.000000e+00 -1.400000e+01
    endloop
  endfacet
  facet normal 0.000000e+00 2.537653e-16 -1.000000e+00
    outer loop
      vertex   9.600000e+01 -1.000000e+00 -1.400000e+01
      vertex   7.600000e+01 -1.500000e+01 -1.400000e+01
      vertex   7.600000e+01 -1.000000e+00 -1.400000e+01
    endloop
  endfacet
  facet normal -1.000000e+00 -1.015061e-15 0.000000e+00
    outer loop
      vertex   7.600000e+01 -1.500000e+01 -1.400000e+01
      vertex   7.600000e+01 -1.500000e+01 6.000000e+00
      vertex   7.600000e+01 -1.000000e+00 -1.400000e+01
    endloop
  endfacet
  facet normal -1.000000e+00 -1.015061e-15 0.000000e+00
    outer loop
      vertex   7.600000e+01 -1.000000e+00 -1.400000e+01
      vertex   7.600000e+01 -1.500000e+01 6.000000e+00
      vertex   7.600000e+01 -1.000000e+00 6.000000e+00
    endloop
  endfacet
  facet normal 0.000000e+00 0.000000e+00 -1.000000e+00
    outer loop
      vertex   8.200000e+01 -4.000000e+00 -8.750000e+00
      vertex   8.275000e+01 -4.000000e+00 -8.750000e+00
      vertex   8.200000e+01 -1.400000e+01 -8.750000e+00
    endloop
  endfacet
  facet normal 0.000000e+00 0.000000e+00 -1.000000e+00
    outer loop
      vertex   8.200000e+01 -1.400000e+01 -8.750000e+00
      vertex   8.275000e+01 -4.000000e+00 -8.750000e+00
      vertex   8.275000e+01 -1.400000e+01 -8.750000e+00
    endloop
  endfacet
  facet normal 0.000000e+00 0.000000e+00 1.000000e+00
    outer loop
      vertex   8.275000e+01 -4.000000e+00 -7.250000e+00
      vertex   8.200000e+01 -4.000000e+00 -7.250000e+00
      vertex   8.275000e+01 -1.400000e+01 -7.250000e+00
    endloop
  endfacet
  facet normal 0.000000e+00 0.000000e+00 1.000000e+00
    outer loop
      vertex   8.275000e+01 -1.400000e+01 -7.250000e+00
      vertex   8.200000e+01 -4.000000e+00 -7.250000e+00
      vertex   8.200000e+01 -1.400000e+01 -7.250000e+00
    endloop
  endfacet
  facet normal 1.000000e+00 0.000000e+00 -0.000000e+00
    outer loop
      vertex   8.275000e+01 -4.000000e+00 -8.750000e+00
      vertex   8.275000e+01 -4.000000e+00 -7.250000e+00
      vertex   8.275000e+01 -1.400000e+01 -8.750000e+00
    endloop
  endfacet
  facet normal 1.000000e+00 0.000000e+00 0.000000e+00
    outer loop
      vertex   8.275000e+01 -1.400000e+01 -8.750000e+00
      vertex   8.275000e+01 -4.000000e+00 -7.250000e+00
      vertex   8.275000e+01 -1.400000e+01 -7.250000e+00
    endloop
  endfacet
  facet normal 0.000000e+00 1.000000e+00 -0.000000e+00
    outer loop
      vertex   8.275000e+01 -4.000000e+00 -8.750000e+00
      vertex   8.200000e+01 -4.000000e+00 -8.750000e+00
      vertex   8.275000e+01 -4.000000e+00 -7.250000e+00
    endloop
  endfacet
  facet normal 0.000000e+00 1.000000e+00 0.000000e+00
    outer loop
      vertex   8.275000e+01 -4.000000e+00 -7.250000e+00
      vertex   8.200000e+01 -4.000000e+00 -8.750000e+00
      vertex   8.200000e+01 -4.000000e+00 -7.250000e+00
    endloop
  endfacet
  facet normal -1.480297e-16 -1.110223e-17 1.000000e+00
    outer loop
      vertex   7.875000e+01 -4.000000e+00 7.500000e-01
      vertex   7.800000e+01 -4.000000e+00 7.500000e-01
      vertex   7.875000e+01 -1.400000e+01 7.500000e-01
    endloop
  endfacet
  facet normal 0.000000e+00 0.000000e+00 1.000000e+00
    outer loop
      vertex   7.875000e+01 -1.400000e+01 7.500000e-01
      vertex   7.800000e+01 -4.000000e+00 7.500000e-01
      vertex   7.800000e+01 -1.400000e+01 7.500000e-01
    endloop
  endfacet
  facet normal 1.000000e+00 0.000000e+00 -0.000000e+00
    outer loop
      vertex   7.875000e+01 -4.000000e+00 -7.500000e-01
      vertex   7.875000e+01 -4.000000e+00 7.500000e-01
      vertex   7.875000e+01 -1.400000e+01 -7.500000e-01
    endloop
  endfacet
  facet normal 1.000000e+00 0.000000e+00 0.000000e+00
    outer loop
      vertex   7.875000e+01 -1.400000e+01 -7.500000e-01
      vertex   7.875000e+01 -4.000000e+00 7.500000e-01
      vertex   7.875000e+01 -1.400000e+01 7.500000e-01
    endloop
  endfacet
  facet normal -1.480297e-16 -0.000000e+00 -1.000000e+00
    outer loop
      vertex   7.800000e+01 -4.000000e+00 -7.500000e-01
      vertex   7.875000e+01 -4.000000e+00 -7.500000e-01
      vertex   7.800000e+01 -1.400000e+01 -7.500000e-01
    endloop
  endfacet
  facet normal -1.480297e-16 0.000000e+00 -1.000000e+00
    outer loop
      vertex   7.800000e+01 -1.400000e+01 -7.500000e-01
      vertex   7.875000e+01 -4.000000e+00 -7.500000e-01
      vertex   7.875000e+01 -1.400000e+01 -7.500000e-01
    endloop
  endfacet
  facet normal 0.000000e+00 1.000000e+00 -0.000000e+00
    outer loop
      vertex   7.875000e+01 -4.000000e+00 -7.500000e-01
      vertex   7.800000e+01 -4.000000e+00 -7.500000e-01
      vertex   7.875000e+01 -4.000000e+00 7.500000e-01
    endloop
  endfacet
  facet normal 0.000000e+00 1.000000e+00 0.000000e+00
    outer loop
      vertex   7.875000e+01 -4.000000e+00 7.500000e-01
      vertex   7.800000e+01 -4.000000e+00 -7.500000e-01
      vertex   7.800000e+01 -4.000000e+00 7.500000e-01
    endloop
  endfacet
  facet normal 0.000000e+00 0.000000e+00 -1.000000e+00
    outer loop
      vertex   9.325000e+01 -4.000000e+00 -7.500000e-01
      vertex   9.400000e+01 -4.000000e+00 -7.500000e-01
      vertex   9.325000e+01 -1.400000e+01 -7.500000e-01
    endloop
  endfacet
  facet normal 0.000000e+00 0.000000e+00 -1.000000e+00
    outer loop
      vertex   9.325000e+01 -1.400000e+01 -7.500000e-01
      vertex   9.400000e+01 -4.000000e+00 -7.500000e-01
      vertex   9.400000e+01 -1.400000e+01 -7.500000e-01
    endloop
  endfacet
  facet normal -1.000000e+00 -0.000000e+00 -0.000000e+00
    outer loop
      vertex   9.325000e+01 -4.000000e+00 7.500000e-01
      vertex   9.325000e+01 -4.000000e+00 -7.500000e-01
      vertex   9.325000e+01 -1.400000e+01 7.500000e-01
    endloop
  endfacet
  facet normal -1.000000e+00 0.000000e+00 0.000000e+00
    outer loop
      vertex   9.325000e+01 -1.400000e+01 7.500000e-01
      vertex   9.325000e+01 -4.000000e+00 -7.500000e-01
      vertex   9.325000e+01 -1.400000e+01 -7.500000e-01
    endloop
  endfacet
  facet normal 0.000000e+00 0.000000e+00 1.000000e+00
    outer loop
      vertex   9.400000e+01 -4.000000e+00 7.500000e-01
      vertex   9.325000e+01 -4.000000e+00 7.500000e-01
      vertex   9.400000e+01 -1.400000e+01 7.500000e-01
    endloop
  endfacet
  facet normal 0.000000e+00 0.000000e+00 1.000000e+00
    outer loop
      vertex   9.400000e+01 -1.400000e+01 7.500000e-01
      vertex   9.325000e+01 -4.000000e+00 7.500000e-01
      vertex   9.325000e+01 -1.400000e+01 7.500000e-01
    endloop
  endfacet
  facet normal -0.000000e+00 1.000000e+00 0.000000e+00
    outer loop
      vertex   9.325000e+01 -4.000000e+00 7.500000e-01
      vertex   9.400000e+01 -4.000000e+00 7.500000e-01
      vertex   9.325000e+01 -4.000000e+00 -7.500000e-01
    endloop
  endfacet
  facet normal 0.000000e+00 1.000000e+00 0.000000e+00
    outer loop
      vertex   9.325000e+01 -4.000000e+00 -7.500000e-01
      vertex   9.400000e+01 -4.000000e+00 7.500000e-01
      vertex   9.400000e+01 -4.000000e+00 -7.500000e-01
    endloop
  endfacet
  facet normal -1.000000e+00 -0.000000e+00 -0.000000e+00
    outer loop
      vertex   8.925000e+01 -4.000000e+00 -7.250000e+00
      vertex   8.925000e+01 -4.000000e+00 -8.750000e+00
      vertex   8.925000e+01 -1.400000e+01 -7.250000e+00
    endloop
  endfacet
  facet normal -1.000000e+00 0.000000e+00 0.000000e+00
    outer loop
      vertex   8.925000e+01 -1.400000e+01 -7.250000e+00
      vertex   8.925000e+01 -4.000000e+00 -8.750000e+00
      vertex   8.925000e+01 -1.400000e+01 -8.750000e+00
    endloop
  endfacet
  facet normal 0.000000e+00 0.000000e+00 1.000000e+00
    outer loop
      vertex   9.000000e+01 -4.000000e+00 -7.250000e+00
      vertex   8.925000e+01 -4.000000e+00 -7.250000e+00
      vertex   9.000000e+01 -1.400000e+01 -7.250000e+00
    endloop
  endfacet
  facet normal 0.000000e+00 0.000000e+00 1.000000e+00
    outer loop
      vertex   9.000000e+01 -1.400000e+01 -7.250000e+00
      vertex   8.925000e+01 -4.000000e+00 -7.250000e+00
      vertex   8.925000e+01 -1.400000e+01 -7.250000e+00
    endloop
  endfacet
  facet normal 0.000000e+00 0.000000e+00 -1.000000e+00
    outer loop
      vertex   8.925000e+01 -4.000000e+00 -8.750000e+00
      vertex   9.000000e+01 -4.000000e+00 -8.750000e+00
      vertex   8.925000e+01 -1.400000e+01 -8.750000e+00
    endloop
  endfacet
  facet normal 0.000000e+00 0.000000e+00 -1.000000e+00
    outer loop
      vertex   8.925000e+01 -1.400000e+01 -8.750000e+00
      vertex   9.000000e+01 -4.000000e+00 -8.750000e+00
      vertex   9.000000e+01 -1.400000e+01 -8.750000e+00
    endloop
  endfacet
  facet normal 0.000000e+00 1.000000e+00 -0.000000e+00
    outer loop
      vertex   9.000000e+01 -4.000000e+00 -8.750000e+00
      vertex   8.925000e+01 -4.000000e+00 -8.750000e+00
      vertex   9.000000e+01 -4.000000e+00 -7.250000e+00
    endloop
  endfacet
  facet normal 0.000000e+00 1.000000e+00 0.000000e+00
    outer loop
      vertex   9.000000e+01 -4.000000e+00 -7.250000e+00
      vertex   8.925000e+01 -4.000000e+00 -8.750000e+00
      vertex   8.925000e+01 -4.000000e+00 -7.250000e+00
    endloop
  endfacet
  facet normal 3.404684e-15 0.000000e+00 -1.000000e+00
    outer loop
      vertex   8.525000e+01 -4.000000e+00 -7.500000e-01
      vertex   8.675000e+01 -4.000000e+00 -7.500000e-01
      vertex   8.525000e+01 -1.400000e+01 -7.500000e-01
    endloop
  endfacet
  facet normal 3.404684e-15 0.000000e+00 -1.000000e+00
    outer loop
      vertex   8.525000e+01 -1.400000e+01 -7.500000e-01
      vertex   8.675000e+01 -4.000000e+00 -7.500000e-01
      vertex   8.675000e+01 -1.400000e+01 -7.500000e-01
    endloop
  endfacet
  facet normal -1.000000e+00 -0.000000e+00 -0.000000e+00
    outer loop
      vertex   8.525000e+01 -4.000000e+00 7.500000e-01
      vertex   8.525000e+01 -4.000000e+00 -7.500000e-01
      vertex   8.525000e+01 -1.400000e+01 7.500000e-01
    endloop
  endfacet
  facet normal -1.000000e+00 0.000000e+00 0.000000e+00
    outer loop
      vertex   8.525000e+01 -1.400000e+01 7.500000e-01
      vertex   8.525000e+01 -4.000000e+00 -7.500000e-01
      vertex   8.525000e+01 -1.400000e+01 -7.500000e-01
    endloop
  endfacet
  facet normal -3.478699e-15 0.000000e+00 1.000000e+00
    outer loop
      vertex   8.675000e+01 -4.000000e+00 7.500000e-01
      vertex   8.525000e+01 -4.000000e+00 7.500000e-01
      vertex   8.675000e+01 -1.400000e+01 7.500000e-01
    endloop
  endfacet
  facet normal -3.478699e-15 0.000000e+00 1.000000e+00
    outer loop
      vertex   8.675000e+01 -1.400000e+01 7.500000e-01
      vertex   8.525000e+01 -4.000000e+00 7.500000e-01
      vertex   8.525000e+01 -1.400000e+01 7.500000e-01
    endloop
  endfacet
  facet normal 1.000000e+00 0.000000e+00 -0.000000e+00
    outer loop
      vertex   8.675000e+01 -4.000000e+00 -7.500000e-01
      vertex   8.675000e+01 -4.000000e+00 7.500000e-01
      vertex   8.675000e+01 -1.400000e+01 -7.500000e-01
    endloop
  endfacet
  facet normal 1.000000e+00 0.000000e+00 0.000000e+00
    outer loop
      vertex   8.675000e+01 -1.400000e+01 -7.500000e-01
      vertex   8.675000e+01 -4.000000e+00 7.500000e-01
      vertex   8.675000e+01 -1.400000e+01 7.500000e-01
    endloop
  endfacet
  facet normal 0.000000e+00 1.000000e+00 -0.000000e+00
    outer loop
      vertex   8.675000e+01 -4.000000e+00 -7.500000e-01
      vertex   8.525000e+01 -4.000000e+00 -7.500000e-01
      vertex   8.675000e+01 -4.000000e+00 7.500000e-01
    endloop
  endfacet
  facet normal 0.000000e+00 1.000000e+00 0.000000e+00
    outer loop
      vertex   8.675000e+01 -4.000000e+00 7.500000e-01
      vertex   8.525000e+01 -4.000000e+00 -7.500000e-01
      vertex   8.525000e+01 -4.000000e+00 7.500000e-01
    endloop
  endfacet
endsolid
