solid ASCII
  facet normal 0.000000e+00 0.000000e+00 1.000000e+00
    outer loop
      vertex   -7.401685e+01 -1.239608e+00 -7.274660e+00
      vertex   -5.801685e+01 -1.239608e+00 -7.274660e+00
      vertex   -7.401685e+01 2.760392e+00 -7.274660e+00
    endloop
  endfacet
  facet normal -0.000000e+00 0.000000e+00 1.000000e+00
    outer loop
      vertex   -7.401685e+01 2.760392e+00 -7.274660e+00
      vertex   -5.801685e+01 -1.239608e+00 -7.274660e+00
      vertex   -5.801685e+01 2.760392e+00 -7.274660e+00
    endloop
  endfacet
  facet normal 1.000000e+00 -0.000000e+00 0.000000e+00
    outer loop
      vertex   -7.401685e+01 -1.239608e+00 8.725340e+00
      vertex   -7.401685e+01 -1.239608e+00 -7.274660e+00
      vertex   -7.401685e+01 2.760392e+00 8.725340e+00
    endloop
  endfacet
  facet normal 1.000000e+00 0.000000e+00 0.000000e+00
    outer loop
      vertex   -7.401685e+01 2.760392e+00 8.725340e+00
      vertex   -7.401685e+01 -1.239608e+00 -7.274660e+00
      vertex   -7.401685e+01 2.760392e+00 -7.274660e+00
    endloop
  endfacet
  facet normal 0.000000e+00 0.000000e+00 -1.000000e+00
    outer loop
      vertex   -5.801685e+01 -1.239608e+00 8.725340e+00
      vertex   -7.401685e+01 -1.239608e+00 8.725340e+00
      vertex   -5.801685e+01 2.760392e+00 8.725340e+00
    endloop
  endfacet
  facet normal -0.000000e+00 0.000000e+00 -1.000000e+00
    outer loop
      vertex   -5.801685e+01 2.760392e+00 8.725340e+00
      vertex   -7.401685e+01 -1.239608e+00 8.725340e+00
      vertex   -7.401685e+01 2.760392e+00 8.725340e+00
    endloop
  endfacet
  facet normal -1.000000e+00 0.000000e+00 0.000000e+00
    outer loop
      vertex   -5.801685e+01 -1.239608e+00 -7.274660e+00
      vertex   -5.801685e+01 -1.239608e+00 8.725340e+00
      vertex   -5.801685e+01 2.760392e+00 -7.274660e+00
    endloop
  endfacet
  facet normal -1.000000e+00 0.000000e+00 0.000000e+00
    outer loop
      vertex   -5.801685e+01 2.760392e+00 -7.274660e+00
      vertex   -5.801685e+01 -1.239608e+00 8.725340e+00
      vertex   -5.801685e+01 2.760392e+00 8.725340e+00
    endloop
  endfacet
  facet normal 0.000000e+00 0.000000e+00 1.000000e+00
    outer loop
      vertex   -7.401685e+01 -1.239608e+00 1.272534e+01
      vertex   -5.801685e+01 -1.239608e+00 1.272534e+01
      vertex   -7.401685e+01 2.760392e+00 1.272534e+01
    endloop
  endfacet
  facet normal -0.000000e+00 0.000000e+00 1.000000e+00
    outer loop
      vertex   -7.401685e+01 2.760392e+00 1.272534e+01
      vertex   -5.801685e+01 -1.239608e+00 1.272534e+01
      vertex   -5.801685e+01 2.760392e+00 1.272534e+01
    endloop
  endfacet
  facet normal 1.000000e+00 -0.000000e+00 0.000000e+00
    outer loop
      vertex   -7.401685e+01 -1.239608e+00 2.872534e+01
      vertex   -7.401685e+01 -1.239608e+00 1.272534e+01
      vertex   -7.401685e+01 2.760392e+00 2.872534e+01
    endloop
  endfacet
  facet normal 1.000000e+00 0.000000e+00 0.000000e+00
    outer loop
      vertex   -7.401685e+01 2.760392e+00 2.872534e+01
      vertex   -7.401685e+01 -1.239608e+00 1.272534e+01
      vertex   -7.401685e+01 2.760392e+00 1.272534e+01
    endloop
  endfacet
  facet normal 0.000000e+00 0.000000e+00 -1.000000e+00
    outer loop
      vertex   -5.801685e+01 -1.239608e+00 2.872534e+01
      vertex   -7.401685e+01 -1.239608e+00 2.872534e+01
      vertex   -5.801685e+01 2.760392e+00 2.872534e+01
    endloop
  endfacet
  facet normal -0.000000e+00 0.000000e+00 -1.000000e+00
    outer loop
      vertex   -5.801685e+01 2.760392e+00 2.872534e+01
      vertex   -7.401685e+01 -1.239608e+00 2.872534e+01
      vertex   -7.401685e+01 2.760392e+00 2.872534e+01
    endloop
  endfacet
  facet normal -1.000000e+00 0.000000e+00 0.000000e+00
    outer loop
      vertex   -5.801685e+01 -1.239608e+00 1.272534e+01
      vertex   -5.801685e+01 -1.239608e+00 2.872534e+01
      vertex   -5.801685e+01 2.760392e+00 1.272534e+01
    endloop
  endfacet
  facet normal -1.000000e+00 0.000000e+00 0.000000e+00
    outer loop
      vertex   -5.801685e+01 2.760392e+00 1.272534e+01
      vertex   -5.801685e+01 -1.239608e+00 2.872534e+01
      vertex   -5.801685e+01 2.760392e+00 2.872534e+01
    endloop
  endfacet
  facet normal 0.000000e+00 0.000000e+00 -1.000000e+00
    outer loop
      vertex   -5.801685e+01 -1.239608e+00 4.872534e+01
      vertex   -7.401685e+01 -1.239608e+00 4.872534e+01
      vertex   -5.801685e+01 2.760392e+00 4.872534e+01
    endloop
  endfacet
  facet normal -0.000000e+00 0.000000e+00 -1.000000e+00
    outer loop
      vertex   -5.801685e+01 2.760392e+00 4.872534e+01
      vertex   -7.401685e+01 -1.239608e+00 4.872534e+01
      vertex   -7.401685e+01 2.760392e+00 4.872534e+01
    endloop
  endfacet
  facet normal -1.000000e+00 0.000000e+00 0.000000e+00
    outer loop
      vertex   -5.801685e+01 -1.239608e+00 3.272534e+01
      vertex   -5.801685e+01 -1.239608e+00 4.872534e+01
      vertex   -5.801685e+01 2.760392e+00 3.272534e+01
    endloop
  endfacet
  facet normal -1.000000e+00 0.000000e+00 0.000000e+00
    outer loop
      vertex   -5.801685e+01 2.760392e+00 3.272534e+01
      vertex   -5.801685e+01 -1.239608e+00 4.872534e+01
      vertex   -5.801685e+01 2.760392e+00 4.872534e+01
    endloop
  endfacet
  facet normal 0.000000e+00 0.000000e+00 1.000000e+00
    outer loop
      vertex   -7.401685e+01 -1.239608e+00 3.272534e+01
      vertex   -5.801685e+01 -1.239608e+00 3.272534e+01
      vertex   -7.401685e+01 2.760392e+00 3.272534e+01
    endloop
  endfacet
  facet normal -0.000000e+00 0.000000e+00 1.000000e+00
    outer loop
      vertex   -7.401685e+01 2.760392e+00 3.272534e+01
      vertex   -5.801685e+01 -1.239608e+00 3.272534e+01
      vertex   -5.801685e+01 2.760392e+00 3.272534e+01
    endloop
  endfacet
  facet normal 1.000000e+00 -0.000000e+00 0.000000e+00
    outer loop
      vertex   -7.401685e+01 -1.239608e+00 4.872534e+01
      vertex   -7.401685e+01 -1.239608e+00 3.272534e+01
      vertex   -7.401685e+01 2.760392e+00 4.872534e+01
    endloop
  endfacet
  facet normal 1.000000e+00 0.000000e+00 0.000000e+00
    outer loop
      vertex   -7.401685e+01 2.760392e+00 4.872534e+01
      vertex   -7.401685e+01 -1.239608e+00 3.272534e+01
      vertex   -7.401685e+01 2.760392e+00 3.272534e+01
    endloop
  endfacet
  facet normal -1.000000e+00 0.000000e+00 0.000000e+00
    outer loop
      vertex   -7.601685e+01 -1.239608e+00 -8.926282e+00
      vertex   -7.601685e+01 -1.239608e+00 5.107372e+01
      vertex   -7.601685e+01 2.760392e+00 -8.926282e+00
    endloop
  endfacet
  facet normal -1.000000e+00 0.000000e+00 0.000000e+00
    outer loop
      vertex   -7.601685e+01 2.760392e+00 -8.926282e+00
      vertex   -7.601685e+01 -1.239608e+00 5.107372e+01
      vertex   -7.601685e+01 2.760392e+00 5.107372e+01
    endloop
  endfacet
  facet normal 0.000000e+00 0.000000e+00 -1.000000e+00
    outer loop
      vertex   -5.601685e+01 -1.239608e+00 -8.926282e+00
      vertex   -7.601685e+01 -1.239608e+00 -8.926282e+00
      vertex   -5.601685e+01 2.760392e+00 -8.926282e+00
    endloop
  endfacet
  facet normal -0.000000e+00 0.000000e+00 -1.000000e+00
    outer loop
      vertex   -5.601685e+01 2.760392e+00 -8.926282e+00
      vertex   -7.601685e+01 -1.239608e+00 -8.926282e+00
      vertex   -7.601685e+01 2.760392e+00 -8.926282e+00
    endloop
  endfacet
  facet normal 1.000000e+00 -0.000000e+00 0.000000e+00
    outer loop
      vertex   -5.601685e+01 -1.239608e+00 5.107372e+01
      vertex   -5.601685e+01 -1.239608e+00 -8.926282e+00
      vertex   -5.601685e+01 2.760392e+00 5.107372e+01
    endloop
  endfacet
  facet normal 1.000000e+00 0.000000e+00 0.000000e+00
    outer loop
      vertex   -5.601685e+01 2.760392e+00 5.107372e+01
      vertex   -5.601685e+01 -1.239608e+00 -8.926282e+00
      vertex   -5.601685e+01 2.760392e+00 -8.926282e+00
    endloop
  endfacet
  facet normal 0.000000e+00 0.000000e+00 1.000000e+00
    outer loop
      vertex   -7.601685e+01 -1.239608e+00 5.107372e+01
      vertex   -5.601685e+01 -1.239608e+00 5.107372e+01
      vertex   -7.601685e+01 2.760392e+00 5.107372e+01
    endloop
  endfacet
  facet normal -0.000000e+00 0.000000e+00 1.000000e+00
    outer loop
      vertex   -7.601685e+01 2.760392e+00 5.107372e+01
      vertex   -5.601685e+01 -1.239608e+00 5.107372e+01
      vertex   -5.601685e+01 2.760392e+00 5.107372e+01
    endloop
  endfacet
  facet normal -0.000000e+00 -1.000000e+00 -0.000000e+00
    outer loop
      vertex   -7.401685e+01 -1.239608e+00 4.872534e+01
      vertex   -7.601685e+01 -1.239608e+00 5.107372e+01
      vertex   -7.401685e+01 -1.239608e+00 3.272534e+01
    endloop
  endfacet
  facet normal -0.000000e+00 -1.000000e+00 -0.000000e+00
    outer loop
      vertex   -7.401685e+01 -1.239608e+00 3.272534e+01
      vertex   -7.601685e+01 -1.239608e+00 5.107372e+01
      vertex   -7.401685e+01 -1.239608e+00 2.872534e+01
    endloop
  endfacet
  facet normal 0.000000e+00 -1.000000e+00 0.000000e+00
    outer loop
      vertex   -7.401685e+01 -1.239608e+00 3.272534e+01
      vertex   -7.401685e+01 -1.239608e+00 2.872534e+01
      vertex   -5.801685e+01 -1.239608e+00 2.872534e+01
    endloop
  endfacet
  facet normal 0.000000e+00 -1.000000e+00 0.000000e+00
    outer loop
      vertex   -7.401685e+01 -1.239608e+00 4.872534e+01
      vertex   -5.801685e+01 -1.239608e+00 4.872534e+01
      vertex   -7.601685e+01 -1.239608e+00 5.107372e+01
    endloop
  endfacet
  facet normal 0.000000e+00 -1.000000e+00 0.000000e+00
    outer loop
      vertex   -7.601685e+01 -1.239608e+00 5.107372e+01
      vertex   -5.801685e+01 -1.239608e+00 4.872534e+01
      vertex   -5.601685e+01 -1.239608e+00 5.107372e+01
    endloop
  endfacet
  facet normal 0.000000e+00 -1.000000e+00 0.000000e+00
    outer loop
      vertex   -5.601685e+01 -1.239608e+00 5.107372e+01
      vertex   -5.801685e+01 -1.239608e+00 4.872534e+01
      vertex   -5.801685e+01 -1.239608e+00 3.272534e+01
    endloop
  endfacet
  facet normal 0.000000e+00 -1.000000e+00 0.000000e+00
    outer loop
      vertex   -5.601685e+01 -1.239608e+00 5.107372e+01
      vertex   -5.801685e+01 -1.239608e+00 3.272534e+01
      vertex   -5.801685e+01 -1.239608e+00 2.872534e+01
    endloop
  endfacet
  facet normal 0.000000e+00 -1.000000e+00 0.000000e+00
    outer loop
      vertex   -5.801685e+01 -1.239608e+00 2.872534e+01
      vertex   -5.801685e+01 -1.239608e+00 3.272534e+01
      vertex   -7.401685e+01 -1.239608e+00 3.272534e+01
    endloop
  endfacet
  facet normal 0.000000e+00 -1.000000e+00 -0.000000e+00
    outer loop
      vertex   -5.601685e+01 -1.239608e+00 5.107372e+01
      vertex   -5.801685e+01 -1.239608e+00 2.872534e+01
      vertex   -5.601685e+01 -1.239608e+00 -8.926282e+00
    endloop
  endfacet
  facet normal 0.000000e+00 -1.000000e+00 0.000000e+00
    outer loop
      vertex   -5.601685e+01 -1.239608e+00 -8.926282e+00
      vertex   -5.801685e+01 -1.239608e+00 2.872534e+01
      vertex   -5.801685e+01 -1.239608e+00 1.272534e+01
    endloop
  endfacet
  facet normal 0.000000e+00 -1.000000e+00 0.000000e+00
    outer loop
      vertex   -5.601685e+01 -1.239608e+00 -8.926282e+00
      vertex   -5.801685e+01 -1.239608e+00 1.272534e+01
      vertex   -5.801685e+01 -1.239608e+00 8.725340e+00
    endloop
  endfacet
  facet normal 0.000000e+00 -1.000000e+00 0.000000e+00
    outer loop
      vertex   -5.801685e+01 -1.239608e+00 8.725340e+00
      vertex   -5.801685e+01 -1.239608e+00 1.272534e+01
      vertex   -7.401685e+01 -1.239608e+00 1.272534e+01
    endloop
  endfacet
  facet normal 0.000000e+00 -1.000000e+00 0.000000e+00
    outer loop
      vertex   -5.801685e+01 -1.239608e+00 8.725340e+00
      vertex   -7.401685e+01 -1.239608e+00 1.272534e+01
      vertex   -7.401685e+01 -1.239608e+00 8.725340e+00
    endloop
  endfacet
  facet normal -0.000000e+00 -1.000000e+00 0.000000e+00
    outer loop
      vertex   -7.401685e+01 -1.239608e+00 8.725340e+00
      vertex   -7.401685e+01 -1.239608e+00 1.272534e+01
      vertex   -7.601685e+01 -1.239608e+00 -8.926282e+00
    endloop
  endfacet
  facet normal 0.000000e+00 -1.000000e+00 -0.000000e+00
    outer loop
      vertex   -7.401685e+01 -1.239608e+00 8.725340e+00
      vertex   -7.601685e+01 -1.239608e+00 -8.926282e+00
      vertex   -7.401685e+01 -1.239608e+00 -7.274660e+00
    endloop
  endfacet
  facet normal 0.000000e+00 -1.000000e+00 -0.000000e+00
    outer loop
      vertex   -7.401685e+01 -1.239608e+00 -7.274660e+00
      vertex   -7.601685e+01 -1.239608e+00 -8.926282e+00
      vertex   -5.801685e+01 -1.239608e+00 -7.274660e+00
    endloop
  endfacet
  facet normal 0.000000e+00 -1.000000e+00 -0.000000e+00
    outer loop
      vertex   -5.801685e+01 -1.239608e+00 -7.274660e+00
      vertex   -7.601685e+01 -1.239608e+00 -8.926282e+00
      vertex   -5.601685e+01 -1.239608e+00 -8.926282e+00
    endloop
  endfacet
  facet normal 0.000000e+00 -1.000000e+00 0.000000e+00
    outer loop
      vertex   -5.801685e+01 -1.239608e+00 -7.274660e+00
      vertex   -5.601685e+01 -1.239608e+00 -8.926282e+00
      vertex   -5.801685e+01 -1.239608e+00 8.725340e+00
    endloop
  endfacet
  facet normal -0.000000e+00 -1.000000e+00 0.000000e+00
    outer loop
      vertex   -7.401685e+01 -1.239608e+00 1.272534e+01
      vertex   -7.401685e+01 -1.239608e+00 2.872534e+01
      vertex   -7.601685e+01 -1.239608e+00 -8.926282e+00
    endloop
  endfacet
  facet normal 0.000000e+00 -1.000000e+00 0.000000e+00
    outer loop
      vertex   -7.601685e+01 -1.239608e+00 -8.926282e+00
      vertex   -7.401685e+01 -1.239608e+00 2.872534e+01
      vertex   -7.601685e+01 -1.239608e+00 5.107372e+01
    endloop
  endfacet
  facet normal 0.000000e+00 1.000000e+00 0.000000e+00
    outer loop
      vertex   -5.801685e+01 2.760392e+00 4.872534e+01
      vertex   -7.401685e+01 2.760392e+00 4.872534e+01
      vertex   -7.601685e+01 2.760392e+00 5.107372e+01
    endloop
  endfacet
  facet normal 0.000000e+00 1.000000e+00 0.000000e+00
    outer loop
      vertex   -7.601685e+01 2.760392e+00 5.107372e+01
      vertex   -7.401685e+01 2.760392e+00 4.872534e+01
      vertex   -7.401685e+01 2.760392e+00 3.272534e+01
    endloop
  endfacet
  facet normal 0.000000e+00 1.000000e+00 0.000000e+00
    outer loop
      vertex   -7.601685e+01 2.760392e+00 5.107372e+01
      vertex   -7.401685e+01 2.760392e+00 3.272534e+01
      vertex   -7.401685e+01 2.760392e+00 2.872534e+01
    endloop
  endfacet
  facet normal 0.000000e+00 1.000000e+00 0.000000e+00
    outer loop
      vertex   -7.401685e+01 2.760392e+00 2.872534e+01
      vertex   -7.401685e+01 2.760392e+00 3.272534e+01
      vertex   -5.801685e+01 2.760392e+00 2.872534e+01
    endloop
  endfacet
  facet normal 0.000000e+00 1.000000e+00 -0.000000e+00
    outer loop
      vertex   -5.801685e+01 2.760392e+00 2.872534e+01
      vertex   -7.401685e+01 2.760392e+00 3.272534e+01
      vertex   -5.801685e+01 2.760392e+00 3.272534e+01
    endloop
  endfacet
  facet normal 0.000000e+00 1.000000e+00 0.000000e+00
    outer loop
      vertex   -5.801685e+01 2.760392e+00 2.872534e+01
      vertex   -5.801685e+01 2.760392e+00 3.272534e+01
      vertex   -5.601685e+01 2.760392e+00 5.107372e+01
    endloop
  endfacet
  facet normal 0.000000e+00 1.000000e+00 0.000000e+00
    outer loop
      vertex   -5.601685e+01 2.760392e+00 5.107372e+01
      vertex   -5.801685e+01 2.760392e+00 3.272534e+01
      vertex   -5.801685e+01 2.760392e+00 4.872534e+01
    endloop
  endfacet
  facet normal 0.000000e+00 1.000000e+00 0.000000e+00
    outer loop
      vertex   -5.601685e+01 2.760392e+00 5.107372e+01
      vertex   -5.801685e+01 2.760392e+00 4.872534e+01
      vertex   -7.601685e+01 2.760392e+00 5.107372e+01
    endloop
  endfacet
  facet normal 0.000000e+00 1.000000e+00 0.000000e+00
    outer loop
      vertex   -5.801685e+01 2.760392e+00 2.872534e+01
      vertex   -5.601685e+01 2.760392e+00 -8.926282e+00
      vertex   -5.801685e+01 2.760392e+00 1.272534e+01
    endloop
  endfacet
  facet normal 0.000000e+00 1.000000e+00 0.000000e+00
    outer loop
      vertex   -5.801685e+01 2.760392e+00 1.272534e+01
      vertex   -5.601685e+01 2.760392e+00 -8.926282e+00
      vertex   -5.801685e+01 2.760392e+00 8.725340e+00
    endloop
  endfacet
  facet normal 0.000000e+00 1.000000e+00 0.000000e+00
    outer loop
      vertex   -5.801685e+01 2.760392e+00 1.272534e+01
      vertex   -5.801685e+01 2.760392e+00 8.725340e+00
      vertex   -7.401685e+01 2.760392e+00 1.272534e+01
    endloop
  endfacet
  facet normal 0.000000e+00 1.000000e+00 0.000000e+00
    outer loop
      vertex   -7.401685e+01 2.760392e+00 1.272534e+01
      vertex   -5.801685e+01 2.760392e+00 8.725340e+00
      vertex   -7.401685e+01 2.760392e+00 8.725340e+00
    endloop
  endfacet
  facet normal 0.000000e+00 1.000000e+00 0.000000e+00
    outer loop
      vertex   -7.401685e+01 2.760392e+00 1.272534e+01
      vertex   -7.401685e+01 2.760392e+00 8.725340e+00
      vertex   -7.601685e+01 2.760392e+00 -8.926282e+00
    endloop
  endfacet
  facet normal 0.000000e+00 1.000000e+00 0.000000e+00
    outer loop
      vertex   -7.601685e+01 2.760392e+00 -8.926282e+00
      vertex   -7.401685e+01 2.760392e+00 8.725340e+00
      vertex   -7.401685e+01 2.760392e+00 -7.274660e+00
    endloop
  endfacet
  facet normal 0.000000e+00 1.000000e+00 0.000000e+00
    outer loop
      vertex   -7.601685e+01 2.760392e+00 -8.926282e+00
      vertex   -7.401685e+01 2.760392e+00 -7.274660e+00
      vertex   -5.801685e+01 2.760392e+00 -7.274660e+00
    endloop
  endfacet
  facet normal 0.000000e+00 1.000000e+00 0.000000e+00
    outer loop
      vertex   -7.601685e+01 2.760392e+00 5.107372e+01
      vertex   -7.401685e+01 2.760392e+00 2.872534e+01
      vertex   -7.601685e+01 2.760392e+00 -8.926282e+00
    endloop
  endfacet
  facet normal 0.000000e+00 1.000000e+00 0.000000e+00
    outer loop
      vertex   -7.601685e+01 2.760392e+00 -8.926282e+00
      vertex   -7.401685e+01 2.760392e+00 2.872534e+01
      vertex   -7.401685e+01 2.760392e+00 1.272534e+01
    endloop
  endfacet
  facet normal 0.000000e+00 1.000000e+00 0.000000e+00
    outer loop
      vertex   -7.601685e+01 2.760392e+00 -8.926282e+00
      vertex   -5.801685e+01 2.760392e+00 -7.274660e+00
      vertex   -5.601685e+01 2.760392e+00 -8.926282e+00
    endloop
  endfacet
  facet normal 0.000000e+00 1.000000e+00 0.000000e+00
    outer loop
      vertex   -5.601685e+01 2.760392e+00 -8.926282e+00
      vertex   -5.801685e+01 2.760392e+00 -7.274660e+00
      vertex   -5.801685e+01 2.760392e+00 8.725340e+00
    endloop
  endfacet
  facet normal 0.000000e+00 1.000000e+00 0.000000e+00
    outer loop
      vertex   -5.601685e+01 2.760392e+00 5.107372e+01
      vertex   -5.601685e+01 2.760392e+00 -8.926282e+00
      vertex   -5.801685e+01 2.760392e+00 2.872534e+01
    endloop
  endfacet
  facet normal 0.000000e+00 0.000000e+00 -1.000000e+00
    outer loop
      vertex   -7.000000e+01 -8.424168e+00 3.014744e+01
      vertex   -7.401685e+01 -8.424168e+00 3.014744e+01
      vertex   -7.000000e+01 -6.000000e+00 3.014744e+01
    endloop
  endfacet
  facet normal -0.000000e+00 0.000000e+00 -1.000000e+00
    outer loop
      vertex   -7.000000e+01 -6.000000e+00 3.014744e+01
      vertex   -7.401685e+01 -8.424168e+00 3.014744e+01
      vertex   -7.401685e+01 -3.000000e+00 3.014744e+01
    endloop
  endfacet
  facet normal 0.000000e+00 0.000000e+00 -1.000000e+00
    outer loop
      vertex   -7.000000e+01 -6.000000e+00 3.014744e+01
      vertex   -7.401685e+01 -3.000000e+00 3.014744e+01
      vertex   -6.117586e+01 -6.000000e+00 3.014744e+01
    endloop
  endfacet
  facet normal 0.000000e+00 0.000000e+00 -1.000000e+00
    outer loop
      vertex   -6.117586e+01 -6.000000e+00 3.014744e+01
      vertex   -7.401685e+01 -3.000000e+00 3.014744e+01
      vertex   -5.601685e+01 -3.000000e+00 3.014744e+01
    endloop
  endfacet
  facet normal 0.000000e+00 0.000000e+00 -1.000000e+00
    outer loop
      vertex   -6.117586e+01 -6.000000e+00 3.014744e+01
      vertex   -5.601685e+01 -3.000000e+00 3.014744e+01
      vertex   -5.601685e+01 -8.424168e+00 3.014744e+01
    endloop
  endfacet
  facet normal 0.000000e+00 0.000000e+00 -1.000000e+00
    outer loop
      vertex   -5.601685e+01 -8.424168e+00 3.014744e+01
      vertex   -6.117586e+01 -8.424168e+00 3.014744e+01
      vertex   -6.117586e+01 -6.000000e+00 3.014744e+01
    endloop
  endfacet
  facet normal 0.000000e+00 1.000000e+00 -0.000000e+00
    outer loop
      vertex   -6.117586e+01 -8.424168e+00 2.872534e+01
      vertex   -6.117586e+01 -8.424168e+00 3.014744e+01
      vertex   -5.801685e+01 -8.424168e+00 2.872534e+01
    endloop
  endfacet
  facet normal 0.000000e+00 1.000000e+00 -0.000000e+00
    outer loop
      vertex   -5.801685e+01 -8.424168e+00 2.872534e+01
      vertex   -6.117586e+01 -8.424168e+00 3.014744e+01
      vertex   -5.601685e+01 -8.424168e+00 3.014744e+01
    endloop
  endfacet
  facet normal -0.000000e+00 1.000000e+00 0.000000e+00
    outer loop
      vertex   -5.801685e+01 -8.424168e+00 2.872534e+01
      vertex   -5.601685e+01 -8.424168e+00 3.014744e+01
      vertex   -5.601685e+01 -8.424168e+00 1.200000e+01
    endloop
  endfacet
  facet normal 0.000000e+00 1.000000e+00 0.000000e+00
    outer loop
      vertex   -5.801685e+01 -8.424168e+00 2.872534e+01
      vertex   -5.601685e+01 -8.424168e+00 1.200000e+01
      vertex   -5.801685e+01 -8.424168e+00 1.272534e+01
    endloop
  endfacet
  facet normal 0.000000e+00 1.000000e+00 0.000000e+00
    outer loop
      vertex   -5.801685e+01 -8.424168e+00 1.272534e+01
      vertex   -5.601685e+01 -8.424168e+00 1.200000e+01
      vertex   -6.117586e+01 -8.424168e+00 1.200000e+01
    endloop
  endfacet
  facet normal 0.000000e+00 1.000000e+00 0.000000e+00
    outer loop
      vertex   -5.801685e+01 -8.424168e+00 1.272534e+01
      vertex   -6.117586e+01 -8.424168e+00 1.200000e+01
      vertex   -6.117586e+01 -8.424168e+00 1.272534e+01
    endloop
  endfacet
  facet normal 0.000000e+00 1.000000e+00 0.000000e+00
    outer loop
      vertex   -7.000000e+01 -8.424168e+00 1.272534e+01
      vertex   -7.000000e+01 -8.424168e+00 1.200000e+01
      vertex   -7.401685e+01 -8.424168e+00 1.272534e+01
    endloop
  endfacet
  facet normal 0.000000e+00 1.000000e+00 0.000000e+00
    outer loop
      vertex   -7.401685e+01 -8.424168e+00 1.272534e+01
      vertex   -7.000000e+01 -8.424168e+00 1.200000e+01
      vertex   -7.401685e+01 -8.424168e+00 1.200000e+01
    endloop
  endfacet
  facet normal 0.000000e+00 -1.000000e+00 -3.122778e-16
    outer loop
      vertex   -7.401685e+01 -3.000000e+00 2.872534e+01
      vertex   -5.801685e+01 -3.000000e+00 2.872534e+01
      vertex   -7.401685e+01 -3.000000e+00 3.014744e+01
    endloop
  endfacet
  facet normal 2.467162e-17 -1.000000e+00 -3.469753e-17
    outer loop
      vertex   -7.401685e+01 -3.000000e+00 3.014744e+01
      vertex   -5.801685e+01 -3.000000e+00 2.872534e+01
      vertex   -5.601685e+01 -3.000000e+00 3.014744e+01
    endloop
  endfacet
  facet normal -1.740019e-17 -1.000000e+00 2.447118e-17
    outer loop
      vertex   -5.601685e+01 -3.000000e+00 3.014744e+01
      vertex   -5.801685e+01 -3.000000e+00 2.872534e+01
      vertex   -5.601685e+01 -3.000000e+00 1.200000e+01
    endloop
  endfacet
  facet normal -2.220446e-16 -1.000000e+00 0.000000e+00
    outer loop
      vertex   -5.601685e+01 -3.000000e+00 1.200000e+01
      vertex   -5.801685e+01 -3.000000e+00 2.872534e+01
      vertex   -5.801685e+01 -3.000000e+00 1.272534e+01
    endloop
  endfacet
  facet normal 0.000000e+00 -1.000000e+00 6.122501e-16
    outer loop
      vertex   -5.601685e+01 -3.000000e+00 1.200000e+01
      vertex   -5.801685e+01 -3.000000e+00 1.272534e+01
      vertex   -7.401685e+01 -3.000000e+00 1.200000e+01
    endloop
  endfacet
  facet normal 0.000000e+00 -1.000000e+00 6.122501e-16
    outer loop
      vertex   -7.401685e+01 -3.000000e+00 1.200000e+01
      vertex   -5.801685e+01 -3.000000e+00 1.272534e+01
      vertex   -7.401685e+01 -3.000000e+00 1.272534e+01
    endloop
  endfacet
  facet normal 0.000000e+00 1.000000e+00 0.000000e+00
    outer loop
      vertex   -7.000000e+01 -8.424168e+00 3.014744e+01
      vertex   -7.000000e+01 -8.424168e+00 2.872534e+01
      vertex   -7.401685e+01 -8.424168e+00 3.014744e+01
    endloop
  endfacet
  facet normal 0.000000e+00 1.000000e+00 0.000000e+00
    outer loop
      vertex   -7.401685e+01 -8.424168e+00 3.014744e+01
      vertex   -7.000000e+01 -8.424168e+00 2.872534e+01
      vertex   -7.401685e+01 -8.424168e+00 2.872534e+01
    endloop
  endfacet
  facet normal 0.000000e+00 -0.000000e+00 1.000000e+00
    outer loop
      vertex   -7.000000e+01 -8.424168e+00 1.200000e+01
      vertex   -7.000000e+01 -6.000000e+00 1.200000e+01
      vertex   -7.401685e+01 -8.424168e+00 1.200000e+01
    endloop
  endfacet
  facet normal 0.000000e+00 0.000000e+00 1.000000e+00
    outer loop
      vertex   -7.401685e+01 -8.424168e+00 1.200000e+01
      vertex   -7.000000e+01 -6.000000e+00 1.200000e+01
      vertex   -7.401685e+01 -3.000000e+00 1.200000e+01
    endloop
  endfacet
  facet normal 0.000000e+00 0.000000e+00 1.000000e+00
    outer loop
      vertex   -7.401685e+01 -3.000000e+00 1.200000e+01
      vertex   -7.000000e+01 -6.000000e+00 1.200000e+01
      vertex   -6.117586e+01 -6.000000e+00 1.200000e+01
    endloop
  endfacet
  facet normal -0.000000e+00 0.000000e+00 1.000000e+00
    outer loop
      vertex   -7.401685e+01 -3.000000e+00 1.200000e+01
      vertex   -6.117586e+01 -6.000000e+00 1.200000e+01
      vertex   -5.601685e+01 -3.000000e+00 1.200000e+01
    endloop
  endfacet
  facet normal 0.000000e+00 0.000000e+00 1.000000e+00
    outer loop
      vertex   -5.601685e+01 -3.000000e+00 1.200000e+01
      vertex   -6.117586e+01 -6.000000e+00 1.200000e+01
      vertex   -5.601685e+01 -8.424168e+00 1.200000e+01
    endloop
  endfacet
  facet normal 0.000000e+00 0.000000e+00 1.000000e+00
    outer loop
      vertex   -5.601685e+01 -8.424168e+00 1.200000e+01
      vertex   -6.117586e+01 -6.000000e+00 1.200000e+01
      vertex   -6.117586e+01 -8.424168e+00 1.200000e+01
    endloop
  endfacet
  facet normal 1.000000e+00 0.000000e+00 -0.000000e+00
    outer loop
      vertex   -7.000000e+01 -8.424168e+00 2.872534e+01
      vertex   -7.000000e+01 -8.424168e+00 3.014744e+01
      vertex   -7.000000e+01 -1.123961e+01 2.872534e+01
    endloop
  endfacet
  facet normal 1.000000e+00 0.000000e+00 0.000000e+00
    outer loop
      vertex   -7.000000e+01 -1.123961e+01 2.872534e+01
      vertex   -7.000000e+01 -8.424168e+00 3.014744e+01
      vertex   -7.000000e+01 -1.123961e+01 3.272534e+01
    endloop
  endfacet
  facet normal 1.000000e+00 -0.000000e+00 0.000000e+00
    outer loop
      vertex   -7.000000e+01 -1.123961e+01 3.272534e+01
      vertex   -7.000000e+01 -8.424168e+00 3.014744e+01
      vertex   -7.000000e+01 -6.000000e+00 3.272534e+01
    endloop
  endfacet
  facet normal 1.000000e+00 0.000000e+00 0.000000e+00
    outer loop
      vertex   -7.000000e+01 -6.000000e+00 3.272534e+01
      vertex   -7.000000e+01 -8.424168e+00 3.014744e+01
      vertex   -7.000000e+01 -6.000000e+00 3.014744e+01
    endloop
  endfacet
  facet normal 1.000000e+00 6.771746e-08 -0.000000e+00
    outer loop
      vertex   -7.401685e+01 -1.239608e+00 1.272534e+01
      vertex   -7.401685e+01 -1.239608e+00 2.872534e+01
      vertex   -7.401685e+01 -3.000000e+00 1.272534e+01
    endloop
  endfacet
  facet normal 1.000000e+00 6.771746e-08 -0.000000e+00
    outer loop
      vertex   -7.401685e+01 -3.000000e+00 1.272534e+01
      vertex   -7.401685e+01 -1.239608e+00 2.872534e+01
      vertex   -7.401685e+01 -3.000000e+00 2.872534e+01
    endloop
  endfacet
  facet normal 1.000000e+00 0.000000e+00 -0.000000e+00
    outer loop
      vertex   -7.401685e+01 -3.000000e+00 1.272534e+01
      vertex   -7.401685e+01 -3.000000e+00 2.872534e+01
      vertex   -7.401685e+01 -8.424168e+00 1.272534e+01
    endloop
  endfacet
  facet normal 1.000000e+00 0.000000e+00 0.000000e+00
    outer loop
      vertex   -7.401685e+01 -8.424168e+00 1.272534e+01
      vertex   -7.401685e+01 -3.000000e+00 2.872534e+01
      vertex   -7.401685e+01 -8.424168e+00 2.872534e+01
    endloop
  endfacet
  facet normal 1.000000e+00 -4.234127e-08 0.000000e+00
    outer loop
      vertex   -7.401685e+01 -8.424168e+00 1.272534e+01
      vertex   -7.401685e+01 -8.424168e+00 2.872534e+01
      vertex   -7.401685e+01 -1.123961e+01 1.272534e+01
    endloop
  endfacet
  facet normal 1.000000e+00 -4.234127e-08 0.000000e+00
    outer loop
      vertex   -7.401685e+01 -1.123961e+01 1.272534e+01
      vertex   -7.401685e+01 -8.424168e+00 2.872534e+01
      vertex   -7.401685e+01 -1.123961e+01 2.872534e+01
    endloop
  endfacet
  facet normal 1.000000e+00 0.000000e+00 0.000000e+00
    outer loop
      vertex   -7.401685e+01 -3.000000e+00 2.872534e+01
      vertex   -7.401685e+01 -3.000000e+00 3.014744e+01
      vertex   -7.401685e+01 -8.424168e+00 2.872534e+01
    endloop
  endfacet
  facet normal 1.000000e+00 0.000000e+00 0.000000e+00
    outer loop
      vertex   -7.401685e+01 -8.424168e+00 2.872534e+01
      vertex   -7.401685e+01 -3.000000e+00 3.014744e+01
      vertex   -7.401685e+01 -8.424168e+00 3.014744e+01
    endloop
  endfacet
  facet normal 1.000000e+00 -0.000000e+00 0.000000e+00
    outer loop
      vertex   -7.401685e+01 -8.424168e+00 1.272534e+01
      vertex   -7.401685e+01 -8.424168e+00 1.200000e+01
      vertex   -7.401685e+01 -3.000000e+00 1.272534e+01
    endloop
  endfacet
  facet normal 1.000000e+00 0.000000e+00 0.000000e+00
    outer loop
      vertex   -7.401685e+01 -3.000000e+00 1.272534e+01
      vertex   -7.401685e+01 -8.424168e+00 1.200000e+01
      vertex   -7.401685e+01 -3.000000e+00 1.200000e+01
    endloop
  endfacet
  facet normal 0.000000e+00 -1.000000e+00 0.000000e+00
    outer loop
      vertex   -7.000000e+01 -6.000000e+00 3.014744e+01
      vertex   -6.117586e+01 -6.000000e+00 3.014744e+01
      vertex   -7.000000e+01 -6.000000e+00 3.272534e+01
    endloop
  endfacet
  facet normal 0.000000e+00 -1.000000e+00 0.000000e+00
    outer loop
      vertex   -7.000000e+01 -6.000000e+00 3.272534e+01
      vertex   -6.117586e+01 -6.000000e+00 3.014744e+01
      vertex   -6.117586e+01 -6.000000e+00 3.272534e+01
    endloop
  endfacet
  facet normal -1.000000e+00 0.000000e+00 0.000000e+00
    outer loop
      vertex   -6.117586e+01 -6.000000e+00 3.014744e+01
      vertex   -6.117586e+01 -8.424168e+00 3.014744e+01
      vertex   -6.117586e+01 -6.000000e+00 3.272534e+01
    endloop
  endfacet
  facet normal -1.000000e+00 -0.000000e+00 0.000000e+00
    outer loop
      vertex   -6.117586e+01 -6.000000e+00 3.272534e+01
      vertex   -6.117586e+01 -8.424168e+00 3.014744e+01
      vertex   -6.117586e+01 -1.123961e+01 3.272534e+01
    endloop
  endfacet
  facet normal -1.000000e+00 0.000000e+00 0.000000e+00
    outer loop
      vertex   -6.117586e+01 -1.123961e+01 3.272534e+01
      vertex   -6.117586e+01 -8.424168e+00 3.014744e+01
      vertex   -6.117586e+01 -1.123961e+01 2.872534e+01
    endloop
  endfacet
  facet normal -1.000000e+00 5.047472e-15 -9.992889e-15
    outer loop
      vertex   -6.117586e+01 -1.123961e+01 2.872534e+01
      vertex   -6.117586e+01 -8.424168e+00 3.014744e+01
      vertex   -6.117586e+01 -8.424168e+00 2.872534e+01
    endloop
  endfacet
  facet normal -0.000000e+00 -0.000000e+00 -1.000000e+00
    outer loop
      vertex   -7.000000e+01 -8.424168e+00 2.872534e+01
      vertex   -7.000000e+01 -1.123961e+01 2.872534e+01
      vertex   -7.401685e+01 -8.424168e+00 2.872534e+01
    endloop
  endfacet
  facet normal 0.000000e+00 -0.000000e+00 -1.000000e+00
    outer loop
      vertex   -7.401685e+01 -8.424168e+00 2.872534e+01
      vertex   -7.000000e+01 -1.123961e+01 2.872534e+01
      vertex   -7.401685e+01 -1.123961e+01 2.872534e+01
    endloop
  endfacet
  facet normal 0.000000e+00 -0.000000e+00 -1.000000e+00
    outer loop
      vertex   -6.117586e+01 -8.424168e+00 2.872534e+01
      vertex   -5.801685e+01 -8.424168e+00 2.872534e+01
      vertex   -6.117586e+01 -1.123961e+01 2.872534e+01
    endloop
  endfacet
  facet normal 0.000000e+00 0.000000e+00 -1.000000e+00
    outer loop
      vertex   -6.117586e+01 -1.123961e+01 2.872534e+01
      vertex   -5.801685e+01 -8.424168e+00 2.872534e+01
      vertex   -5.801685e+01 -1.123961e+01 2.872534e+01
    endloop
  endfacet
  facet normal 0.000000e+00 0.000000e+00 -1.000000e+00
    outer loop
      vertex   -5.801685e+01 -3.000000e+00 2.872534e+01
      vertex   -7.401685e+01 -3.000000e+00 2.872534e+01
      vertex   -5.801685e+01 -1.239608e+00 2.872534e+01
    endloop
  endfacet
  facet normal -0.000000e+00 0.000000e+00 -1.000000e+00
    outer loop
      vertex   -5.801685e+01 -1.239608e+00 2.872534e+01
      vertex   -7.401685e+01 -3.000000e+00 2.872534e+01
      vertex   -7.401685e+01 -1.239608e+00 2.872534e+01
    endloop
  endfacet
  facet normal -1.000000e+00 -0.000000e+00 -0.000000e+00
    outer loop
      vertex   -5.801685e+01 -8.424168e+00 2.872534e+01
      vertex   -5.801685e+01 -8.424168e+00 1.272534e+01
      vertex   -5.801685e+01 -1.123961e+01 2.872534e+01
    endloop
  endfacet
  facet normal -1.000000e+00 0.000000e+00 0.000000e+00
    outer loop
      vertex   -5.801685e+01 -1.123961e+01 2.872534e+01
      vertex   -5.801685e+01 -8.424168e+00 1.272534e+01
      vertex   -5.801685e+01 -1.123961e+01 1.272534e+01
    endloop
  endfacet
  facet normal 0.000000e+00 0.000000e+00 1.000000e+00
    outer loop
      vertex   -5.801685e+01 -8.424168e+00 1.272534e+01
      vertex   -6.117586e+01 -8.424168e+00 1.272534e+01
      vertex   -5.801685e+01 -1.123961e+01 1.272534e+01
    endloop
  endfacet
  facet normal 0.000000e+00 0.000000e+00 1.000000e+00
    outer loop
      vertex   -5.801685e+01 -1.123961e+01 1.272534e+01
      vertex   -6.117586e+01 -8.424168e+00 1.272534e+01
      vertex   -6.117586e+01 -1.123961e+01 1.272534e+01
    endloop
  endfacet
  facet normal 0.000000e+00 0.000000e+00 1.000000e+00
    outer loop
      vertex   -7.000000e+01 -8.424168e+00 1.272534e+01
      vertex   -7.401685e+01 -8.424168e+00 1.272534e+01
      vertex   -7.000000e+01 -1.123961e+01 1.272534e+01
    endloop
  endfacet
  facet normal 0.000000e+00 0.000000e+00 1.000000e+00
    outer loop
      vertex   -7.000000e+01 -1.123961e+01 1.272534e+01
      vertex   -7.401685e+01 -8.424168e+00 1.272534e+01
      vertex   -7.401685e+01 -1.123961e+01 1.272534e+01
    endloop
  endfacet
  facet normal 1.000000e+00 0.000000e+00 0.000000e+00
    outer loop
      vertex   -7.000000e+01 -8.424168e+00 1.272534e+01
      vertex   -7.000000e+01 -1.123961e+01 1.272534e+01
      vertex   -7.000000e+01 -8.424168e+00 1.200000e+01
    endloop
  endfacet
  facet normal 1.000000e+00 0.000000e+00 0.000000e+00
    outer loop
      vertex   -7.000000e+01 -8.424168e+00 1.200000e+01
      vertex   -7.000000e+01 -1.123961e+01 1.272534e+01
      vertex   -7.000000e+01 -1.123961e+01 8.725340e+00
    endloop
  endfacet
  facet normal 1.000000e+00 0.000000e+00 0.000000e+00
    outer loop
      vertex   -7.000000e+01 -8.424168e+00 1.200000e+01
      vertex   -7.000000e+01 -1.123961e+01 8.725340e+00
      vertex   -7.000000e+01 -6.000000e+00 8.725340e+00
    endloop
  endfacet
  facet normal 1.000000e+00 0.000000e+00 -0.000000e+00
    outer loop
      vertex   -7.000000e+01 -6.000000e+00 8.725340e+00
      vertex   -7.000000e+01 -6.000000e+00 1.200000e+01
      vertex   -7.000000e+01 -8.424168e+00 1.200000e+01
    endloop
  endfacet
  facet normal -1.000000e+00 -0.000000e+00 -0.000000e+00
    outer loop
      vertex   -6.117586e+01 -6.000000e+00 1.200000e+01
      vertex   -6.117586e+01 -6.000000e+00 8.725340e+00
      vertex   -6.117586e+01 -8.424168e+00 1.200000e+01
    endloop
  endfacet
  facet normal -1.000000e+00 0.000000e+00 -0.000000e+00
    outer loop
      vertex   -6.117586e+01 -8.424168e+00 1.200000e+01
      vertex   -6.117586e+01 -6.000000e+00 8.725340e+00
      vertex   -6.117586e+01 -1.123961e+01 8.725340e+00
    endloop
  endfacet
  facet normal -1.000000e+00 -0.000000e+00 0.000000e+00
    outer loop
      vertex   -6.117586e+01 -8.424168e+00 1.200000e+01
      vertex   -6.117586e+01 -1.123961e+01 8.725340e+00
      vertex   -6.117586e+01 -1.123961e+01 1.272534e+01
    endloop
  endfacet
  facet normal -1.000000e+00 -2.523736e-15 -9.796001e-15
    outer loop
      vertex   -6.117586e+01 -1.123961e+01 1.272534e+01
      vertex   -6.117586e+01 -8.424168e+00 1.272534e+01
      vertex   -6.117586e+01 -8.424168e+00 1.200000e+01
    endloop
  endfacet
  facet normal -0.000000e+00 -1.000000e+00 -0.000000e+00
    outer loop
      vertex   -6.117586e+01 -6.000000e+00 1.200000e+01
      vertex   -7.000000e+01 -6.000000e+00 1.200000e+01
      vertex   -6.117586e+01 -6.000000e+00 8.725340e+00
    endloop
  endfacet
  facet normal 0.000000e+00 -1.000000e+00 0.000000e+00
    outer loop
      vertex   -6.117586e+01 -6.000000e+00 8.725340e+00
      vertex   -7.000000e+01 -6.000000e+00 1.200000e+01
      vertex   -7.000000e+01 -6.000000e+00 8.725340e+00
    endloop
  endfacet
  facet normal 0.000000e+00 -0.000000e+00 1.000000e+00
    outer loop
      vertex   -5.801685e+01 -3.000000e+00 1.272534e+01
      vertex   -5.801685e+01 -1.239608e+00 1.272534e+01
      vertex   -7.401685e+01 -3.000000e+00 1.272534e+01
    endloop
  endfacet
  facet normal 0.000000e+00 -0.000000e+00 1.000000e+00
    outer loop
      vertex   -7.401685e+01 -3.000000e+00 1.272534e+01
      vertex   -5.801685e+01 -1.239608e+00 1.272534e+01
      vertex   -7.401685e+01 -1.239608e+00 1.272534e+01
    endloop
  endfacet
  facet normal 0.000000e+00 -1.000000e+00 0.000000e+00
    outer loop
      vertex   -7.601685e+01 -1.123961e+01 5.107372e+01
      vertex   -5.801685e+01 -1.123961e+01 4.872534e+01
      vertex   -5.601685e+01 -1.123961e+01 5.107372e+01
    endloop
  endfacet
  facet normal 0.000000e+00 -1.000000e+00 0.000000e+00
    outer loop
      vertex   -5.601685e+01 -1.123961e+01 5.107372e+01
      vertex   -5.801685e+01 -1.123961e+01 4.872534e+01
      vertex   -5.801685e+01 -1.123961e+01 3.272534e+01
    endloop
  endfacet
  facet normal 0.000000e+00 -1.000000e+00 0.000000e+00
    outer loop
      vertex   -5.601685e+01 -1.123961e+01 5.107372e+01
      vertex   -5.801685e+01 -1.123961e+01 3.272534e+01
      vertex   -5.801685e+01 -1.123961e+01 2.872534e+01
    endloop
  endfacet
  facet normal 0.000000e+00 -1.000000e+00 0.000000e+00
    outer loop
      vertex   -5.801685e+01 -1.123961e+01 2.872534e+01
      vertex   -5.801685e+01 -1.123961e+01 3.272534e+01
      vertex   -6.117586e+01 -1.123961e+01 2.872534e+01
    endloop
  endfacet
  facet normal 0.000000e+00 -1.000000e+00 0.000000e+00
    outer loop
      vertex   -6.117586e+01 -1.123961e+01 2.872534e+01
      vertex   -5.801685e+01 -1.123961e+01 3.272534e+01
      vertex   -6.117586e+01 -1.123961e+01 3.272534e+01
    endloop
  endfacet
  facet normal 0.000000e+00 -1.000000e+00 0.000000e+00
    outer loop
      vertex   -7.601685e+01 -1.123961e+01 -8.926282e+00
      vertex   -7.401685e+01 -1.123961e+01 2.872534e+01
      vertex   -7.601685e+01 -1.123961e+01 5.107372e+01
    endloop
  endfacet
  facet normal 0.000000e+00 -1.000000e+00 0.000000e+00
    outer loop
      vertex   -7.601685e+01 -1.123961e+01 5.107372e+01
      vertex   -7.401685e+01 -1.123961e+01 2.872534e+01
      vertex   -7.401685e+01 -1.123961e+01 3.272534e+01
    endloop
  endfacet
  facet normal 0.000000e+00 -1.000000e+00 0.000000e+00
    outer loop
      vertex   -7.601685e+01 -1.123961e+01 5.107372e+01
      vertex   -7.401685e+01 -1.123961e+01 3.272534e+01
      vertex   -7.401685e+01 -1.123961e+01 4.872534e+01
    endloop
  endfacet
  facet normal 0.000000e+00 -1.000000e+00 0.000000e+00
    outer loop
      vertex   -5.601685e+01 -1.123961e+01 -8.926282e+00
      vertex   -5.801685e+01 -1.123961e+01 -7.274660e+00
      vertex   -7.601685e+01 -1.123961e+01 -8.926282e+00
    endloop
  endfacet
  facet normal 0.000000e+00 -1.000000e+00 0.000000e+00
    outer loop
      vertex   -7.601685e+01 -1.123961e+01 -8.926282e+00
      vertex   -5.801685e+01 -1.123961e+01 -7.274660e+00
      vertex   -7.401685e+01 -1.123961e+01 -7.274660e+00
    endloop
  endfacet
  facet normal 0.000000e+00 -1.000000e+00 0.000000e+00
    outer loop
      vertex   -7.601685e+01 -1.123961e+01 -8.926282e+00
      vertex   -7.401685e+01 -1.123961e+01 -7.274660e+00
      vertex   -7.401685e+01 -1.123961e+01 8.725340e+00
    endloop
  endfacet
  facet normal 0.000000e+00 -1.000000e+00 -0.000000e+00
    outer loop
      vertex   -5.601685e+01 -1.123961e+01 5.107372e+01
      vertex   -5.801685e+01 -1.123961e+01 2.872534e+01
      vertex   -5.601685e+01 -1.123961e+01 -8.926282e+00
    endloop
  endfacet
  facet normal 0.000000e+00 -1.000000e+00 0.000000e+00
    outer loop
      vertex   -5.601685e+01 -1.123961e+01 -8.926282e+00
      vertex   -5.801685e+01 -1.123961e+01 2.872534e+01
      vertex   -5.801685e+01 -1.123961e+01 1.272534e+01
    endloop
  endfacet
  facet normal 0.000000e+00 -1.000000e+00 0.000000e+00
    outer loop
      vertex   -5.601685e+01 -1.123961e+01 -8.926282e+00
      vertex   -5.801685e+01 -1.123961e+01 1.272534e+01
      vertex   -5.801685e+01 -1.123961e+01 8.725340e+00
    endloop
  endfacet
  facet normal 0.000000e+00 -1.000000e+00 0.000000e+00
    outer loop
      vertex   -5.801685e+01 -1.123961e+01 8.725340e+00
      vertex   -5.801685e+01 -1.123961e+01 1.272534e+01
      vertex   -6.117586e+01 -1.123961e+01 8.725340e+00
    endloop
  endfacet
  facet normal 0.000000e+00 -1.000000e+00 0.000000e+00
    outer loop
      vertex   -6.117586e+01 -1.123961e+01 8.725340e+00
      vertex   -5.801685e+01 -1.123961e+01 1.272534e+01
      vertex   -6.117586e+01 -1.123961e+01 1.272534e+01
    endloop
  endfacet
  facet normal 0.000000e+00 -1.000000e+00 0.000000e+00
    outer loop
      vertex   -7.000000e+01 -1.123961e+01 8.725340e+00
      vertex   -7.000000e+01 -1.123961e+01 1.272534e+01
      vertex   -7.401685e+01 -1.123961e+01 8.725340e+00
    endloop
  endfacet
  facet normal 0.000000e+00 -1.000000e+00 0.000000e+00
    outer loop
      vertex   -7.401685e+01 -1.123961e+01 8.725340e+00
      vertex   -7.000000e+01 -1.123961e+01 1.272534e+01
      vertex   -7.401685e+01 -1.123961e+01 1.272534e+01
    endloop
  endfacet
  facet normal -0.000000e+00 -1.000000e+00 0.000000e+00
    outer loop
      vertex   -7.401685e+01 -1.123961e+01 8.725340e+00
      vertex   -7.401685e+01 -1.123961e+01 1.272534e+01
      vertex   -7.601685e+01 -1.123961e+01 -8.926282e+00
    endloop
  endfacet
  facet normal 0.000000e+00 -1.000000e+00 0.000000e+00
    outer loop
      vertex   -7.601685e+01 -1.123961e+01 -8.926282e+00
      vertex   -7.401685e+01 -1.123961e+01 1.272534e+01
      vertex   -7.401685e+01 -1.123961e+01 2.872534e+01
    endloop
  endfacet
  facet normal 0.000000e+00 -1.000000e+00 0.000000e+00
    outer loop
      vertex   -7.000000e+01 -1.123961e+01 2.872534e+01
      vertex   -7.000000e+01 -1.123961e+01 3.272534e+01
      vertex   -7.401685e+01 -1.123961e+01 2.872534e+01
    endloop
  endfacet
  facet normal 0.000000e+00 -1.000000e+00 0.000000e+00
    outer loop
      vertex   -7.401685e+01 -1.123961e+01 2.872534e+01
      vertex   -7.000000e+01 -1.123961e+01 3.272534e+01
      vertex   -7.401685e+01 -1.123961e+01 3.272534e+01
    endloop
  endfacet
  facet normal 0.000000e+00 -1.000000e+00 0.000000e+00
    outer loop
      vertex   -7.401685e+01 -1.123961e+01 4.872534e+01
      vertex   -5.801685e+01 -1.123961e+01 4.872534e+01
      vertex   -7.601685e+01 -1.123961e+01 5.107372e+01
    endloop
  endfacet
  facet normal 0.000000e+00 -1.000000e+00 0.000000e+00
    outer loop
      vertex   -5.801685e+01 -1.123961e+01 8.725340e+00
      vertex   -5.801685e+01 -1.123961e+01 -7.274660e+00
      vertex   -5.601685e+01 -1.123961e+01 -8.926282e+00
    endloop
  endfacet
  facet normal 0.000000e+00 -0.000000e+00 1.000000e+00
    outer loop
      vertex   -7.000000e+01 -1.123961e+01 3.272534e+01
      vertex   -7.000000e+01 -6.000000e+00 3.272534e+01
      vertex   -7.401685e+01 -1.123961e+01 3.272534e+01
    endloop
  endfacet
  facet normal 0.000000e+00 0.000000e+00 1.000000e+00
    outer loop
      vertex   -7.401685e+01 -1.123961e+01 3.272534e+01
      vertex   -7.000000e+01 -6.000000e+00 3.272534e+01
      vertex   -7.401685e+01 -1.239608e+00 3.272534e+01
    endloop
  endfacet
  facet normal -0.000000e+00 0.000000e+00 1.000000e+00
    outer loop
      vertex   -7.401685e+01 -1.239608e+00 3.272534e+01
      vertex   -7.000000e+01 -6.000000e+00 3.272534e+01
      vertex   -5.801685e+01 -1.239608e+00 3.272534e+01
    endloop
  endfacet
  facet normal 0.000000e+00 0.000000e+00 1.000000e+00
    outer loop
      vertex   -5.801685e+01 -1.239608e+00 3.272534e+01
      vertex   -7.000000e+01 -6.000000e+00 3.272534e+01
      vertex   -6.117586e+01 -6.000000e+00 3.272534e+01
    endloop
  endfacet
  facet normal 0.000000e+00 0.000000e+00 1.000000e+00
    outer loop
      vertex   -5.801685e+01 -1.239608e+00 3.272534e+01
      vertex   -6.117586e+01 -6.000000e+00 3.272534e+01
      vertex   -5.801685e+01 -1.123961e+01 3.272534e+01
    endloop
  endfacet
  facet normal 0.000000e+00 0.000000e+00 1.000000e+00
    outer loop
      vertex   -5.801685e+01 -1.123961e+01 3.272534e+01
      vertex   -6.117586e+01 -6.000000e+00 3.272534e+01
      vertex   -6.117586e+01 -1.123961e+01 3.272534e+01
    endloop
  endfacet
  facet normal 0.000000e+00 0.000000e+00 -1.000000e+00
    outer loop
      vertex   -7.000000e+01 -1.123961e+01 8.725340e+00
      vertex   -7.401685e+01 -1.123961e+01 8.725340e+00
      vertex   -7.000000e+01 -6.000000e+00 8.725340e+00
    endloop
  endfacet
  facet normal -0.000000e+00 0.000000e+00 -1.000000e+00
    outer loop
      vertex   -7.000000e+01 -6.000000e+00 8.725340e+00
      vertex   -7.401685e+01 -1.123961e+01 8.725340e+00
      vertex   -7.401685e+01 -1.239608e+00 8.725340e+00
    endloop
  endfacet
  facet normal 0.000000e+00 0.000000e+00 -1.000000e+00
    outer loop
      vertex   -7.000000e+01 -6.000000e+00 8.725340e+00
      vertex   -7.401685e+01 -1.239608e+00 8.725340e+00
      vertex   -5.801685e+01 -1.239608e+00 8.725340e+00
    endloop
  endfacet
  facet normal 0.000000e+00 0.000000e+00 -1.000000e+00
    outer loop
      vertex   -7.000000e+01 -6.000000e+00 8.725340e+00
      vertex   -5.801685e+01 -1.239608e+00 8.725340e+00
      vertex   -6.117586e+01 -6.000000e+00 8.725340e+00
    endloop
  endfacet
  facet normal 0.000000e+00 0.000000e+00 -1.000000e+00
    outer loop
      vertex   -6.117586e+01 -6.000000e+00 8.725340e+00
      vertex   -5.801685e+01 -1.239608e+00 8.725340e+00
      vertex   -5.801685e+01 -1.123961e+01 8.725340e+00
    endloop
  endfacet
  facet normal 0.000000e+00 0.000000e+00 -1.000000e+00
    outer loop
      vertex   -6.117586e+01 -6.000000e+00 8.725340e+00
      vertex   -5.801685e+01 -1.123961e+01 8.725340e+00
      vertex   -6.117586e+01 -1.123961e+01 8.725340e+00
    endloop
  endfacet
  facet normal 1.000000e+00 0.000000e+00 -0.000000e+00
    outer loop
      vertex   -7.401685e+01 -1.239608e+00 -7.274660e+00
      vertex   -7.401685e+01 -1.239608e+00 8.725340e+00
      vertex   -7.401685e+01 -1.123961e+01 -7.274660e+00
    endloop
  endfacet
  facet normal 1.000000e+00 0.000000e+00 0.000000e+00
    outer loop
      vertex   -7.401685e+01 -1.123961e+01 -7.274660e+00
      vertex   -7.401685e+01 -1.239608e+00 8.725340e+00
      vertex   -7.401685e+01 -1.123961e+01 8.725340e+00
    endloop
  endfacet
  facet normal 0.000000e+00 0.000000e+00 1.000000e+00
    outer loop
      vertex   -5.801685e+01 -1.239608e+00 -7.274660e+00
      vertex   -7.401685e+01 -1.239608e+00 -7.274660e+00
      vertex   -5.801685e+01 -1.123961e+01 -7.274660e+00
    endloop
  endfacet
  facet normal 0.000000e+00 0.000000e+00 1.000000e+00
    outer loop
      vertex   -5.801685e+01 -1.123961e+01 -7.274660e+00
      vertex   -7.401685e+01 -1.239608e+00 -7.274660e+00
      vertex   -7.401685e+01 -1.123961e+01 -7.274660e+00
    endloop
  endfacet
  facet normal -1.000000e+00 -0.000000e+00 -0.000000e+00
    outer loop
      vertex   -5.801685e+01 -1.239608e+00 8.725340e+00
      vertex   -5.801685e+01 -1.239608e+00 -7.274660e+00
      vertex   -5.801685e+01 -1.123961e+01 8.725340e+00
    endloop
  endfacet
  facet normal -1.000000e+00 0.000000e+00 0.000000e+00
    outer loop
      vertex   -5.801685e+01 -1.123961e+01 8.725340e+00
      vertex   -5.801685e+01 -1.239608e+00 -7.274660e+00
      vertex   -5.801685e+01 -1.123961e+01 -7.274660e+00
    endloop
  endfacet
  facet normal -1.000000e+00 0.000000e+00 0.000000e+00
    outer loop
      vertex   -5.801685e+01 -3.000000e+00 1.272534e+01
      vertex   -5.801685e+01 -3.000000e+00 2.872534e+01
      vertex   -5.801685e+01 -1.239608e+00 1.272534e+01
    endloop
  endfacet
  facet normal -1.000000e+00 0.000000e+00 0.000000e+00
    outer loop
      vertex   -5.801685e+01 -1.239608e+00 1.272534e+01
      vertex   -5.801685e+01 -3.000000e+00 2.872534e+01
      vertex   -5.801685e+01 -1.239608e+00 2.872534e+01
    endloop
  endfacet
  facet normal -1.000000e+00 -0.000000e+00 -0.000000e+00
    outer loop
      vertex   -5.801685e+01 -1.239608e+00 4.872534e+01
      vertex   -5.801685e+01 -1.239608e+00 3.272534e+01
      vertex   -5.801685e+01 -1.123961e+01 4.872534e+01
    endloop
  endfacet
  facet normal -1.000000e+00 0.000000e+00 0.000000e+00
    outer loop
      vertex   -5.801685e+01 -1.123961e+01 4.872534e+01
      vertex   -5.801685e+01 -1.239608e+00 3.272534e+01
      vertex   -5.801685e+01 -1.123961e+01 3.272534e+01
    endloop
  endfacet
  facet normal 0.000000e+00 0.000000e+00 -1.000000e+00
    outer loop
      vertex   -7.401685e+01 -1.239608e+00 4.872534e+01
      vertex   -5.801685e+01 -1.239608e+00 4.872534e+01
      vertex   -7.401685e+01 -1.123961e+01 4.872534e+01
    endloop
  endfacet
  facet normal 0.000000e+00 0.000000e+00 -1.000000e+00
    outer loop
      vertex   -7.401685e+01 -1.123961e+01 4.872534e+01
      vertex   -5.801685e+01 -1.239608e+00 4.872534e+01
      vertex   -5.801685e+01 -1.123961e+01 4.872534e+01
    endloop
  endfacet
  facet normal 1.000000e+00 0.000000e+00 -0.000000e+00
    outer loop
      vertex   -7.401685e+01 -1.239608e+00 3.272534e+01
      vertex   -7.401685e+01 -1.239608e+00 4.872534e+01
      vertex   -7.401685e+01 -1.123961e+01 3.272534e+01
    endloop
  endfacet
  facet normal 1.000000e+00 0.000000e+00 0.000000e+00
    outer loop
      vertex   -7.401685e+01 -1.123961e+01 3.272534e+01
      vertex   -7.401685e+01 -1.239608e+00 4.872534e+01
      vertex   -7.401685e+01 -1.123961e+01 4.872534e+01
    endloop
  endfacet
  facet normal 1.000000e+00 0.000000e+00 0.000000e+00
    outer loop
      vertex   -5.601685e+01 -8.424168e+00 3.014744e+01
      vertex   -5.601685e+01 -3.000000e+00 3.014744e+01
      vertex   -5.601685e+01 -1.239608e+00 5.107372e+01
    endloop
  endfacet
  facet normal 1.000000e+00 0.000000e+00 0.000000e+00
    outer loop
      vertex   -5.601685e+01 -1.239608e+00 5.107372e+01
      vertex   -5.601685e+01 -3.000000e+00 3.014744e+01
      vertex   -5.601685e+01 -3.000000e+00 1.200000e+01
    endloop
  endfacet
  facet normal 1.000000e+00 0.000000e+00 0.000000e+00
    outer loop
      vertex   -5.601685e+01 -1.239608e+00 5.107372e+01
      vertex   -5.601685e+01 -3.000000e+00 1.200000e+01
      vertex   -5.601685e+01 -1.239608e+00 -8.926282e+00
    endloop
  endfacet
  facet normal 1.000000e+00 0.000000e+00 0.000000e+00
    outer loop
      vertex   -5.601685e+01 -1.239608e+00 -8.926282e+00
      vertex   -5.601685e+01 -3.000000e+00 1.200000e+01
      vertex   -5.601685e+01 -8.424168e+00 1.200000e+01
    endloop
  endfacet
  facet normal 1.000000e+00 0.000000e+00 0.000000e+00
    outer loop
      vertex   -5.601685e+01 -1.239608e+00 -8.926282e+00
      vertex   -5.601685e+01 -8.424168e+00 1.200000e+01
      vertex   -5.601685e+01 -1.123961e+01 -8.926282e+00
    endloop
  endfacet
  facet normal 1.000000e+00 0.000000e+00 0.000000e+00
    outer loop
      vertex   -5.601685e+01 -1.123961e+01 -8.926282e+00
      vertex   -5.601685e+01 -8.424168e+00 1.200000e+01
      vertex   -5.601685e+01 -8.424168e+00 3.014744e+01
    endloop
  endfacet
  facet normal 1.000000e+00 0.000000e+00 0.000000e+00
    outer loop
      vertex   -5.601685e+01 -1.123961e+01 -8.926282e+00
      vertex   -5.601685e+01 -8.424168e+00 3.014744e+01
      vertex   -5.601685e+01 -1.123961e+01 5.107372e+01
    endloop
  endfacet
  facet normal 1.000000e+00 -0.000000e+00 0.000000e+00
    outer loop
      vertex   -5.601685e+01 -1.123961e+01 5.107372e+01
      vertex   -5.601685e+01 -8.424168e+00 3.014744e+01
      vertex   -5.601685e+01 -1.239608e+00 5.107372e+01
    endloop
  endfacet
  facet normal 0.000000e+00 0.000000e+00 -1.000000e+00
    outer loop
      vertex   -7.601685e+01 -1.239608e+00 -8.926282e+00
      vertex   -5.601685e+01 -1.239608e+00 -8.926282e+00
      vertex   -7.601685e+01 -1.123961e+01 -8.926282e+00
    endloop
  endfacet
  facet normal 0.000000e+00 0.000000e+00 -1.000000e+00
    outer loop
      vertex   -7.601685e+01 -1.123961e+01 -8.926282e+00
      vertex   -5.601685e+01 -1.239608e+00 -8.926282e+00
      vertex   -5.601685e+01 -1.123961e+01 -8.926282e+00
    endloop
  endfacet
  facet normal -1.000000e+00 -0.000000e+00 -0.000000e+00
    outer loop
      vertex   -7.601685e+01 -1.239608e+00 5.107372e+01
      vertex   -7.601685e+01 -1.239608e+00 -8.926282e+00
      vertex   -7.601685e+01 -1.123961e+01 5.107372e+01
    endloop
  endfacet
  facet normal -1.000000e+00 0.000000e+00 0.000000e+00
    outer loop
      vertex   -7.601685e+01 -1.123961e+01 5.107372e+01
      vertex   -7.601685e+01 -1.239608e+00 -8.926282e+00
      vertex   -7.601685e+01 -1.123961e+01 -8.926282e+00
    endloop
  endfacet
  facet normal 0.000000e+00 0.000000e+00 1.000000e+00
    outer loop
      vertex   -5.601685e+01 -1.239608e+00 5.107372e+01
      vertex   -7.601685e+01 -1.239608e+00 5.107372e+01
      vertex   -5.601685e+01 -1.123961e+01 5.107372e+01
    endloop
  endfacet
  facet normal 0.000000e+00 0.000000e+00 1.000000e+00
    outer loop
      vertex   -5.601685e+01 -1.123961e+01 5.107372e+01
      vertex   -7.601685e+01 -1.239608e+00 5.107372e+01
      vertex   -7.601685e+01 -1.123961e+01 5.107372e+01
    endloop
  endfacet
  facet normal 0.000000e+00 1.000000e+00 0.000000e+00
    outer loop
      vertex   -5.801685e+01 -1.239608e+00 4.872534e+01
      vertex   -7.401685e+01 -1.239608e+00 4.872534e+01
      vertex   -7.601685e+01 -1.239608e+00 5.107372e+01
    endloop
  endfacet
  facet normal 0.000000e+00 1.000000e+00 0.000000e+00
    outer loop
      vertex   -7.601685e+01 -1.239608e+00 5.107372e+01
      vertex   -7.401685e+01 -1.239608e+00 4.872534e+01
      vertex   -7.401685e+01 -1.239608e+00 3.272534e+01
    endloop
  endfacet
  facet normal 0.000000e+00 1.000000e+00 0.000000e+00
    outer loop
      vertex   -7.601685e+01 -1.239608e+00 5.107372e+01
      vertex   -7.401685e+01 -1.239608e+00 3.272534e+01
      vertex   -7.401685e+01 -1.239608e+00 2.872534e+01
    endloop
  endfacet
  facet normal 0.000000e+00 1.000000e+00 0.000000e+00
    outer loop
      vertex   -7.401685e+01 -1.239608e+00 2.872534e+01
      vertex   -7.401685e+01 -1.239608e+00 3.272534e+01
      vertex   -5.801685e+01 -1.239608e+00 3.272534e+01
    endloop
  endfacet
  facet normal 0.000000e+00 1.000000e+00 0.000000e+00
    outer loop
      vertex   -7.401685e+01 -1.239608e+00 2.872534e+01
      vertex   -5.801685e+01 -1.239608e+00 3.272534e+01
      vertex   -5.801685e+01 -1.239608e+00 2.872534e+01
    endloop
  endfacet
  facet normal 0.000000e+00 1.000000e+00 0.000000e+00
    outer loop
      vertex   -5.801685e+01 -1.239608e+00 2.872534e+01
      vertex   -5.801685e+01 -1.239608e+00 3.272534e+01
      vertex   -5.601685e+01 -1.239608e+00 5.107372e+01
    endloop
  endfacet
  facet normal -0.000000e+00 1.000000e+00 0.000000e+00
    outer loop
      vertex   -5.801685e+01 -1.239608e+00 2.872534e+01
      vertex   -5.601685e+01 -1.239608e+00 5.107372e+01
      vertex   -5.601685e+01 -1.239608e+00 -8.926282e+00
    endloop
  endfacet
  facet normal 0.000000e+00 1.000000e+00 0.000000e+00
    outer loop
      vertex   -5.801685e+01 -1.239608e+00 3.272534e+01
      vertex   -5.801685e+01 -1.239608e+00 4.872534e+01
      vertex   -5.601685e+01 -1.239608e+00 5.107372e+01
    endloop
  endfacet
  facet normal 0.000000e+00 1.000000e+00 0.000000e+00
    outer loop
      vertex   -5.601685e+01 -1.239608e+00 5.107372e+01
      vertex   -5.801685e+01 -1.239608e+00 4.872534e+01
      vertex   -7.601685e+01 -1.239608e+00 5.107372e+01
    endloop
  endfacet
  facet normal 0.000000e+00 1.000000e+00 0.000000e+00
    outer loop
      vertex   -5.801685e+01 -1.239608e+00 2.872534e+01
      vertex   -5.601685e+01 -1.239608e+00 -8.926282e+00
      vertex   -5.801685e+01 -1.239608e+00 1.272534e+01
    endloop
  endfacet
  facet normal 0.000000e+00 1.000000e+00 0.000000e+00
    outer loop
      vertex   -5.801685e+01 -1.239608e+00 1.272534e+01
      vertex   -5.601685e+01 -1.239608e+00 -8.926282e+00
      vertex   -5.801685e+01 -1.239608e+00 8.725340e+00
    endloop
  endfacet
  facet normal 0.000000e+00 1.000000e+00 0.000000e+00
    outer loop
      vertex   -5.801685e+01 -1.239608e+00 1.272534e+01
      vertex   -5.801685e+01 -1.239608e+00 8.725340e+00
      vertex   -7.401685e+01 -1.239608e+00 8.725340e+00
    endloop
  endfacet
  facet normal 0.000000e+00 1.000000e+00 0.000000e+00
    outer loop
      vertex   -7.601685e+01 -1.239608e+00 5.107372e+01
      vertex   -7.401685e+01 -1.239608e+00 2.872534e+01
      vertex   -7.601685e+01 -1.239608e+00 -8.926282e+00
    endloop
  endfacet
  facet normal 0.000000e+00 1.000000e+00 0.000000e+00
    outer loop
      vertex   -7.601685e+01 -1.239608e+00 -8.926282e+00
      vertex   -7.401685e+01 -1.239608e+00 2.872534e+01
      vertex   -7.401685e+01 -1.239608e+00 1.272534e+01
    endloop
  endfacet
  facet normal 0.000000e+00 1.000000e+00 0.000000e+00
    outer loop
      vertex   -7.601685e+01 -1.239608e+00 -8.926282e+00
      vertex   -7.401685e+01 -1.239608e+00 1.272534e+01
      vertex   -7.401685e+01 -1.239608e+00 8.725340e+00
    endloop
  endfacet
  facet normal 0.000000e+00 1.000000e+00 0.000000e+00
    outer loop
      vertex   -7.401685e+01 -1.239608e+00 8.725340e+00
      vertex   -7.401685e+01 -1.239608e+00 1.272534e+01
      vertex   -5.801685e+01 -1.239608e+00 1.272534e+01
    endloop
  endfacet
  facet normal 0.000000e+00 1.000000e+00 0.000000e+00
    outer loop
      vertex   -5.801685e+01 -1.239608e+00 8.725340e+00
      vertex   -5.601685e+01 -1.239608e+00 -8.926282e+00
      vertex   -5.801685e+01 -1.239608e+00 -7.274660e+00
    endloop
  endfacet
  facet normal 0.000000e+00 1.000000e+00 0.000000e+00
    outer loop
      vertex   -5.801685e+01 -1.239608e+00 -7.274660e+00
      vertex   -5.601685e+01 -1.239608e+00 -8.926282e+00
      vertex   -7.601685e+01 -1.239608e+00 -8.926282e+00
    endloop
  endfacet
  facet normal 0.000000e+00 1.000000e+00 0.000000e+00
    outer loop
      vertex   -5.801685e+01 -1.239608e+00 -7.274660e+00
      vertex   -7.601685e+01 -1.239608e+00 -8.926282e+00
      vertex   -7.401685e+01 -1.239608e+00 -7.274660e+00
    endloop
  endfacet
  facet normal 0.000000e+00 1.000000e+00 -0.000000e+00
    outer loop
      vertex   -7.401685e+01 -1.239608e+00 -7.274660e+00
      vertex   -7.601685e+01 -1.239608e+00 -8.926282e+00
      vertex   -7.401685e+01 -1.239608e+00 8.725340e+00
    endloop
  endfacet
  facet normal 0.000000e+00 0.000000e+00 1.000000e+00
    outer loop
      vertex   -6.295614e+01 -1.239608e+00 5.108659e+01
      vertex   -6.907756e+01 -1.239608e+00 5.108659e+01
      vertex   -6.295614e+01 -2.239608e+00 5.108659e+01
    endloop
  endfacet
  facet normal 0.000000e+00 0.000000e+00 1.000000e+00
    outer loop
      vertex   -6.295614e+01 -2.239608e+00 5.108659e+01
      vertex   -6.907756e+01 -1.239608e+00 5.108659e+01
      vertex   -6.907756e+01 -2.239608e+00 5.108659e+01
    endloop
  endfacet
  facet normal 1.000000e+00 -0.000000e+00 0.000000e+00
    outer loop
      vertex   -6.295614e+01 -2.239608e+00 5.108659e+01
      vertex   -6.295614e+01 -2.239608e+00 -9.000000e+00
      vertex   -6.295614e+01 -1.239608e+00 5.108659e+01
    endloop
  endfacet
  facet normal 1.000000e+00 0.000000e+00 0.000000e+00
    outer loop
      vertex   -6.295614e+01 -1.239608e+00 5.108659e+01
      vertex   -6.295614e+01 -2.239608e+00 -9.000000e+00
      vertex   -6.295614e+01 -1.239608e+00 -9.000000e+00
    endloop
  endfacet
  facet normal 0.000000e+00 -1.000000e+00 0.000000e+00
    outer loop
      vertex   -6.907756e+01 -2.239608e+00 5.108659e+01
      vertex   -6.907756e+01 -2.239608e+00 -9.000000e+00
      vertex   -6.295614e+01 -2.239608e+00 5.108659e+01
    endloop
  endfacet
  facet normal 0.000000e+00 -1.000000e+00 -0.000000e+00
    outer loop
      vertex   -6.295614e+01 -2.239608e+00 5.108659e+01
      vertex   -6.907756e+01 -2.239608e+00 -9.000000e+00
      vertex   -6.295614e+01 -2.239608e+00 -9.000000e+00
    endloop
  endfacet
  facet normal 0.000000e+00 0.000000e+00 -1.000000e+00
    outer loop
      vertex   -6.907756e+01 -1.239608e+00 -9.000000e+00
      vertex   -6.295614e+01 -1.239608e+00 -9.000000e+00
      vertex   -6.907756e+01 -2.239608e+00 -9.000000e+00
    endloop
  endfacet
  facet normal 0.000000e+00 0.000000e+00 -1.000000e+00
    outer loop
      vertex   -6.907756e+01 -2.239608e+00 -9.000000e+00
      vertex   -6.295614e+01 -1.239608e+00 -9.000000e+00
      vertex   -6.295614e+01 -2.239608e+00 -9.000000e+00
    endloop
  endfacet
  facet normal -1.000000e+00 -0.000000e+00 -0.000000e+00
    outer loop
      vertex   -6.907756e+01 -1.239608e+00 5.108659e+01
      vertex   -6.907756e+01 -1.239608e+00 -9.000000e+00
      vertex   -6.907756e+01 -2.239608e+00 5.108659e+01
    endloop
  endfacet
  facet normal -1.000000e+00 0.000000e+00 0.000000e+00
    outer loop
      vertex   -6.907756e+01 -2.239608e+00 5.108659e+01
      vertex   -6.907756e+01 -1.239608e+00 -9.000000e+00
      vertex   -6.907756e+01 -2.239608e+00 -9.000000e+00
    endloop
  endfacet
  facet normal -0.000000e+00 1.000000e+00 0.000000e+00
    outer loop
      vertex   -6.907756e+01 -1.239608e+00 5.108659e+01
      vertex   -6.295614e+01 -1.239608e+00 5.108659e+01
      vertex   -6.907756e+01 -1.239608e+00 -9.000000e+00
    endloop
  endfacet
  facet normal 0.000000e+00 1.000000e+00 0.000000e+00
    outer loop
      vertex   -6.907756e+01 -1.239608e+00 -9.000000e+00
      vertex   -6.295614e+01 -1.239608e+00 5.108659e+01
      vertex   -6.295614e+01 -1.239608e+00 -9.000000e+00
    endloop
  endfacet
endsolid
